STARTFONT 2.1
COMMENT
COMMENT Converted from OpenType font "OldStandard-Bold.ttf" by "otf2bdf 3.0".
COMMENT
FONT -FreeType-Old Standard TT-Bold-R-Normal--28-280-72-72-P-153-ISO10646-1
SIZE 28 72 72
FONTBOUNDINGBOX 77 36 -24 -8
STARTPROPERTIES 19
FOUNDRY "FreeType"
FAMILY_NAME "Old Standard TT"
WEIGHT_NAME "Bold"
SLANT "R"
SETWIDTH_NAME "Normal"
ADD_STYLE_NAME ""
PIXEL_SIZE 28
POINT_SIZE 280
RESOLUTION_X 72
RESOLUTION_Y 72
SPACING "P"
AVERAGE_WIDTH 153
CHARSET_REGISTRY "ISO10646"
CHARSET_ENCODING "1"
FONT_ASCENT 26
FONT_DESCENT 8
COPYRIGHT "Copyright (C) 2006-2008 Alexey Kryukov <alexios@thessalonica.org.ru>"
_OTF_FONTFILE "OldStandard-Bold.ttf"
_OTF_PSNAME "OldStandardTT-Bold"
ENDPROPERTIES
CHARS 1376
STARTCHAR 0020
ENCODING 32
SWIDTH 285 0
DWIDTH 8 0
BBX 0 0 0 0
BITMAP
ENDCHAR
STARTCHAR 0021
ENCODING 33
SWIDTH 321 0
DWIDTH 9 0
BBX 5 21 2 1
BITMAP
F0
F8
F8
F8
F8
70
70
70
70
20
20
20
20
20
20
00
00
70
F8
F8
70
ENDCHAR
STARTCHAR 0022
ENCODING 34
SWIDTH 392 0
DWIDTH 11 0
BBX 7 6 2 16
BITMAP
EE
EE
EE
EE
C6
44
ENDCHAR
STARTCHAR 0023
ENCODING 35
SWIDTH 714 0
DWIDTH 20 0
BBX 16 21 2 0
BITMAP
060C
060C
060C
0608
0618
0618
FFFF
FFFF
0C18
0C18
0C30
0C30
0C30
0830
FFFF
FFFF
1820
1860
1860
1060
3060
ENDCHAR
STARTCHAR 0024
ENCODING 36
SWIDTH 571 0
DWIDTH 16 0
BBX 13 25 2 -2
BITMAP
0900
0B00
3DC0
6930
4908
C908
C938
E978
F970
FD00
7F00
7F00
3FC0
0FE0
0FF0
49F8
E9F8
E938
C918
8918
8910
4920
39C0
0F00
0900
ENDCHAR
STARTCHAR 0025
ENCODING 37
SWIDTH 892 0
DWIDTH 25 0
BBX 19 22 3 0
BITMAP
000100
3C0300
660200
E70400
E70400
E70800
E70800
E71000
E73000
662000
666000
184000
00C300
008CC0
018CC0
011CE0
021CE0
021CE0
041CE0
041CE0
080CC0
180780
ENDCHAR
STARTCHAR 0026
ENCODING 38
SWIDTH 785 0
DWIDTH 22 0
BBX 20 21 1 1
BITMAP
03E000
061000
0E1000
0E1000
0E1000
0E3000
0F2000
0F4000
078000
03C000
07C3F0
09E0C0
30E080
70F080
707900
F03B00
F03E00
F01E00
F81F10
7E6FA0
3FC7C0
ENDCHAR
STARTCHAR 0027
ENCODING 39
SWIDTH 250 0
DWIDTH 7 0
BBX 3 6 2 16
BITMAP
E0
E0
E0
E0
C0
40
ENDCHAR
STARTCHAR 0028
ENCODING 40
SWIDTH 357 0
DWIDTH 10 0
BBX 8 27 2 -6
BITMAP
01
02
04
08
18
30
30
70
70
F0
F0
F0
F0
F0
F0
F0
F0
70
70
70
30
30
18
08
04
02
01
ENDCHAR
STARTCHAR 0029
ENCODING 41
SWIDTH 357 0
DWIDTH 10 0
BBX 8 26 1 -6
BITMAP
80
C0
60
30
18
18
0C
0C
0E
0E
0E
0E
0F
0F
0F
0E
0E
0E
0E
0C
0C
18
18
30
60
C0
ENDCHAR
STARTCHAR 002A
ENCODING 42
SWIDTH 500 0
DWIDTH 14 0
BBX 11 12 2 9
BITMAP
0E00
0E00
4EC0
E4E0
F5C0
0E00
0E00
F5C0
E4C0
4EC0
0E00
0E00
ENDCHAR
STARTCHAR 002B
ENCODING 43
SWIDTH 928 0
DWIDTH 26 0
BBX 24 25 1 -4
BITMAP
001800
001800
001800
001800
001800
001800
001800
001800
001800
001800
001800
001800
FFFFFF
FFFFFF
001800
001800
001800
001800
001800
001800
001800
001800
001800
001800
001800
ENDCHAR
STARTCHAR 002C
ENCODING 44
SWIDTH 250 0
DWIDTH 7 0
BBX 5 10 1 -5
BITMAP
70
F8
F8
F8
78
08
10
10
20
C0
ENDCHAR
STARTCHAR 002D
ENCODING 45
SWIDTH 392 0
DWIDTH 11 0
BBX 7 3 2 6
BITMAP
FE
FE
FE
ENDCHAR
STARTCHAR 002E
ENCODING 46
SWIDTH 285 0
DWIDTH 8 0
BBX 4 4 2 0
BITMAP
60
F0
F0
60
ENDCHAR
STARTCHAR 002F
ENCODING 47
SWIDTH 464 0
DWIDTH 13 0
BBX 9 27 2 -6
BITMAP
0180
0180
0180
0300
0300
0300
0200
0600
0600
0600
0C00
0C00
0C00
1800
1800
1800
1000
3000
3000
3000
6000
6000
6000
C000
C000
C000
8000
ENDCHAR
STARTCHAR 0030
ENCODING 48
SWIDTH 571 0
DWIDTH 16 0
BBX 14 21 1 1
BITMAP
0FC0
1860
3870
3870
7878
7878
F878
F87C
F87C
F87C
F87C
F87C
F87C
F87C
F878
7878
7878
3870
3870
1860
0FC0
ENDCHAR
STARTCHAR 0031
ENCODING 49
SWIDTH 571 0
DWIDTH 16 0
BBX 9 21 3 0
BITMAP
0600
0E00
1E00
FE00
1E00
1E00
1E00
1E00
1E00
1E00
1E00
1E00
1E00
1E00
1E00
1E00
1E00
1E00
1E00
1E00
FF80
ENDCHAR
STARTCHAR 0032
ENCODING 50
SWIDTH 571 0
DWIDTH 16 0
BBX 12 21 2 1
BITMAP
3FC0
61E0
60E0
E0F0
E0F0
F0F0
F8F0
79E0
31E0
03C0
0780
0E00
1C00
3010
6010
4010
C010
FFF0
FFE0
8FE0
87C0
ENDCHAR
STARTCHAR 0033
ENCODING 51
SWIDTH 571 0
DWIDTH 16 0
BBX 13 21 2 1
BITMAP
3FC0
60E0
60E0
E0F0
F0F0
F8F0
78F0
70F0
00E0
01C0
1F00
00E0
00F0
0070
7078
F878
F878
F078
E070
60F0
3BC0
ENDCHAR
STARTCHAR 0034
ENCODING 52
SWIDTH 571 0
DWIDTH 16 0
BBX 13 21 1 0
BITMAP
01C0
01C0
03C0
03C0
07C0
07C0
0FC0
1BC0
1BC0
33C0
23C0
63C0
43C0
C3C0
FFF8
03C0
03C0
03C0
03C0
03C0
1FF8
ENDCHAR
STARTCHAR 0035
ENCODING 53
SWIDTH 571 0
DWIDTH 16 0
BBX 13 21 2 0
BITMAP
60E0
7FC0
7F80
7F00
7800
4000
4000
4000
4F00
71E0
40F0
40F0
00F8
00F8
70F8
F8F8
F8F8
F0F0
E0F0
61E0
3BC0
ENDCHAR
STARTCHAR 0036
ENCODING 54
SWIDTH 571 0
DWIDTH 16 0
BBX 13 21 2 1
BITMAP
0FE0
1820
3830
30F0
70F0
70F0
F060
F000
F000
F780
F8E0
F070
F070
F070
F078
7078
7070
7070
3070
3860
0DC0
ENDCHAR
STARTCHAR 0037
ENCODING 55
SWIDTH 571 0
DWIDTH 16 0
BBX 11 21 3 0
BITMAP
9C40
BE60
FF20
FF20
C7E0
81A0
8040
8040
0080
0080
0100
0300
0700
0600
0E00
0E00
1E00
1E00
1E00
1E00
1E00
ENDCHAR
STARTCHAR 0038
ENCODING 56
SWIDTH 571 0
DWIDTH 16 0
BBX 14 21 2 1
BITMAP
1FC0
3020
6030
6010
E010
F010
F820
FE20
7FC0
3FC0
1FF0
1FF8
63F8
40F8
C03C
C018
C018
C018
6010
7030
1FC0
ENDCHAR
STARTCHAR 0039
ENCODING 57
SWIDTH 571 0
DWIDTH 16 0
BBX 13 21 2 1
BITMAP
1F80
30C0
7060
7070
F070
F070
F078
F078
F078
7078
7078
38F8
0F78
0078
0078
3870
7870
7860
70E0
60C0
3F80
ENDCHAR
STARTCHAR 003A
ENCODING 58
SWIDTH 285 0
DWIDTH 8 0
BBX 4 14 2 0
BITMAP
60
F0
F0
F0
60
00
00
00
00
00
60
F0
F0
60
ENDCHAR
STARTCHAR 003B
ENCODING 59
SWIDTH 285 0
DWIDTH 8 0
BBX 5 19 2 -5
BITMAP
60
F0
F0
F0
60
00
00
00
00
70
F8
F8
F8
F8
08
10
10
20
C0
ENDCHAR
STARTCHAR 003C
ENCODING 60
SWIDTH 928 0
DWIDTH 26 0
BBX 21 24 2 -4
BITMAP
000018
000038
0000F0
0003C0
000F00
001C00
007800
01E000
078000
0E0000
3C0000
F00000
E00000
780000
1E0000
078000
01C000
00F000
003C00
000F00
000380
0001E0
000078
000018
ENDCHAR
STARTCHAR 003D
ENCODING 61
SWIDTH 928 0
DWIDTH 26 0
BBX 24 8 1 4
BITMAP
FFFFFF
FFFFFF
000000
000000
000000
000000
FFFFFF
FFFFFF
ENDCHAR
STARTCHAR 003E
ENCODING 62
SWIDTH 928 0
DWIDTH 26 0
BBX 21 24 3 -4
BITMAP
800000
E00000
780000
1E0000
078000
01C000
00F000
003C00
000F00
000380
0001E0
000078
000038
0000F0
0003C0
000F00
001C00
007800
01E000
078000
0E0000
3C0000
F00000
C00000
ENDCHAR
STARTCHAR 003F
ENCODING 63
SWIDTH 464 0
DWIDTH 13 0
BBX 9 21 2 1
BITMAP
7E00
4700
8780
8780
8780
8780
4700
0E00
0C00
1C00
1000
3000
2200
2200
2200
1C00
0000
0C00
1E00
1E00
0C00
ENDCHAR
STARTCHAR 0040
ENCODING 64
SWIDTH 785 0
DWIDTH 22 0
BBX 20 22 1 0
BITMAP
002000
03DE00
0C0300
180080
3000C0
307060
61CF60
638E30
C78E30
C70E30
C70E30
CF0E30
CF1C30
CF1C20
CF1C60
4F3C40
672C80
63C700
300000
180000
0C0200
03FC00
ENDCHAR
STARTCHAR 0041
ENCODING 65
SWIDTH 785 0
DWIDTH 22 0
BBX 19 21 2 0
BITMAP
004000
006000
00E000
00E000
00F000
01F000
01F000
01F800
027800
027800
027C00
043C00
043C00
043E00
0FFE00
081E00
081F00
100F00
100F00
300F80
FE7FE0
ENDCHAR
STARTCHAR 0042
ENCODING 66
SWIDTH 678 0
DWIDTH 19 0
BBX 17 21 1 0
BITMAP
FFF000
1E1C00
1E0E00
1E0F00
1E0F00
1E0F00
1E0F00
1E0E00
1E0E00
1E1800
1FE000
1E1C00
1E0F00
1E0700
1E0780
1E0780
1E0780
1E0780
1E0700
1E0E00
FFF800
ENDCHAR
STARTCHAR 0043
ENCODING 67
SWIDTH 642 0
DWIDTH 18 0
BBX 15 21 2 1
BITMAP
0FE6
1C1E
381E
380E
780E
7806
F806
F806
F802
F800
F800
F800
F800
F802
F802
7802
7804
3804
3C0C
1C08
0FF0
ENDCHAR
STARTCHAR 0044
ENCODING 68
SWIDTH 750 0
DWIDTH 21 0
BBX 19 21 1 0
BITMAP
FFF800
1E0E00
1E0700
1E0380
1E03C0
1E03C0
1E03C0
1E03E0
1E03E0
1E03E0
1E03E0
1E03E0
1E03E0
1E03E0
1E03C0
1E03C0
1E03C0
1E0380
1E0700
1E0E00
FFF800
ENDCHAR
STARTCHAR 0045
ENCODING 69
SWIDTH 678 0
DWIDTH 19 0
BBX 16 21 1 0
BITMAP
FFFF
1E0F
1E07
1E03
1E03
1E01
1E11
1E10
1E30
1E30
1FF0
1E30
1E30
1E11
1E11
1E01
1E01
1E03
1E07
1E0F
FFFF
ENDCHAR
STARTCHAR 0046
ENCODING 70
SWIDTH 678 0
DWIDTH 19 0
BBX 17 21 1 0
BITMAP
FFFF80
1E0F80
1E0780
1E0380
1E0180
1E0180
1E1180
1E1180
1E3000
1E3000
1FF000
1E3000
1E3000
1E1000
1E1000
1E0000
1E0000
1E0000
1E0000
1E0000
FFC000
ENDCHAR
STARTCHAR 0047
ENCODING 71
SWIDTH 714 0
DWIDTH 20 0
BBX 17 22 2 0
BITMAP
008000
077200
1C1E00
180E00
380600
780600
780600
780200
F80200
F80000
F80000
F80000
F8FF80
F81E00
F81E00
F81E00
781E00
781E00
381E00
381600
1C2200
0EC200
ENDCHAR
STARTCHAR 0048
ENCODING 72
SWIDTH 785 0
DWIDTH 22 0
BBX 20 21 1 0
BITMAP
FFDFF0
1E03C0
1E03C0
1E03C0
1E03C0
1E03C0
1E03C0
1E03C0
1E03C0
1E03C0
1FFFC0
1E03C0
1E03C0
1E03C0
1E03C0
1E03C0
1E03C0
1E03C0
1E03C0
1E03C0
FFDFF0
ENDCHAR
STARTCHAR 0049
ENCODING 73
SWIDTH 392 0
DWIDTH 11 0
BBX 9 21 1 0
BITMAP
FF80
1E00
1E00
1E00
1E00
1E00
1E00
1E00
1E00
1E00
1E00
1E00
1E00
1E00
1E00
1E00
1E00
1E00
1E00
1E00
FF80
ENDCHAR
STARTCHAR 004A
ENCODING 74
SWIDTH 535 0
DWIDTH 15 0
BBX 13 21 1 0
BITMAP
0FF8
01E0
01E0
01E0
01E0
01E0
01E0
01E0
01E0
01E0
01E0
01E0
01E0
71E0
F9E0
F9E0
F9C0
E1C0
C1C0
4180
3700
ENDCHAR
STARTCHAR 004B
ENCODING 75
SWIDTH 750 0
DWIDTH 21 0
BBX 19 21 1 0
BITMAP
FF9FC0
1E0700
1E0600
1E0C00
1E0800
1E1000
1E2000
1E6000
1EF000
1FF000
1FF800
1EF800
1E7C00
1E7C00
1E3E00
1E1E00
1E1F00
1E0F00
1E0F80
1E0F80
FF9FE0
ENDCHAR
STARTCHAR 004C
ENCODING 76
SWIDTH 678 0
DWIDTH 19 0
BBX 17 21 1 0
BITMAP
FF8000
1E0000
1E0000
1E0000
1E0000
1E0000
1E0000
1E0000
1E0000
1E0000
1E0000
1E0000
1E0100
1E0180
1E0180
1E0180
1E0380
1E0380
1E0780
1E0F80
FFFF80
ENDCHAR
STARTCHAR 004D
ENCODING 77
SWIDTH 892 0
DWIDTH 25 0
BBX 23 21 1 0
BITMAP
FE00FE
1E00F0
1F01F0
1F01F0
1F01F0
1F81F0
1782F0
17C2F0
17C2F0
13C4F0
13E4F0
11E4F0
11E4F0
11F8F0
10F8F0
10F8F0
10F8F0
1070F0
1070F0
3830F0
FE23FE
ENDCHAR
STARTCHAR 004E
ENCODING 78
SWIDTH 785 0
DWIDTH 22 0
BBX 21 21 1 0
BITMAP
FE0FF8
1F01C0
1F0080
0F8080
0FC080
0FC080
0BE080
0BF080
09F880
08F880
08FC80
087E80
083E80
081F80
081F80
080F80
080780
080780
080380
1C0180
FF8180
ENDCHAR
STARTCHAR 004F
ENCODING 79
SWIDTH 714 0
DWIDTH 20 0
BBX 17 22 2 0
BITMAP
008000
077000
0C1800
180C00
380E00
780E00
780F00
780F00
F80F80
F80F80
F80F80
F80F80
F80F80
F80F80
F80F80
780F00
780F00
780F00
380E00
180C00
0C1800
077000
ENDCHAR
STARTCHAR 0050
ENCODING 80
SWIDTH 678 0
DWIDTH 19 0
BBX 17 21 1 0
BITMAP
FFF800
1E0E00
1E0700
1E0780
1E0780
1E0780
1E0780
1E0780
1E0F00
1E0E00
1FF800
1E0000
1E0000
1E0000
1E0000
1E0000
1E0000
1E0000
1E0000
1E0000
FFC000
ENDCHAR
STARTCHAR 0051
ENCODING 81
SWIDTH 714 0
DWIDTH 20 0
BBX 17 29 2 -7
BITMAP
008000
077000
0C1800
180C00
380E00
780E00
780F00
780F00
F80F80
F80F80
F80F80
F80F80
F80F80
F80F80
F80F80
780F00
780F00
798E00
3A4E00
1E7C00
1E7880
067080
01E080
006080
007180
007F80
007F00
003F00
001E00
ENDCHAR
STARTCHAR 0052
ENCODING 82
SWIDTH 750 0
DWIDTH 21 0
BBX 19 21 1 0
BITMAP
FFF000
1E1C00
1E0E00
1E0F00
1E0F00
1E0F00
1E0F00
1E0E00
1E1C00
1FE000
1E3000
1E1C00
1E1C00
1E1C00
1E1E00
1E1E00
1E1E20
1E1E20
1E1E20
1E0E40
FFCFC0
ENDCHAR
STARTCHAR 0053
ENCODING 83
SWIDTH 607 0
DWIDTH 17 0
BBX 13 22 3 0
BITMAP
0400
3B90
40F0
C070
C070
E030
F030
F810
FE10
7F00
3F80
1FE0
0FF0
83F0
81F8
8078
C038
C018
E018
E010
F030
9FC0
ENDCHAR
STARTCHAR 0054
ENCODING 84
SWIDTH 714 0
DWIDTH 20 0
BBX 17 21 2 0
BITMAP
FFFF80
E3CF80
C3C780
C3C380
83C380
83C180
83C180
03C180
03C080
03C000
03C000
03C000
03C000
03C000
03C000
03C000
03C000
03C000
03C000
03C000
1FF800
ENDCHAR
STARTCHAR 0055
ENCODING 85
SWIDTH 785 0
DWIDTH 22 0
BBX 19 21 2 0
BITMAP
FF0FE0
3C0380
3C0100
3C0100
3C0100
3C0100
3C0100
3C0100
3C0100
3C0100
3C0100
3C0100
3C0100
3C0100
3C0100
3C0100
3C0100
1C0100
1C0200
0E0400
07F800
ENDCHAR
STARTCHAR 0056
ENCODING 86
SWIDTH 785 0
DWIDTH 22 0
BBX 20 21 1 0
BITMAP
FFCFF0
1E0180
1F0100
1F0100
0F0100
0F8200
0F8200
078200
07C400
07C400
03C400
03E800
03E800
01E800
01F800
00F000
00F000
00F000
006000
006000
006000
ENDCHAR
STARTCHAR 0057
ENCODING 87
SWIDTH 1107 0
DWIDTH 31 0
BBX 28 21 2 0
BITMAP
FFBFE7F0
3E0F81C0
1E078180
1E078180
1F07C100
0F07C100
0F07C100
0F8FE200
0789E200
0789E200
07C9F600
03D0F400
03D0F400
03F0FC00
01F07C00
01E07800
01E07800
00E03800
00C03000
00C03000
00401000
ENDCHAR
STARTCHAR 0058
ENCODING 88
SWIDTH 714 0
DWIDTH 20 0
BBX 19 21 1 0
BITMAP
FF9FC0
3F0600
1F0600
0F0400
0F8800
079800
07D000
03F000
03E000
01F000
01F000
00F800
01F800
037C00
027C00
063E00
043E00
081E00
181F00
181F80
FE3FE0
ENDCHAR
STARTCHAR 0059
ENCODING 89
SWIDTH 750 0
DWIDTH 21 0
BBX 18 21 2 0
BITMAP
FF1FC0
3E0700
1E0600
1E0400
1F0400
0F0400
0F8800
078800
079000
07D000
03F000
03E000
01E000
01E000
01E000
01E000
01E000
01E000
01E000
01E000
07F800
ENDCHAR
STARTCHAR 005A
ENCODING 90
SWIDTH 678 0
DWIDTH 19 0
BBX 15 21 2 0
BITMAP
7FFE
783E
707C
607C
60F8
40F8
41F0
01F0
03E0
03E0
07C0
0780
0F80
1F02
1F02
3E02
3E06
7C06
7C0E
F81E
FFFE
ENDCHAR
STARTCHAR 005B
ENCODING 91
SWIDTH 392 0
DWIDTH 11 0
BBX 7 26 2 -5
BITMAP
FE
F0
F0
F0
F0
F0
F0
F0
F0
F0
F0
F0
F0
F0
F0
F0
F0
F0
F0
F0
F0
F0
F0
F0
F0
FE
ENDCHAR
STARTCHAR 005C
ENCODING 92
SWIDTH 464 0
DWIDTH 13 0
BBX 10 27 1 -6
BITMAP
C000
6000
6000
6000
2000
3000
3000
3000
1800
1800
1800
0C00
0C00
0C00
0400
0600
0600
0600
0300
0300
0300
0180
0180
0180
0080
00C0
00C0
ENDCHAR
STARTCHAR 005D
ENCODING 93
SWIDTH 392 0
DWIDTH 11 0
BBX 7 26 2 -5
BITMAP
FE
1E
1E
1E
1E
1E
1E
1E
1E
1E
1E
1E
1E
1E
1E
1E
1E
1E
1E
1E
1E
1E
1E
1E
1E
FE
ENDCHAR
STARTCHAR 005E
ENCODING 94
SWIDTH 571 0
DWIDTH 16 0
BBX 12 10 2 12
BITMAP
0600
0700
0F00
1D80
1980
30C0
30E0
6060
E030
C030
ENDCHAR
STARTCHAR 005F
ENCODING 95
SWIDTH 535 0
DWIDTH 15 0
BBX 15 2 0 -5
BITMAP
FFFE
FFFE
ENDCHAR
STARTCHAR 0060
ENCODING 96
SWIDTH 428 0
DWIDTH 12 0
BBX 5 5 2 16
BITMAP
C0
E0
70
30
18
ENDCHAR
STARTCHAR 0061
ENCODING 97
SWIDTH 500 0
DWIDTH 14 0
BBX 12 14 1 0
BITMAP
1E00
6380
63C0
F3C0
73C0
23C0
0FC0
33C0
73C0
F3C0
F3D0
F3D0
F3D0
7DE0
ENDCHAR
STARTCHAR 0062
ENCODING 98
SWIDTH 500 0
DWIDTH 14 0
BBX 13 21 0 0
BITMAP
FC00
3C00
3C00
3C00
3C00
3C00
3C00
3DC0
3E60
3C70
3C70
3C78
3C78
3C78
3C78
3C78
3C78
3C70
3470
2660
23C0
ENDCHAR
STARTCHAR 0063
ENCODING 99
SWIDTH 464 0
DWIDTH 13 0
BBX 10 14 1 0
BITMAP
0F00
3880
70C0
71C0
F3C0
F380
F000
F000
F000
F000
7040
7040
3880
0F00
ENDCHAR
STARTCHAR 0064
ENCODING 100
SWIDTH 535 0
DWIDTH 15 0
BBX 13 21 1 0
BITMAP
03E0
01E0
01E0
01E0
01E0
01E0
01E0
1DE0
33E0
71E0
71E0
F1E0
F1E0
F1E0
F1E0
F1E0
F1E0
71E0
71E0
33E0
1DF8
ENDCHAR
STARTCHAR 0065
ENCODING 101
SWIDTH 464 0
DWIDTH 13 0
BBX 11 14 1 0
BITMAP
0F00
3380
71C0
71C0
F1C0
F1E0
FFE0
F000
F000
F020
7040
7040
3880
0F00
ENDCHAR
STARTCHAR 0066
ENCODING 102
SWIDTH 357 0
DWIDTH 10 0
BBX 11 21 1 0
BITMAP
0780
0CC0
1CC0
3DE0
3DC0
3C00
3C00
FE00
3C00
3C00
3C00
3C00
3C00
3C00
3C00
3C00
3C00
3C00
3C00
3C00
FE00
ENDCHAR
STARTCHAR 0067
ENCODING 103
SWIDTH 571 0
DWIDTH 16 0
BBX 14 21 1 -7
BITMAP
0F18
39EC
79FC
79F8
79E0
79E0
39C0
39C0
0F00
7000
C000
FF00
FFE0
7FF0
3FF8
4038
8018
8010
8030
6060
1F80
ENDCHAR
STARTCHAR 0068
ENCODING 104
SWIDTH 571 0
DWIDTH 16 0
BBX 14 21 1 0
BITMAP
FC00
3C00
3C00
3C00
3C00
3C00
3C00
3DE0
3E70
3C70
3C78
3C78
3C78
3C78
3C78
3C78
3C78
3C78
3C78
3C78
FEFC
ENDCHAR
STARTCHAR 0069
ENCODING 105
SWIDTH 285 0
DWIDTH 8 0
BBX 6 21 1 0
BITMAP
30
78
78
30
00
00
00
F8
78
78
78
78
78
78
78
78
78
78
78
78
FC
ENDCHAR
STARTCHAR 006A
ENCODING 106
SWIDTH 285 0
DWIDTH 8 0
BBX 8 28 -1 -7
BITMAP
06
0F
0F
06
00
00
00
1F
0F
0F
0F
0F
0F
0F
0F
0F
0F
0F
0F
0F
0F
0F
4F
FF
EF
EE
CE
38
ENDCHAR
STARTCHAR 006B
ENCODING 107
SWIDTH 571 0
DWIDTH 16 0
BBX 14 21 1 0
BITMAP
FC00
3C00
3C00
3C00
3C00
3C00
3C00
3CF8
3C60
3C40
3C80
3C80
3D80
3F80
3FC0
3DE0
3CE0
3CF0
3C70
3C78
FEFC
ENDCHAR
STARTCHAR 006C
ENCODING 108
SWIDTH 321 0
DWIDTH 9 0
BBX 8 21 1 0
BITMAP
FC
3C
3C
3C
3C
3C
3C
3C
3C
3C
3C
3C
3C
3C
3C
3C
3C
3C
3C
3C
FF
ENDCHAR
STARTCHAR 006D
ENCODING 109
SWIDTH 821 0
DWIDTH 23 0
BBX 20 14 2 0
BITMAP
F9C780
7EE9C0
78F1C0
78F1E0
78F1E0
78F1E0
78F1E0
78F1E0
78F1E0
78F1E0
78F1E0
78F1E0
78F1E0
FDFBF0
ENDCHAR
STARTCHAR 006E
ENCODING 110
SWIDTH 571 0
DWIDTH 16 0
BBX 13 14 2 0
BITMAP
FBC0
7CE0
78E0
78F0
78F0
78F0
78F0
78F0
78F0
78F0
78F0
78F0
78F0
FDF8
ENDCHAR
STARTCHAR 006F
ENCODING 111
SWIDTH 500 0
DWIDTH 14 0
BBX 12 14 1 0
BITMAP
0F00
3180
70C0
70E0
F0E0
F0E0
F0F0
F0F0
F0E0
F0E0
70E0
70C0
3180
0F00
ENDCHAR
STARTCHAR 0070
ENCODING 112
SWIDTH 535 0
DWIDTH 15 0
BBX 13 21 1 -7
BITMAP
FDC0
3E60
3C70
3C70
3C78
3C78
3C78
3C78
3C78
3C78
3C70
3C70
3E60
3DC0
3C00
3C00
3C00
3C00
3C00
3C00
FE00
ENDCHAR
STARTCHAR 0071
ENCODING 113
SWIDTH 500 0
DWIDTH 14 0
BBX 13 21 1 -7
BITMAP
1E20
3320
7160
71E0
F1E0
F1E0
F1E0
F1E0
F1E0
F1E0
71E0
71E0
33E0
1DE0
01E0
01E0
01E0
01E0
01E0
01E0
03F8
ENDCHAR
STARTCHAR 0072
ENCODING 114
SWIDTH 428 0
DWIDTH 12 0
BBX 10 14 2 0
BITMAP
FB80
7D80
7BC0
7B80
7980
7800
7800
7800
7800
7800
7800
7800
7800
FC00
ENDCHAR
STARTCHAR 0073
ENCODING 115
SWIDTH 464 0
DWIDTH 13 0
BBX 10 14 2 0
BITMAP
3C80
4380
C180
C180
E080
F800
7E00
3F80
8F80
83C0
C0C0
E0C0
F080
8F00
ENDCHAR
STARTCHAR 0074
ENCODING 116
SWIDTH 357 0
DWIDTH 10 0
BBX 9 20 0 0
BITMAP
0800
0800
0800
1800
1800
3800
FF00
3800
3800
3800
3800
3800
3800
3880
3880
3880
3880
3980
3900
0E00
ENDCHAR
STARTCHAR 0075
ENCODING 117
SWIDTH 535 0
DWIDTH 15 0
BBX 14 14 0 0
BITMAP
FDF8
3C78
3C78
3C78
3C78
3C78
3C78
3C78
3C78
3C78
3C78
3CF8
1D78
0E7C
ENDCHAR
STARTCHAR 0076
ENCODING 118
SWIDTH 535 0
DWIDTH 15 0
BBX 13 14 1 0
BITMAP
FCF8
7820
3820
3C20
1C40
1C40
1E40
0E80
0E80
0F00
0700
0700
0600
0200
ENDCHAR
STARTCHAR 0077
ENCODING 119
SWIDTH 785 0
DWIDTH 22 0
BBX 20 14 1 0
BITMAP
FDFDF0
787840
387840
3C3840
1C7880
1C7C80
1E5C80
0E9D00
0E9F00
0F8F00
070E00
070E00
060600
020400
ENDCHAR
STARTCHAR 0078
ENCODING 120
SWIDTH 535 0
DWIDTH 15 0
BBX 13 14 1 0
BITMAP
FEF8
3C60
3C40
1E80
1E80
0F00
0700
0780
07C0
0BC0
09E0
10E0
30F0
FDF8
ENDCHAR
STARTCHAR 0079
ENCODING 121
SWIDTH 535 0
DWIDTH 15 0
BBX 13 21 1 -7
BITMAP
FCF8
7820
3820
3C40
1C40
1C40
1E40
0E80
0F80
0780
0780
0700
0300
0300
0200
0200
3200
7A00
7400
7400
3800
ENDCHAR
STARTCHAR 007A
ENCODING 122
SWIDTH 464 0
DWIDTH 13 0
BBX 11 14 1 0
BITMAP
7FE0
61E0
43C0
4380
4780
0F00
0F00
1E00
1E20
3C20
3820
7860
F0E0
FFE0
ENDCHAR
STARTCHAR 007B
ENCODING 123
SWIDTH 428 0
DWIDTH 12 0
BBX 9 27 1 -6
BITMAP
0080
0700
0E00
1E00
1E00
1E00
1E00
1E00
1E00
1E00
1C00
1C00
3800
E000
3800
1C00
1C00
1E00
1E00
1E00
1E00
1E00
1E00
1E00
0E00
0700
0080
ENDCHAR
STARTCHAR 007C
ENCODING 124
SWIDTH 285 0
DWIDTH 8 0
BBX 2 27 3 -6
BITMAP
C0
C0
C0
C0
C0
C0
C0
C0
C0
C0
C0
C0
C0
C0
C0
C0
C0
C0
C0
C0
C0
C0
C0
C0
C0
C0
C0
ENDCHAR
STARTCHAR 007D
ENCODING 125
SWIDTH 464 0
DWIDTH 13 0
BBX 9 27 2 -6
BITMAP
C000
3800
1C00
1C00
1E00
1E00
1E00
1E00
1E00
1E00
1E00
1E00
0E00
0180
0E00
1E00
1E00
1E00
1E00
1E00
1E00
1E00
1E00
1C00
1C00
3800
C000
ENDCHAR
STARTCHAR 007E
ENCODING 126
SWIDTH 642 0
DWIDTH 18 0
BBX 16 6 1 5
BITMAP
7C02
7F01
8FC1
83F1
80FE
403E
ENDCHAR
STARTCHAR 00A0
ENCODING 160
SWIDTH 285 0
DWIDTH 8 0
BBX 0 0 0 0
BITMAP
ENDCHAR
STARTCHAR 00A1
ENCODING 161
SWIDTH 321 0
DWIDTH 9 0
BBX 5 21 2 -7
BITMAP
70
F8
F8
70
00
00
20
20
20
20
20
70
70
70
70
F8
F8
F8
F8
F8
70
ENDCHAR
STARTCHAR 00A2
ENCODING 162
SWIDTH 571 0
DWIDTH 16 0
BBX 10 21 3 -3
BITMAP
0200
0200
0200
0F00
1A80
32C0
72C0
F3C0
F3C0
F200
F200
F200
F200
F240
7240
3240
1E80
0F00
0200
0200
0200
ENDCHAR
STARTCHAR 00A3
ENCODING 163
SWIDTH 714 0
DWIDTH 20 0
BBX 17 21 2 1
BITMAP
00FE00
018300
038300
038780
078780
078700
078000
078000
078000
1F8000
27F800
078000
07C000
03C000
038000
038000
038080
7B0180
8F8700
87FE00
79FC00
ENDCHAR
STARTCHAR 00A4
ENCODING 164
SWIDTH 607 0
DWIDTH 17 0
BBX 13 13 2 3
BITMAP
CF98
FFF8
7070
6030
C018
C018
C018
C018
C018
6030
7070
FFF8
CF98
ENDCHAR
STARTCHAR 00A5
ENCODING 165
SWIDTH 571 0
DWIDTH 16 0
BBX 15 21 1 0
BITMAP
FE7E
7C18
7C18
3C10
3C10
1E20
1E20
1E40
0F40
0F80
0780
7FF8
0780
7FF8
0780
0780
0780
0780
0780
0780
3FF0
ENDCHAR
STARTCHAR 00A6
ENCODING 166
SWIDTH 285 0
DWIDTH 8 0
BBX 2 26 3 -5
BITMAP
C0
C0
C0
C0
C0
C0
C0
C0
C0
C0
00
00
00
00
00
00
C0
C0
C0
C0
C0
C0
C0
C0
C0
C0
ENDCHAR
STARTCHAR 00A7
ENCODING 167
SWIDTH 642 0
DWIDTH 18 0
BBX 13 27 1 -6
BITMAP
0F80
1040
2060
60E0
61E0
61E0
7080
7C00
3F00
5FC0
4FF0
C3F0
C0F8
E038
F818
7E10
7F90
1FE0
07E0
01E0
30E0
7860
7860
7060
60C0
3080
1F00
ENDCHAR
STARTCHAR 00A8
ENCODING 168
SWIDTH 464 0
DWIDTH 13 0
BBX 9 4 2 16
BITMAP
6300
F780
F780
6300
ENDCHAR
STARTCHAR 00A9
ENCODING 169
SWIDTH 785 0
DWIDTH 22 0
BBX 20 21 1 1
BITMAP
03FC00
0C0300
100080
200040
20F440
418C20
438420
838410
878410
878410
878010
878010
878010
878210
438420
438420
218840
20F040
100080
0C0300
03FC00
ENDCHAR
STARTCHAR 00AA
ENCODING 170
SWIDTH 357 0
DWIDTH 10 0
BBX 8 11 1 10
BITMAP
38
4C
6C
6C
3C
CC
CD
CD
76
00
FF
ENDCHAR
STARTCHAR 00AB
ENCODING 171
SWIDTH 464 0
DWIDTH 13 0
BBX 7 11 3 2
BITMAP
22
44
C4
CC
CC
CC
CC
CC
44
62
22
ENDCHAR
STARTCHAR 00AC
ENCODING 172
SWIDTH 571 0
DWIDTH 16 0
BBX 14 8 1 4
BITMAP
FFFC
FFFC
000C
000C
000C
000C
000C
000C
ENDCHAR
STARTCHAR 00AD
ENCODING 173
SWIDTH 392 0
DWIDTH 11 0
BBX 7 3 2 6
BITMAP
FE
FE
FE
ENDCHAR
STARTCHAR 00AE
ENCODING 174
SWIDTH 785 0
DWIDTH 22 0
BBX 20 21 1 1
BITMAP
03FC00
0C0300
100080
200040
2FF840
43CE20
43CE20
83CF10
83CE10
83CE10
83F010
83CC10
83CE10
83CE10
43CEA0
43CEA0
23CEC0
2FE740
100080
0C0300
03FC00
ENDCHAR
STARTCHAR 00AF
ENCODING 175
SWIDTH 464 0
DWIDTH 13 0
BBX 7 2 3 17
BITMAP
FE
FE
ENDCHAR
STARTCHAR 00B0
ENCODING 176
SWIDTH 607 0
DWIDTH 17 0
BBX 9 10 4 12
BITMAP
0800
3E00
7700
C180
C180
C180
C180
6300
7F00
1C00
ENDCHAR
STARTCHAR 00B1
ENCODING 177
SWIDTH 928 0
DWIDTH 26 0
BBX 24 22 1 -2
BITMAP
001800
001800
001800
001800
001800
001800
001800
001800
FFFFFF
FFFFFF
001800
001800
001800
001800
001800
001800
001800
001800
000000
000000
FFFFFF
FFFFFF
ENDCHAR
STARTCHAR 00B2
ENCODING 178
SWIDTH 464 0
DWIDTH 13 0
BBX 9 12 2 9
BITMAP
3E00
4700
C780
E700
6F00
0C00
1800
2100
4180
FF00
9F00
8E00
ENDCHAR
STARTCHAR 00B3
ENCODING 179
SWIDTH 464 0
DWIDTH 13 0
BBX 10 13 2 8
BITMAP
3E00
4300
C380
E380
6380
0300
3C00
0700
0380
F3C0
E380
C780
3E00
ENDCHAR
STARTCHAR 00B4
ENCODING 180
SWIDTH 428 0
DWIDTH 12 0
BBX 5 5 5 16
BITMAP
18
38
70
60
C0
ENDCHAR
STARTCHAR 00B5
ENCODING 181
SWIDTH 607 0
DWIDTH 17 0
BBX 14 22 2 -8
BITMAP
60C0
E0E0
F1E0
F1E0
E1E0
E1E0
E0E0
E0E0
60C0
40C4
40C4
41FC
7F7C
4E38
4000
4000
6000
E000
F000
F000
7000
6000
ENDCHAR
STARTCHAR 00B6
ENCODING 182
SWIDTH 607 0
DWIDTH 17 0
BBX 13 25 2 -4
BITMAP
1FF8
7E60
FE60
FE60
FE60
FE60
FE60
FE60
FE60
7E60
3E60
0660
0660
0660
0660
0660
0660
0660
0660
0660
0660
0660
0660
0660
0660
ENDCHAR
STARTCHAR 00B7
ENCODING 183
SWIDTH 285 0
DWIDTH 8 0
BBX 4 4 2 7
BITMAP
60
F0
F0
60
ENDCHAR
STARTCHAR 00B8
ENCODING 184
SWIDTH 464 0
DWIDTH 13 0
BBX 5 6 4 -7
BITMAP
20
40
30
18
18
F0
ENDCHAR
STARTCHAR 00B9
ENCODING 185
SWIDTH 464 0
DWIDTH 13 0
BBX 7 12 3 9
BITMAP
1C
FC
3C
3C
3C
3C
3C
3C
3C
3C
3C
FE
ENDCHAR
STARTCHAR 00BA
ENCODING 186
SWIDTH 392 0
DWIDTH 11 0
BBX 8 11 2 10
BITMAP
3C
66
E6
E7
E7
E7
E6
66
3C
00
FF
ENDCHAR
STARTCHAR 00BB
ENCODING 187
SWIDTH 464 0
DWIDTH 13 0
BBX 7 11 3 2
BITMAP
88
44
66
66
66
66
66
66
44
8C
88
ENDCHAR
STARTCHAR 00BC
ENCODING 188
SWIDTH 928 0
DWIDTH 26 0
BBX 22 21 3 0
BITMAP
0C0180
1C0100
FC0300
3C0200
3C0600
3C0C00
3C0C00
3C1800
3C1000
3C3070
3C20F0
3C61F0
FE41F0
00C2F0
0082F0
0184F0
0308F0
030FFC
0600F0
0400F0
0C03F8
ENDCHAR
STARTCHAR 00BD
ENCODING 189
SWIDTH 928 0
DWIDTH 26 0
BBX 21 22 3 0
BITMAP
000180
1C0100
FC0300
3C0200
3C0600
3C0400
3C0C00
3C1800
3C1800
3C33E0
3C2470
3C6C78
3C4E78
FECE78
008670
0180C0
010100
030208
020408
060FF8
040BF0
0C08E0
ENDCHAR
STARTCHAR 00BE
ENCODING 190
SWIDTH 892 0
DWIDTH 25 0
BBX 22 21 2 0
BITMAP
3E0080
430180
C38100
E38300
638200
030600
3C0400
070800
039800
F3D070
E3B070
C7A0F0
3E61F0
0041F0
00C2F0
0082F0
0184F0
0107FC
0300F0
0200F0
0603FC
ENDCHAR
STARTCHAR 00BF
ENCODING 191
SWIDTH 464 0
DWIDTH 13 0
BBX 9 22 2 -7
BITMAP
1800
3C00
3C00
3C00
1800
0000
1C00
2200
2200
2200
0600
0C00
1C00
3800
7000
7100
F080
F080
F080
F080
7100
3E00
ENDCHAR
STARTCHAR 00C0
ENCODING 192
SWIDTH 785 0
DWIDTH 22 0
BBX 19 27 2 1
BITMAP
030000
038000
018000
00C000
004000
000000
004000
006000
00E000
00E000
00F000
01F000
01F000
01F800
027800
027800
027C00
043C00
043C00
043E00
0FFE00
081E00
081F00
100F00
100F00
300F80
FE7FE0
ENDCHAR
STARTCHAR 00C1
ENCODING 193
SWIDTH 750 0
DWIDTH 21 0
BBX 19 27 2 1
BITMAP
001800
003800
003000
006000
004000
000000
004000
006000
00E000
00E000
00F000
01F000
01F000
01F800
027800
027800
027C00
043C00
043C00
083C00
0FFE00
081E00
101E00
100F00
100F00
300F80
FE7FE0
ENDCHAR
STARTCHAR 00C2
ENCODING 194
SWIDTH 785 0
DWIDTH 22 0
BBX 19 27 2 0
BITMAP
004000
00E000
01F000
031800
040400
000000
004000
006000
00E000
00E000
00F000
01F000
01F000
01F800
027800
027800
027C00
043C00
043C00
043E00
0FFE00
081E00
081F00
100F00
100F00
300F80
FE7FE0
ENDCHAR
STARTCHAR 00C3
ENCODING 195
SWIDTH 750 0
DWIDTH 21 0
BBX 19 27 2 0
BITMAP
000400
01C800
03F800
047000
000000
000000
004000
006000
00E000
00E000
00F000
01F000
01F000
01F800
027800
027800
027C00
043C00
043C00
043C00
0FFE00
081E00
181E00
100F00
100F00
300F80
FE7FE0
ENDCHAR
STARTCHAR 00C4
ENCODING 196
SWIDTH 785 0
DWIDTH 22 0
BBX 19 27 2 0
BITMAP
030C00
079E00
079E00
030C00
000000
000000
006000
006000
00E000
00F000
00F000
01F000
01F800
017800
027800
027C00
023C00
043C00
043E00
041E00
0FFE00
081F00
080F00
100F00
100F00
300F80
FE7FE0
ENDCHAR
STARTCHAR 00C5
ENCODING 197
SWIDTH 750 0
DWIDTH 21 0
BBX 19 27 1 0
BITMAP
00F000
010800
010800
010800
00F000
000000
006000
006000
00F000
00F000
00F000
01F800
01F800
017800
017800
027C00
023C00
023C00
043E00
041E00
07FE00
081F00
080F00
080F00
180F00
180F80
FE3FE0
ENDCHAR
STARTCHAR 00C6
ENCODING 198
SWIDTH 1000 0
DWIDTH 28 0
BBX 26 21 0 0
BITMAP
003FFFC0
000F83C0
000F81C0
001F80C0
001780C0
00378040
00278440
00678400
00478C00
00C79C00
0087FC00
01879C00
01078C00
03078440
03FF8440
06078040
04078040
0C0780C0
0C0781C0
1C0783C0
FF3FFFC0
ENDCHAR
STARTCHAR 00C7
ENCODING 199
SWIDTH 642 0
DWIDTH 18 0
BBX 15 28 2 -6
BITMAP
0FE6
1C1E
381E
380E
780E
7806
F806
F806
F802
F800
F800
F800
F800
F802
7802
7802
7804
3804
3C0C
1C08
0630
01C0
0100
01C0
0060
0060
0460
03C0
ENDCHAR
STARTCHAR 00C8
ENCODING 200
SWIDTH 678 0
DWIDTH 19 0
BBX 16 27 1 1
BITMAP
0600
0700
0300
0180
0000
0000
FFFF
1E0F
1E07
1E03
1E03
1E01
1E11
1E10
1E30
1E30
1FF0
1E30
1E30
1E11
1E11
1E01
1E01
1E03
1E07
1E0F
FFFF
ENDCHAR
STARTCHAR 00C9
ENCODING 201
SWIDTH 678 0
DWIDTH 19 0
BBX 16 27 1 1
BITMAP
0038
0078
0060
00C0
0000
0000
FFFF
1E0F
1E07
1E03
1E03
1E01
1E11
1E10
1E30
1E30
1FF0
1E30
1E30
1E11
1E11
1E01
1E01
1E03
1E07
1E0F
FFFF
ENDCHAR
STARTCHAR 00CA
ENCODING 202
SWIDTH 678 0
DWIDTH 19 0
BBX 16 27 1 0
BITMAP
0080
01C0
0360
0638
0800
0000
FFFF
1E0F
1E07
1E03
1E03
1E01
1E11
1E10
1E30
1E30
1FF0
1E30
1E30
1E11
1E11
1E01
1E01
1E03
1E07
1E0F
FFFF
ENDCHAR
STARTCHAR 00CB
ENCODING 203
SWIDTH 678 0
DWIDTH 19 0
BBX 16 27 1 0
BITMAP
0618
0F3C
0F3C
0618
0000
0000
FFFF
1E0F
1E07
1E03
1E03
1E01
1E11
1E10
1E30
1E30
1FF0
1E30
1E30
1E11
1E11
1E01
1E01
1E03
1E07
1E0F
FFFF
ENDCHAR
STARTCHAR 00CC
ENCODING 204
SWIDTH 392 0
DWIDTH 11 0
BBX 9 27 1 1
BITMAP
6000
7000
3800
0800
0000
0000
FF80
1E00
1E00
1E00
1E00
1E00
1E00
1E00
1E00
1E00
1E00
1E00
1E00
1E00
1E00
1E00
1E00
1E00
1E00
1E00
FF80
ENDCHAR
STARTCHAR 00CD
ENCODING 205
SWIDTH 428 0
DWIDTH 12 0
BBX 10 27 1 1
BITMAP
0380
0380
0600
0C00
0800
0000
FFC0
1E00
1E00
1E00
1E00
1E00
1E00
1E00
1E00
1E00
1E00
1E00
1E00
1E00
1E00
1E00
1E00
1E00
1E00
1E00
FFC0
ENDCHAR
STARTCHAR 00CE
ENCODING 206
SWIDTH 392 0
DWIDTH 11 0
BBX 9 27 1 0
BITMAP
0C00
1C00
3E00
6300
0080
0000
FF80
1E00
1E00
1E00
1E00
1E00
1E00
1E00
1E00
1E00
1E00
1E00
1E00
1E00
1E00
1E00
1E00
1E00
1E00
1E00
FF80
ENDCHAR
STARTCHAR 00CF
ENCODING 207
SWIDTH 464 0
DWIDTH 13 0
BBX 10 27 2 0
BITMAP
6180
F3C0
F3C0
6180
0000
0000
FFC0
1E00
1E00
1E00
1E00
1E00
1E00
1E00
1E00
1E00
1E00
1E00
1E00
1E00
1E00
1E00
1E00
1E00
1E00
1E00
FFC0
ENDCHAR
STARTCHAR 00D0
ENCODING 208
SWIDTH 785 0
DWIDTH 22 0
BBX 19 21 2 0
BITMAP
FFF800
1E0E00
1E0700
1E0380
1E03C0
1E03C0
1E03C0
1E03E0
1E03E0
1E03E0
FF83E0
1E03E0
1E03E0
1E03E0
1E03C0
1E03C0
1E0380
1E0380
1E0700
1E0E00
FFF800
ENDCHAR
STARTCHAR 00D1
ENCODING 209
SWIDTH 785 0
DWIDTH 22 0
BBX 21 26 1 1
BITMAP
00E200
01FE00
021C00
000000
000000
FE0FF8
1F01C0
1F0080
0F8080
0FC080
0FC080
0BE080
0BF080
09F880
08F880
08FC80
087E80
083E80
081F80
081F80
080F80
080780
080780
080380
1C0180
FF8180
ENDCHAR
STARTCHAR 00D2
ENCODING 210
SWIDTH 714 0
DWIDTH 20 0
BBX 17 27 2 1
BITMAP
0E0000
070000
030000
018000
000000
008000
077000
0C1800
180C00
380E00
780E00
780F00
780F00
F80F80
F80F80
F80F80
F80F80
F80F80
F80F80
F80F80
780F00
780F00
780F00
380E00
180C00
0C1800
077000
ENDCHAR
STARTCHAR 00D3
ENCODING 211
SWIDTH 714 0
DWIDTH 20 0
BBX 17 27 2 1
BITMAP
003800
007000
006000
00C000
000000
008000
077000
0C1800
180C00
380E00
780E00
780F00
780F00
F80F80
F80F80
F80F80
F80F80
F80F80
F80F80
F80F80
780F00
780F00
780F00
380E00
180C00
0C1800
077000
ENDCHAR
STARTCHAR 00D4
ENCODING 212
SWIDTH 714 0
DWIDTH 20 0
BBX 17 27 2 0
BITMAP
008000
01C000
036000
063000
080800
008000
077000
0C1800
180C00
380E00
780E00
780F00
780F00
F80F80
F80F80
F80F80
F80F80
F80F80
F80F80
F80F80
780F00
780F00
780F00
380E00
180C00
0C1800
077000
ENDCHAR
STARTCHAR 00D5
ENCODING 213
SWIDTH 714 0
DWIDTH 20 0
BBX 17 27 2 0
BITMAP
000800
078800
07F000
08E000
000000
008000
077000
0C1800
180C00
380E00
780E00
780F00
780F00
F80F80
F80F80
F80F80
F80F80
F80F80
F80F80
F80F80
780F00
780F00
780F00
380E00
180C00
0C1800
077000
ENDCHAR
STARTCHAR 00D6
ENCODING 214
SWIDTH 714 0
DWIDTH 20 0
BBX 17 27 2 0
BITMAP
0C3000
1E7800
1E7800
0C3000
000000
008000
077000
0C1800
180C00
380E00
780E00
780F00
780F00
F80F80
F80F80
F80F80
F80F80
F80F80
F80F80
F80F80
780F00
780F00
780F00
380E00
180C00
0C1800
077000
ENDCHAR
STARTCHAR 00D7
ENCODING 215
SWIDTH 928 0
DWIDTH 26 0
BBX 18 19 4 -2
BITMAP
400040
E000C0
700180
380300
1C0600
0E0C00
071800
03B000
01E000
00E000
01F000
033800
061C00
0C0C00
180600
300300
700180
E000C0
400000
ENDCHAR
STARTCHAR 00D8
ENCODING 216
SWIDTH 714 0
DWIDTH 20 0
BBX 17 22 2 0
BITMAP
008000
077180
0C1B00
180E00
380E00
380E00
781F00
781F00
F82F80
F86F80
F84F80
F88F80
F90F80
FB0F80
FA0F80
7C0F00
7C0F00
780E00
380E00
380C00
6C1800
C77000
ENDCHAR
STARTCHAR 00D9
ENCODING 217
SWIDTH 785 0
DWIDTH 22 0
BBX 19 27 2 1
BITMAP
070000
038000
018000
00C000
000000
000000
FF0FE0
3C0380
3C0100
3C0100
3C0100
3C0100
3C0100
3C0100
3C0100
3C0100
3C0100
3C0100
3C0100
3C0100
3C0100
3C0100
3C0100
1C0100
1C0200
0E0400
07F800
ENDCHAR
STARTCHAR 00DA
ENCODING 218
SWIDTH 785 0
DWIDTH 22 0
BBX 19 27 2 1
BITMAP
001C00
003800
003000
006000
000000
000000
FF0FE0
3C0380
3C0100
3C0100
3C0100
3C0100
3C0100
3C0100
3C0100
3C0100
3C0100
3C0100
3C0100
3C0100
3C0100
3C0100
3C0100
1C0100
1C0200
0E0400
07F800
ENDCHAR
STARTCHAR 00DB
ENCODING 219
SWIDTH 785 0
DWIDTH 22 0
BBX 19 27 2 0
BITMAP
00C000
00E000
01F000
061800
000400
000000
FF0FE0
3C0380
3C0100
3C0100
3C0100
3C0100
3C0100
3C0100
3C0100
3C0100
3C0100
3C0100
3C0100
3C0100
3C0100
3C0100
3C0100
1C0300
1C0200
0E0400
07F800
ENDCHAR
STARTCHAR 00DC
ENCODING 220
SWIDTH 785 0
DWIDTH 22 0
BBX 19 27 2 0
BITMAP
030C00
079E00
079E00
030C00
000000
000000
FF8FE0
3C0380
3C0100
3C0100
3C0100
3C0100
3C0100
3C0100
3C0100
3C0100
3C0100
3C0100
3C0100
3C0100
3C0100
3C0100
3C0100
1C0100
1C0200
0E0400
07F800
ENDCHAR
STARTCHAR 00DD
ENCODING 221
SWIDTH 750 0
DWIDTH 21 0
BBX 19 27 2 1
BITMAP
001C00
003C00
003000
006000
000000
000000
FF1FE0
3E0700
1E0600
1E0600
1F0400
0F0400
0F8800
078800
079000
07D000
03F000
03E000
01E000
01E000
01E000
01E000
01E000
01E000
01E000
01E000
07F800
ENDCHAR
STARTCHAR 00DE
ENCODING 222
SWIDTH 678 0
DWIDTH 19 0
BBX 17 21 1 0
BITMAP
FFC000
1E0000
1E0000
1E0000
1FF800
1E0E00
1E0F00
1E0780
1E0780
1E0780
1E0780
1E0780
1E0F00
1E0E00
1FF800
1E0000
1E0000
1E0000
1E0000
1E0000
FFC000
ENDCHAR
STARTCHAR 00DF
ENCODING 223
SWIDTH 571 0
DWIDTH 16 0
BBX 14 21 1 0
BITMAP
07C0
0C60
1C70
1C70
3C70
3C70
3C70
3C60
3D80
3C60
3C30
3C38
3C38
3C38
3C3C
3C3C
3C38
3FB8
3FB8
3F30
FDE0
ENDCHAR
STARTCHAR 00E0
ENCODING 224
SWIDTH 500 0
DWIDTH 14 0
BBX 12 21 1 0
BITMAP
6000
7000
3800
1800
0C00
0400
0000
1E00
6380
63C0
F3C0
73C0
07C0
1BC0
73C0
73C0
F3C0
F3D0
F3D0
F3D0
7DE0
ENDCHAR
STARTCHAR 00E1
ENCODING 225
SWIDTH 500 0
DWIDTH 14 0
BBX 12 21 1 0
BITMAP
0180
0380
0300
0600
0C00
0800
0000
1E00
6380
63C0
F3C0
73C0
23C0
0FC0
33C0
73C0
F3C0
F3D0
F3D0
F3D0
7DE0
ENDCHAR
STARTCHAR 00E2
ENCODING 226
SWIDTH 500 0
DWIDTH 14 0
BBX 12 21 1 0
BITMAP
0C00
0C00
1E00
1300
2180
4080
0000
1E00
6380
63C0
F3C0
73C0
23C0
0FC0
33C0
73C0
F3C0
F3D0
F3D0
F3D0
7DE0
ENDCHAR
STARTCHAR 00E3
ENCODING 227
SWIDTH 500 0
DWIDTH 14 0
BBX 12 20 1 0
BITMAP
3880
7F80
4700
0000
0000
0000
1E00
6380
63C0
F3C0
73C0
03C0
1FC0
33C0
73C0
F3C0
F3D0
F3D0
F5D0
79E0
ENDCHAR
STARTCHAR 00E4
ENCODING 228
SWIDTH 500 0
DWIDTH 14 0
BBX 12 20 1 0
BITMAP
6180
F3C0
F3C0
6180
0000
0000
1E00
6380
63C0
F3C0
73C0
23C0
0FC0
33C0
73C0
F3C0
F3D0
F3D0
F3D0
7DE0
ENDCHAR
STARTCHAR 00E5
ENCODING 229
SWIDTH 500 0
DWIDTH 14 0
BBX 12 21 1 1
BITMAP
1E00
2100
2100
2100
3200
0C00
0000
1F00
6380
61C0
F1C0
71C0
21C0
0FC0
31C0
61C0
E1C0
E1D0
E1D0
E3D0
7CE0
ENDCHAR
STARTCHAR 00E6
ENCODING 230
SWIDTH 678 0
DWIDTH 19 0
BBX 17 14 1 0
BITMAP
3E3C00
63E600
63C700
F3C780
73C780
07C780
1BFF80
73C000
73C000
F3C080
F3C080
F3E100
F2E100
7C3E00
ENDCHAR
STARTCHAR 00E7
ENCODING 231
SWIDTH 464 0
DWIDTH 13 0
BBX 10 21 1 -7
BITMAP
0F00
3880
70C0
71C0
F3C0
F380
F000
F000
F000
F000
7040
7040
3880
1F00
0400
0800
0600
0300
0300
0300
1E00
ENDCHAR
STARTCHAR 00E8
ENCODING 232
SWIDTH 464 0
DWIDTH 13 0
BBX 11 21 1 0
BITMAP
3000
3000
3800
1800
0C00
0000
0000
0F00
3380
71C0
71C0
F1C0
F1E0
FFE0
F000
F000
F020
7040
7040
3880
0F00
ENDCHAR
STARTCHAR 00E9
ENCODING 233
SWIDTH 464 0
DWIDTH 13 0
BBX 11 21 1 0
BITMAP
0180
0380
0380
0600
0400
0800
0000
0F00
3380
71C0
71C0
F1C0
F1E0
FFE0
F000
F000
F020
7040
7040
3880
0F00
ENDCHAR
STARTCHAR 00EA
ENCODING 234
SWIDTH 464 0
DWIDTH 13 0
BBX 11 21 1 0
BITMAP
0C00
0E00
1E00
1B00
3180
4000
0000
0F00
3380
71C0
71C0
F1C0
F1E0
FFE0
F000
F000
F020
7040
7040
3880
0F00
ENDCHAR
STARTCHAR 00EB
ENCODING 235
SWIDTH 464 0
DWIDTH 13 0
BBX 11 20 1 0
BITMAP
3180
7BC0
7BC0
3180
0000
0000
0F00
3380
71C0
71C0
F1C0
F1E0
FFE0
F000
F000
F020
7040
7040
3880
0F00
ENDCHAR
STARTCHAR 00EC
ENCODING 236
SWIDTH 321 0
DWIDTH 9 0
BBX 7 21 1 0
BITMAP
C0
E0
70
30
18
08
00
7C
3C
3C
3C
3C
3C
3C
3C
3C
3C
3C
3C
3C
7E
ENDCHAR
STARTCHAR 00ED
ENCODING 237
SWIDTH 321 0
DWIDTH 9 0
BBX 6 21 2 0
BITMAP
0C
0C
1C
38
20
00
00
F8
78
78
78
78
78
78
78
78
78
78
78
78
FC
ENDCHAR
STARTCHAR 00EE
ENCODING 238
SWIDTH 285 0
DWIDTH 8 0
BBX 8 21 1 0
BITMAP
38
38
7C
6E
83
00
00
FC
3C
3C
3C
3C
3C
3C
3C
3C
3C
3C
3C
3C
FE
ENDCHAR
STARTCHAR 00EF
ENCODING 239
SWIDTH 321 0
DWIDTH 9 0
BBX 8 20 1 0
BITMAP
66
FF
FF
66
00
00
7C
3C
3C
3C
3C
3C
3C
3C
3C
3C
3C
3C
3C
7E
ENDCHAR
STARTCHAR 00F0
ENCODING 240
SWIDTH 500 0
DWIDTH 14 0
BBX 12 21 1 0
BITMAP
3C40
1F80
0F00
0F00
3780
0380
03C0
1FC0
31E0
71E0
70E0
F0E0
F0F0
F0F0
F0F0
F0E0
F0E0
70E0
71C0
31C0
0F00
ENDCHAR
STARTCHAR 00F1
ENCODING 241
SWIDTH 571 0
DWIDTH 16 0
BBX 13 19 2 1
BITMAP
1E40
3FC0
2380
0000
0000
FBC0
7CE0
78E0
78F0
78F0
78F0
78F0
78F0
78F0
78F0
78F0
78F0
78F0
FDF8
ENDCHAR
STARTCHAR 00F2
ENCODING 242
SWIDTH 500 0
DWIDTH 14 0
BBX 12 21 1 0
BITMAP
3000
3800
3800
0C00
0600
0200
0000
0F00
3180
70C0
70E0
F0E0
F0E0
F0F0
F0F0
F0E0
F0E0
70E0
70C0
3180
0F00
ENDCHAR
STARTCHAR 00F3
ENCODING 243
SWIDTH 500 0
DWIDTH 14 0
BBX 12 21 1 0
BITMAP
0180
01C0
0380
0300
0600
0400
0000
0F00
3180
70C0
70E0
F0E0
F0E0
F0F0
F0F0
F0E0
F0E0
70E0
70C0
3180
0F00
ENDCHAR
STARTCHAR 00F4
ENCODING 244
SWIDTH 500 0
DWIDTH 14 0
BBX 12 21 1 0
BITMAP
0600
0E00
0F00
1B00
3080
2040
0000
0F00
3180
70C0
70E0
F0E0
F0E0
F0F0
F0F0
F0E0
F0E0
70E0
70C0
3180
0F00
ENDCHAR
STARTCHAR 00F5
ENCODING 245
SWIDTH 500 0
DWIDTH 14 0
BBX 12 20 1 0
BITMAP
1C40
3FC0
4780
0000
0000
0000
0F00
3180
70C0
70E0
F0E0
F0E0
F0F0
F0F0
F0E0
F0E0
70E0
70C0
3180
0F00
ENDCHAR
STARTCHAR 00F6
ENCODING 246
SWIDTH 500 0
DWIDTH 14 0
BBX 12 20 1 0
BITMAP
3180
7BC0
7BC0
3180
0000
0000
0F00
3180
70C0
70E0
F0E0
F0E0
F0F0
F0F0
F0E0
F0E0
70E0
70C0
3180
0F00
ENDCHAR
STARTCHAR 00F7
ENCODING 247
SWIDTH 928 0
DWIDTH 26 0
BBX 24 19 1 -2
BITMAP
001800
003C00
003C00
001800
000000
000000
000000
000000
FFFFFF
FFFFFF
000000
000000
000000
000000
001800
003C00
003C00
003C00
001800
ENDCHAR
STARTCHAR 00F8
ENCODING 248
SWIDTH 500 0
DWIDTH 14 0
BBX 12 14 1 0
BITMAP
0F10
31A0
71C0
70E0
F1E0
F3E0
F2F0
F4F0
F8E0
F0E0
70E0
70C0
7980
8F00
ENDCHAR
STARTCHAR 00F9
ENCODING 249
SWIDTH 535 0
DWIDTH 15 0
BBX 14 21 0 0
BITMAP
1800
1C00
0C00
0600
0300
0000
0000
FDF8
3C78
3C78
3C78
3C78
3C78
3C78
3C78
3C78
3C78
3CF8
3CF8
1D78
0E7C
ENDCHAR
STARTCHAR 00FA
ENCODING 250
SWIDTH 535 0
DWIDTH 15 0
BBX 14 21 0 0
BITMAP
00C0
00C0
01C0
0180
0300
0000
0000
FDF8
3C78
3C78
3C78
3C78
3C78
3C78
3C78
3C78
3C78
3C78
3CF8
1D78
0E7C
ENDCHAR
STARTCHAR 00FB
ENCODING 251
SWIDTH 535 0
DWIDTH 15 0
BBX 14 21 0 0
BITMAP
0300
0700
0780
0C80
1840
0000
0000
FDF8
3C78
3C78
3C78
3C78
3C78
3C78
3C78
3C78
3C78
3C78
3CF8
1D78
0E7C
ENDCHAR
STARTCHAR 00FC
ENCODING 252
SWIDTH 535 0
DWIDTH 15 0
BBX 14 20 0 0
BITMAP
18C0
3DE0
3DE0
18C0
0000
0000
FDF8
3C78
3C78
3C78
3C78
3C78
3C78
3C78
3C78
3C78
3C78
3CF8
1D78
0E7C
ENDCHAR
STARTCHAR 00FD
ENCODING 253
SWIDTH 535 0
DWIDTH 15 0
BBX 13 28 1 -7
BITMAP
00C0
00C0
01C0
0380
0200
0000
0000
FCF8
7820
3820
3C40
1C40
1C40
1E40
0E80
0F80
0780
0700
0700
0300
0300
0200
0200
3200
7C00
7400
7400
3800
ENDCHAR
STARTCHAR 00FE
ENCODING 254
SWIDTH 535 0
DWIDTH 15 0
BBX 13 26 1 -6
BITMAP
1C00
7C00
BC00
3C00
3C00
3C00
3CF0
3F78
3C78
3C78
3C78
3C78
3C70
3C70
3C60
3CC0
3C80
3D00
3E00
3C00
3C00
3C00
3C00
3C00
3000
C000
ENDCHAR
STARTCHAR 00FF
ENCODING 255
SWIDTH 535 0
DWIDTH 15 0
BBX 13 27 1 -7
BITMAP
1860
3CF0
3CF0
1860
0000
0000
FE78
7830
3820
3C20
1C20
1E40
1E40
0E40
0F80
0780
0780
0700
0300
0300
0100
0200
3200
7A00
7400
7400
3800
ENDCHAR
STARTCHAR 0100
ENCODING 256
SWIDTH 750 0
DWIDTH 21 0
BBX 19 25 1 0
BITMAP
03FC00
03FC00
000000
000000
006000
006000
006000
00F000
00F000
00F000
01F800
017800
017800
027C00
023C00
023C00
043E00
041E00
07FE00
081F00
080F00
080F00
180F80
180F80
FE3FE0
ENDCHAR
STARTCHAR 0101
ENCODING 257
SWIDTH 500 0
DWIDTH 14 0
BBX 12 19 1 0
BITMAP
3F80
3F80
0000
0000
0000
1E00
6380
63C0
F3C0
73C0
23C0
0FC0
33C0
73C0
F3C0
F3D0
F3D0
F3D0
7DE0
ENDCHAR
STARTCHAR 0102
ENCODING 258
SWIDTH 785 0
DWIDTH 22 0
BBX 19 27 2 0
BITMAP
040400
040400
060800
03F800
01F000
000000
004000
00E000
00E000
00E000
01F000
01F000
01F000
02F800
027800
027800
047C00
043C00
043C00
083E00
0FFE00
081E00
101F00
100F00
100F00
300F80
FE7FE0
ENDCHAR
STARTCHAR 0103
ENCODING 259
SWIDTH 500 0
DWIDTH 14 0
BBX 12 21 1 0
BITMAP
4080
6080
2100
3F00
1E00
0000
0000
1E00
6380
63C0
F3C0
73C0
07C0
1BC0
73C0
73C0
F3C0
F3D0
F3D0
F5D0
79E0
ENDCHAR
STARTCHAR 0104
ENCODING 260
SWIDTH 750 0
DWIDTH 21 0
BBX 19 28 2 -7
BITMAP
004000
00C000
00E000
00E000
01E000
01F000
01F000
03F000
02F800
027800
067800
047C00
043C00
0C3C00
083E00
0FFE00
181E00
101E00
101F00
300F00
FE7FE0
000600
000C00
001800
001800
001800
001F00
000E00
ENDCHAR
STARTCHAR 0105
ENCODING 261
SWIDTH 500 0
DWIDTH 14 0
BBX 12 21 1 -7
BITMAP
1E00
6380
63C0
F3C0
73C0
63C0
0FC0
33C0
73C0
F3C0
F3D0
F3D0
F3D0
7DE0
00C0
0180
0100
0300
0320
03C0
01C0
ENDCHAR
STARTCHAR 0106
ENCODING 262
SWIDTH 642 0
DWIDTH 18 0
BBX 15 27 2 1
BITMAP
0070
0070
00C0
0080
0100
0000
0FE6
1C1E
381E
380E
780E
7806
F806
F806
F802
F800
F800
F800
F800
F802
F802
7802
7804
3804
3C0C
1C18
0FF0
ENDCHAR
STARTCHAR 0107
ENCODING 263
SWIDTH 464 0
DWIDTH 13 0
BBX 10 21 1 0
BITMAP
0180
0180
0380
0700
0600
0000
0000
0F00
3880
70C0
71C0
F3C0
F180
F000
F000
F000
F040
7040
7040
3880
0F00
ENDCHAR
STARTCHAR 0108
ENCODING 264
SWIDTH 642 0
DWIDTH 18 0
BBX 15 27 2 0
BITMAP
0180
0380
07C0
0C30
0000
0000
0FE6
1C1E
381E
380E
780E
7806
F806
F806
F802
F800
F800
F800
F800
F802
F802
7802
7804
3804
3C0C
1C08
0FF0
ENDCHAR
STARTCHAR 0109
ENCODING 265
SWIDTH 464 0
DWIDTH 13 0
BBX 10 21 1 0
BITMAP
0E00
0E00
0F00
1B00
3180
0040
0000
0F00
3880
70C0
71C0
F3C0
F380
F000
F000
F000
F000
7040
7040
3880
0F00
ENDCHAR
STARTCHAR 010A
ENCODING 266
SWIDTH 642 0
DWIDTH 18 0
BBX 15 27 2 0
BITMAP
0180
03C0
03C0
0180
0000
0000
0FE6
1C1E
381E
380E
780E
7806
F806
F806
F802
F800
F800
F800
F800
F802
F802
7802
7804
3804
3C0C
1C08
0FF0
ENDCHAR
STARTCHAR 010B
ENCODING 267
SWIDTH 464 0
DWIDTH 13 0
BBX 10 20 1 0
BITMAP
0600
0F00
0F00
0600
0000
0000
0F00
3880
78C0
71C0
F3C0
F380
F000
F000
F000
F000
7040
7040
3880
0F00
ENDCHAR
STARTCHAR 010C
ENCODING 268
SWIDTH 642 0
DWIDTH 18 0
BBX 15 26 2 1
BITMAP
0C30
0660
03C0
0180
0000
0FE6
1C1E
381E
380E
780E
7806
F806
F806
F802
F800
F800
F800
F800
F802
F802
7802
7804
3804
3C0C
1C08
0FF0
ENDCHAR
STARTCHAR 010D
ENCODING 269
SWIDTH 464 0
DWIDTH 13 0
BBX 10 20 1 0
BITMAP
2080
1180
1F00
0E00
0400
0000
0F00
3880
70C0
71C0
F3C0
F380
F000
F000
F000
F000
7040
7040
3880
0F00
ENDCHAR
STARTCHAR 010E
ENCODING 270
SWIDTH 750 0
DWIDTH 21 0
BBX 19 26 1 1
BITMAP
0C3000
066000
03C000
018000
000000
FFF800
1E0E00
1E0700
1E0380
1E03C0
1E03C0
1E03C0
1E03E0
1E03E0
1E03E0
1E03E0
1E03E0
1E03E0
1E03E0
1E03C0
1E03C0
1E03C0
1E0380
1E0700
1E0E00
FFF800
ENDCHAR
STARTCHAR 010F
ENCODING 271
SWIDTH 607 0
DWIDTH 17 0
BBX 16 21 1 1
BITMAP
03EF
01EF
01E3
01E1
01E2
01E6
01E8
1DE0
33E0
71E0
71E0
F1E0
F1E0
F1E0
F1E0
F1E0
F1E0
71E0
71E0
33E0
1DF8
ENDCHAR
STARTCHAR 0110
ENCODING 272
SWIDTH 785 0
DWIDTH 22 0
BBX 19 21 2 0
BITMAP
FFF800
1E0E00
1E0700
1E0380
1E03C0
1E03C0
1E03C0
1E03E0
1E03E0
1E03E0
FF83E0
1E03E0
1E03E0
1E03E0
1E03C0
1E03C0
1E0380
1E0380
1E0700
1E0E00
FFF800
ENDCHAR
STARTCHAR 0111
ENCODING 273
SWIDTH 535 0
DWIDTH 15 0
BBX 13 21 1 0
BITMAP
03E0
01E0
01E0
01E0
1FF8
01E0
01E0
1DE0
33E0
71E0
71E0
F1E0
F1E0
F1E0
F1E0
F1E0
F1E0
71E0
71E0
33E0
1DF8
ENDCHAR
STARTCHAR 0112
ENCODING 274
SWIDTH 678 0
DWIDTH 19 0
BBX 16 25 1 0
BITMAP
07F8
07F8
0000
0000
FFFF
1E07
1E07
1E03
1E01
1E01
1E11
1E10
1E30
1E30
1FF0
1E30
1E30
1E11
1E11
1E01
1E01
1E03
1E07
1E0F
FFFF
ENDCHAR
STARTCHAR 0113
ENCODING 275
SWIDTH 464 0
DWIDTH 13 0
BBX 11 19 1 0
BITMAP
3F80
3F80
0000
0000
0000
0F00
3380
71C0
71C0
F1C0
F1E0
FFE0
F000
F000
F020
7040
7040
3880
0F00
ENDCHAR
STARTCHAR 0114
ENCODING 276
SWIDTH 678 0
DWIDTH 19 0
BBX 16 27 1 0
BITMAP
040C
040C
0618
03F8
01F0
0000
FFFF
1E07
1E03
1E03
1E01
1E01
1E11
1E10
1E30
1E30
1FF0
1E30
1E30
1E11
1E11
1E01
1E01
1E03
1E03
1E0F
FFFF
ENDCHAR
STARTCHAR 0115
ENCODING 277
SWIDTH 464 0
DWIDTH 13 0
BBX 11 21 1 0
BITMAP
4080
2080
2180
3F00
0E00
0000
0000
0F00
3380
71C0
71C0
F1C0
F1E0
FFE0
F000
F000
F020
7040
7040
3880
0F00
ENDCHAR
STARTCHAR 0116
ENCODING 278
SWIDTH 678 0
DWIDTH 19 0
BBX 16 27 1 0
BITMAP
00C0
01E0
01E0
00C0
0000
0000
FFFF
1E0F
1E07
1E03
1E03
1E01
1E11
1E10
1E30
1E30
1FF0
1E30
1E30
1E11
1E11
1E01
1E01
1E03
1E07
1E0F
FFFF
ENDCHAR
STARTCHAR 0117
ENCODING 279
SWIDTH 464 0
DWIDTH 13 0
BBX 11 20 1 0
BITMAP
0C00
1E00
1E00
0C00
0000
0000
0F00
3380
71C0
71C0
F1C0
F1E0
FFE0
F000
F000
F020
7040
7040
3880
0F00
ENDCHAR
STARTCHAR 0118
ENCODING 280
SWIDTH 678 0
DWIDTH 19 0
BBX 16 28 1 -7
BITMAP
FFFF
1E0F
1E07
1E03
1E03
1E01
1E11
1E10
1E30
1E30
1FF0
1E30
1E30
1E11
1E11
1E01
1E01
1E03
1E03
1E07
FFFF
0010
0030
0060
0060
0060
007C
0038
ENDCHAR
STARTCHAR 0119
ENCODING 281
SWIDTH 500 0
DWIDTH 14 0
BBX 12 21 1 -7
BITMAP
0F00
31C0
70C0
70E0
F0E0
F0E0
F0F0
FFF0
F000
F000
7020
7020
3860
0FC0
0300
0600
0C00
0C00
0C40
0F80
0700
ENDCHAR
STARTCHAR 011A
ENCODING 282
SWIDTH 678 0
DWIDTH 19 0
BBX 16 26 1 1
BITMAP
0418
0370
03E0
01C0
0000
FFFF
1E0F
1E07
1E03
1E03
1E01
1E11
1E10
1E30
1E30
1FF0
1E30
1E30
1E11
1E11
1E01
1E01
1E03
1E07
1E0F
FFFF
ENDCHAR
STARTCHAR 011B
ENCODING 283
SWIDTH 464 0
DWIDTH 13 0
BBX 11 20 1 0
BITMAP
2080
3100
1F00
0E00
0400
0000
0F00
3380
71C0
71C0
F1C0
F1E0
FFE0
F000
F000
F020
7040
7040
3880
0F00
ENDCHAR
STARTCHAR 011C
ENCODING 284
SWIDTH 714 0
DWIDTH 20 0
BBX 17 27 2 0
BITMAP
008000
01C000
036000
063000
080800
008000
077200
1C1E00
180E00
380600
780600
780600
780200
F80200
F80000
F80000
F80000
F8FF80
F81E00
F81E00
F81E00
781E00
781E00
381E00
381600
1C2200
0EC200
ENDCHAR
STARTCHAR 011D
ENCODING 285
SWIDTH 571 0
DWIDTH 16 0
BBX 14 28 1 -7
BITMAP
0600
0600
0F00
1980
30C0
2040
0000
0F18
39EC
79FC
79F8
79E0
79E0
39C0
39C0
0F00
7000
C000
FF00
FFE0
7FF0
3FF8
4038
8018
8010
8030
6060
1F80
ENDCHAR
STARTCHAR 011E
ENCODING 286
SWIDTH 714 0
DWIDTH 20 0
BBX 17 27 2 0
BITMAP
080800
080800
0C1000
07F000
03E000
008000
077200
1C1E00
180E00
380600
780600
780200
780200
F80200
F80000
F80000
F80000
F8FF80
F81E00
F81E00
F81E00
781E00
781E00
381E00
381600
1C3200
0EE200
ENDCHAR
STARTCHAR 011F
ENCODING 287
SWIDTH 571 0
DWIDTH 16 0
BBX 14 27 1 -7
BITMAP
2040
2040
10C0
1F80
0F00
0000
0F18
39EC
79FC
79F8
79E0
79E0
39C0
39C0
0F00
7000
C000
FF00
FFE0
7FF0
3FF8
4038
8018
8010
8030
6060
1F80
ENDCHAR
STARTCHAR 0120
ENCODING 288
SWIDTH 714 0
DWIDTH 20 0
BBX 17 27 2 0
BITMAP
018000
03C000
03C000
018000
000000
008000
077200
1C1E00
180E00
380600
780600
780600
780200
F80200
F80000
F80000
F80000
F8FF80
F81E00
F81E00
F81E00
781E00
781E00
381E00
381600
1C2200
0EC200
ENDCHAR
STARTCHAR 0121
ENCODING 289
SWIDTH 571 0
DWIDTH 16 0
BBX 14 27 1 -7
BITMAP
0600
0F00
0F00
0600
0000
0000
0F18
39EC
79FC
79F8
79E0
79E0
39C0
39C0
0F00
7000
C000
FF00
FFE0
7FF0
3FF8
4038
8018
8010
8030
6060
1F80
ENDCHAR
STARTCHAR 0122
ENCODING 290
SWIDTH 714 0
DWIDTH 20 0
BBX 17 29 2 -7
BITMAP
008000
077200
1C1E00
180E00
380600
780600
780600
780200
F80200
F80000
F80000
F80000
F8FF80
F81E00
F81E00
F81E00
781E00
781E00
381E00
381600
1C2200
0E4200
018000
018000
03C000
01C000
00C000
008000
030000
ENDCHAR
STARTCHAR 0123
ENCODING 291
SWIDTH 571 0
DWIDTH 16 0
BBX 14 29 1 -7
BITMAP
0200
0C00
0800
1800
1E00
1F00
0E00
0000
0F18
39EC
79FC
79F8
79E0
79E0
79C0
39C0
1F00
6000
C000
FF00
FFE0
7FF0
3FF8
4038
8018
8010
8030
6060
1F80
ENDCHAR
STARTCHAR 0124
ENCODING 292
SWIDTH 785 0
DWIDTH 22 0
BBX 20 27 1 0
BITMAP
006000
007000
00F800
030C00
000200
000000
FFDFF0
1E03C0
1E03C0
1E03C0
1E03C0
1E03C0
1E03C0
1E03C0
1E03C0
1E03C0
1FFFC0
1E03C0
1E03C0
1E03C0
1E03C0
1E03C0
1E03C0
1E03C0
1E03C0
1E03C0
FFDFF0
ENDCHAR
STARTCHAR 0125
ENCODING 293
SWIDTH 571 0
DWIDTH 16 0
BBX 14 27 1 0
BITMAP
0300
0300
0780
0C80
1840
0000
FC00
3C00
3C00
3C00
3C00
3C00
3C00
3DE0
3E70
3C70
3C78
3C78
3C78
3C78
3C78
3C78
3C78
3C78
3C78
3C78
FEFC
ENDCHAR
STARTCHAR 0126
ENCODING 294
SWIDTH 821 0
DWIDTH 23 0
BBX 21 21 1 0
BITMAP
FFDFF8
1E03C0
1E03C0
1E03C0
1E03C0
FFFFF8
1E03C0
1E03C0
1E03C0
1E03C0
1FFFC0
1E03C0
1E03C0
1E03C0
1E03C0
1E03C0
1E03C0
1E03C0
1E03C0
1E03C0
FFDFF8
ENDCHAR
STARTCHAR 0127
ENCODING 295
SWIDTH 571 0
DWIDTH 16 0
BBX 14 21 1 0
BITMAP
FC00
3C00
3C00
3C00
FFC0
3C00
3C00
3DE0
3E70
3C70
3C78
3C78
3C78
3C78
3C78
3C78
3C78
3C78
3C78
3C78
FEFC
ENDCHAR
STARTCHAR 0128
ENCODING 296
SWIDTH 428 0
DWIDTH 12 0
BBX 10 27 1 0
BITMAP
0080
3880
7F80
4700
0000
0000
FFC0
1E00
1E00
1E00
1E00
1E00
1E00
1E00
1E00
1E00
1E00
1E00
1E00
1E00
1E00
1E00
1E00
1E00
1E00
1E00
FFC0
ENDCHAR
STARTCHAR 0129
ENCODING 297
SWIDTH 321 0
DWIDTH 9 0
BBX 8 20 1 0
BITMAP
01
72
FE
0C
00
00
7C
3C
3C
3C
3C
3C
3C
3C
3C
3C
3C
3C
3C
7E
ENDCHAR
STARTCHAR 012A
ENCODING 298
SWIDTH 464 0
DWIDTH 13 0
BBX 10 25 2 0
BITMAP
7F80
7F80
0000
0000
FFC0
1E00
1E00
1E00
1E00
1E00
1E00
1E00
1E00
1E00
1E00
1E00
1E00
1E00
1E00
1E00
1E00
1E00
1E00
1E00
FFC0
ENDCHAR
STARTCHAR 012B
ENCODING 299
SWIDTH 321 0
DWIDTH 9 0
BBX 7 19 1 0
BITMAP
FE
FE
00
00
00
7C
3C
3C
3C
3C
3C
3C
3C
3C
3C
3C
3C
3C
7E
ENDCHAR
STARTCHAR 012C
ENCODING 300
SWIDTH 464 0
DWIDTH 13 0
BBX 9 27 2 0
BITMAP
8080
8180
4100
7F00
3E00
0000
FF80
3C00
3C00
3C00
3C00
3C00
3C00
3C00
3C00
3C00
3C00
3C00
3C00
3C00
3C00
3C00
3C00
3C00
3C00
3C00
FF80
ENDCHAR
STARTCHAR 012D
ENCODING 301
SWIDTH 321 0
DWIDTH 9 0
BBX 8 20 1 0
BITMAP
81
82
FE
3C
00
00
FC
3C
3C
3C
3C
3C
3C
3C
3C
3C
3C
3C
3C
FE
ENDCHAR
STARTCHAR 012E
ENCODING 302
SWIDTH 428 0
DWIDTH 12 0
BBX 10 28 1 -7
BITMAP
FFC0
1E00
1E00
1E00
1E00
1E00
1E00
1E00
1E00
1E00
1E00
1E00
1E00
1E00
1E00
1E00
1E00
1E00
1E00
1E00
FFC0
0180
0300
0600
0600
0600
07C0
0380
ENDCHAR
STARTCHAR 012F
ENCODING 303
SWIDTH 285 0
DWIDTH 8 0
BBX 6 28 1 -7
BITMAP
30
78
78
30
00
00
00
F8
78
78
78
78
78
78
78
78
78
78
78
78
FC
08
10
20
60
64
7C
38
ENDCHAR
STARTCHAR 0130
ENCODING 304
SWIDTH 392 0
DWIDTH 11 0
BBX 9 27 1 0
BITMAP
0C00
1E00
1E00
0C00
0000
0000
FF80
1E00
1E00
1E00
1E00
1E00
1E00
1E00
1E00
1E00
1E00
1E00
1E00
1E00
1E00
1E00
1E00
1E00
1E00
1E00
FF80
ENDCHAR
STARTCHAR 0131
ENCODING 305
SWIDTH 321 0
DWIDTH 9 0
BBX 6 14 2 0
BITMAP
F8
78
78
78
78
78
78
78
78
78
78
78
78
FC
ENDCHAR
STARTCHAR 0132
ENCODING 306
SWIDTH 928 0
DWIDTH 26 0
BBX 24 21 1 0
BITMAP
FF83FF
1E003C
1E003C
1E003C
1E003C
1E003C
1E003C
1E003C
1E003C
1E003C
1E003C
1E003C
1E003C
1E1C3C
1E3E3C
1E3E3C
1E3E3C
1E383C
1E3038
1E1030
FF8FE0
ENDCHAR
STARTCHAR 0133
ENCODING 307
SWIDTH 607 0
DWIDTH 17 0
BBX 14 28 1 -7
BITMAP
3018
783C
783C
3018
0000
0000
0000
F87C
783C
783C
783C
783C
783C
783C
783C
783C
783C
783C
783C
783C
FE3C
003C
013C
03FC
03BC
03B8
0338
00E0
ENDCHAR
STARTCHAR 0134
ENCODING 308
SWIDTH 535 0
DWIDTH 15 0
BBX 13 27 1 0
BITMAP
0080
01C0
03E0
0630
0008
0000
0FF8
01E0
01E0
01E0
01E0
01E0
01E0
01E0
01E0
01E0
01E0
01E0
01E0
71E0
F9E0
F9E0
F9C0
E1C0
C1C0
4180
3700
ENDCHAR
STARTCHAR 0135
ENCODING 309
SWIDTH 321 0
DWIDTH 9 0
BBX 10 28 -1 -7
BITMAP
0600
0E00
0F00
1980
30C0
0000
0000
1F00
0F00
0F00
0F00
0F00
0F00
0F00
0F00
0F00
0F00
0F00
0F00
0F00
0F00
0F00
4F00
FF00
EF00
EE00
CE00
3800
ENDCHAR
STARTCHAR 0136
ENCODING 310
SWIDTH 750 0
DWIDTH 21 0
BBX 19 28 1 -7
BITMAP
FFDFC0
1E0700
1E0600
1E0C00
1E0800
1E1000
1E3000
1E7000
1EF000
1FF800
1FF800
1E7C00
1E7C00
1E3C00
1E3E00
1E1E00
1E1F00
1E0F00
1E0F80
1E0F80
FFDFE0
000000
006000
00F000
007000
003000
002000
00C000
ENDCHAR
STARTCHAR 0137
ENCODING 311
SWIDTH 571 0
DWIDTH 16 0
BBX 14 28 1 -7
BITMAP
FC00
3C00
3C00
3C00
3C00
3C00
3C00
3CF8
3C60
3C40
3C80
3C80
3D80
3F80
3DC0
3DE0
3CE0
3CF0
3C70
3C78
FEFC
0000
0300
0380
0380
0180
0100
0200
ENDCHAR
STARTCHAR 0138
ENCODING 312
SWIDTH 571 0
DWIDTH 16 0
BBX 14 14 1 0
BITMAP
FCF8
3C60
3C40
3C80
3C80
3D80
3F80
3FC0
3DE0
3CE0
3CF0
3C70
3C78
FEFC
ENDCHAR
STARTCHAR 0139
ENCODING 313
SWIDTH 678 0
DWIDTH 19 0
BBX 17 27 1 1
BITMAP
038000
038000
060000
0C0000
080000
000000
FFC000
1E0000
1E0000
1E0000
1E0000
1E0000
1E0000
1E0000
1E0000
1E0000
1E0000
1E0000
1E0100
1E0180
1E0180
1E0180
1E0380
1E0380
1E0780
1E0F80
FFFF80
ENDCHAR
STARTCHAR 013A
ENCODING 314
SWIDTH 321 0
DWIDTH 9 0
BBX 7 27 1 1
BITMAP
06
0E
0C
18
00
00
FC
3C
3C
3C
3C
3C
3C
3C
3C
3C
3C
3C
3C
3C
3C
3C
3C
3C
3C
3C
FE
ENDCHAR
STARTCHAR 013B
ENCODING 315
SWIDTH 678 0
DWIDTH 19 0
BBX 17 28 1 -7
BITMAP
FFC000
1E0000
1E0000
1E0000
1E0000
1E0000
1E0000
1E0000
1E0000
1E0000
1E0000
1E0000
1E0100
1E0180
1E0180
1E0180
1E0380
1E0380
1E0780
1E0F80
FFFF80
000000
01C000
01C000
01E000
004000
004000
018000
ENDCHAR
STARTCHAR 013C
ENCODING 316
SWIDTH 285 0
DWIDTH 8 0
BBX 8 28 0 -7
BITMAP
FC
3C
3C
3C
3C
3C
3C
3C
3C
3C
3C
3C
3C
3C
3C
3C
3C
3C
3C
3C
FF
00
38
38
3C
08
08
30
ENDCHAR
STARTCHAR 013D
ENCODING 317
SWIDTH 678 0
DWIDTH 19 0
BBX 18 21 1 1
BITMAP
FF8780
1E07C0
1E01C0
1E00C0
1E0080
1E0100
1E0200
1E0000
1E0000
1E0000
1E0000
1E0000
1E0100
1E0100
1E0100
1E0300
1E0300
1E0700
1E0700
1E0F00
FFFF00
ENDCHAR
STARTCHAR 013E
ENCODING 318
SWIDTH 392 0
DWIDTH 11 0
BBX 10 21 1 1
BITMAP
FDC0
3DC0
3C40
3C40
3C80
3D00
3C00
3C00
3C00
3C00
3C00
3C00
3C00
3C00
3C00
3C00
3C00
3C00
3C00
3C00
FF00
ENDCHAR
STARTCHAR 013F
ENCODING 319
SWIDTH 642 0
DWIDTH 18 0
BBX 16 21 1 0
BITMAP
FF80
1E00
1E00
1E00
1E00
1E00
1E06
1E0F
1E0F
1E06
1E00
1E00
1E01
1E01
1E01
1E03
1E03
1E07
1E07
1E0F
FFFF
ENDCHAR
STARTCHAR 0140
ENCODING 320
SWIDTH 392 0
DWIDTH 11 0
BBX 11 21 1 0
BITMAP
FC00
3C00
3C00
3C00
3C00
3C00
3C00
3C00
3CC0
3DE0
3DE0
3CC0
3C00
3C00
3C00
3C00
3C00
3C00
3C00
3C00
FF00
ENDCHAR
STARTCHAR 0141
ENCODING 321
SWIDTH 678 0
DWIDTH 19 0
BBX 17 21 1 0
BITMAP
FF8000
1E0000
1E0000
1E0000
1E0000
1E0000
1E0000
1E6000
1F8000
1E0000
1E0000
7E0000
5E0100
1E0180
1E0180
1E0180
1E0380
1E0380
1E0780
1E0F80
FFFF80
ENDCHAR
STARTCHAR 0142
ENCODING 322
SWIDTH 321 0
DWIDTH 9 0
BBX 8 21 1 0
BITMAP
FC
3C
3C
3C
3C
3C
3C
3C
3F
3C
3C
FC
3C
3C
3C
3C
3C
3C
3C
3C
FF
ENDCHAR
STARTCHAR 0143
ENCODING 323
SWIDTH 785 0
DWIDTH 22 0
BBX 21 27 1 1
BITMAP
000600
000E00
001C00
003000
002000
000000
FE0FF8
1F01C0
1F0080
0F8080
0FC080
0FC080
0BE080
0BF080
09F880
08F880
08FC80
087E80
083E80
081F80
081F80
080F80
080780
080780
080380
1C0180
FF8180
ENDCHAR
STARTCHAR 0144
ENCODING 324
SWIDTH 571 0
DWIDTH 16 0
BBX 13 21 2 0
BITMAP
00C0
01C0
0180
0300
0200
0400
0000
FBC0
7CE0
78E0
78F0
78F0
78F0
78F0
78F0
78F0
78F0
78F0
78F0
78F0
FDF8
ENDCHAR
STARTCHAR 0145
ENCODING 325
SWIDTH 785 0
DWIDTH 22 0
BBX 21 28 1 -7
BITMAP
FE0FF8
1F01C0
1F0080
0F8080
0FC080
0FC080
0BE080
0BF080
09F880
08F880
08FC80
087E80
083E80
081F80
081F80
080F80
080780
080780
080380
1C0180
FF8180
000080
007000
007000
007800
001000
001000
006000
ENDCHAR
STARTCHAR 0146
ENCODING 326
SWIDTH 571 0
DWIDTH 16 0
BBX 13 21 2 -7
BITMAP
FBC0
7CE0
78E0
78F0
78F0
78F0
78F0
78F0
78F0
78F0
78F0
78F0
78F0
FDF8
0000
0600
0F00
0700
0300
0200
0400
ENDCHAR
STARTCHAR 0147
ENCODING 327
SWIDTH 785 0
DWIDTH 22 0
BBX 21 26 1 1
BITMAP
010600
00CC00
007800
003000
000000
FE0FF8
1F01C0
1F0080
0F8080
0FC080
0FC080
0BE080
0BF080
09F880
08F880
08FC80
087E80
083E80
081F80
081F80
080F80
080780
080780
080380
1C0180
FF8180
ENDCHAR
STARTCHAR 0148
ENCODING 328
SWIDTH 571 0
DWIDTH 16 0
BBX 13 20 2 0
BITMAP
2040
1080
0D80
0F00
0600
0000
FBC0
7CE0
78E0
78F0
78F0
78F0
78F0
78F0
78F0
78F0
78F0
78F0
78F0
FDF8
ENDCHAR
STARTCHAR 0149
ENCODING 329
SWIDTH 678 0
DWIDTH 19 0
BBX 18 22 1 0
BITMAP
400000
E00000
F00000
700000
300000
200000
400000
800000
0F9C00
07EE00
078F00
078F00
078F00
078F00
078F00
078F00
078F00
078F00
078F00
078F00
078F00
0FDFC0
ENDCHAR
STARTCHAR 014A
ENCODING 330
SWIDTH 785 0
DWIDTH 22 0
BBX 21 28 1 -7
BITMAP
FE0FF8
1F01C0
1F0080
0F8080
0FC080
0FC080
0BE080
0BF080
09F880
08F880
08FC80
087E80
083E80
081F80
081F80
080F80
080780
080780
080380
1C0180
FF8180
000080
000080
000080
003080
003880
003900
001E00
ENDCHAR
STARTCHAR 014B
ENCODING 331
SWIDTH 571 0
DWIDTH 16 0
BBX 12 21 2 -7
BITMAP
FBC0
7CE0
78E0
78F0
78F0
78F0
78F0
78F0
78F0
78F0
78F0
78F0
78F0
FCF0
00F0
00F0
00E0
18E0
18E0
1CC0
0780
ENDCHAR
STARTCHAR 014C
ENCODING 332
SWIDTH 714 0
DWIDTH 20 0
BBX 17 25 2 0
BITMAP
0FF000
0FF000
000000
008000
077000
0C1800
180C00
380E00
780E00
780F00
780F00
F80F80
F80F80
F80F80
F80F80
F80F80
F80F80
F80F80
780F00
780F00
780F00
380E00
180C00
0C1800
077000
ENDCHAR
STARTCHAR 014D
ENCODING 333
SWIDTH 500 0
DWIDTH 14 0
BBX 12 19 1 0
BITMAP
3F80
3F80
0000
0000
0000
0F00
3180
70C0
70E0
F0E0
F0E0
F0F0
F0F0
F0E0
F0E0
70E0
70C0
3180
0F00
ENDCHAR
STARTCHAR 014E
ENCODING 334
SWIDTH 714 0
DWIDTH 20 0
BBX 17 27 2 0
BITMAP
080800
080800
0C1000
07F000
03E000
008000
077000
0C1800
180C00
380E00
780E00
780F00
780F00
F80F80
F80F80
F80F80
F80F80
F80F80
F80F80
F80F80
780F00
780F00
780F00
380E00
180C00
0C1800
077000
ENDCHAR
STARTCHAR 014F
ENCODING 335
SWIDTH 500 0
DWIDTH 14 0
BBX 12 21 1 0
BITMAP
2040
2040
3080
1F80
0F00
0000
0000
0F00
3180
70C0
70E0
F0E0
F0E0
F0F0
F0F0
F0E0
F0E0
70E0
70C0
3180
0F00
ENDCHAR
STARTCHAR 0150
ENCODING 336
SWIDTH 714 0
DWIDTH 20 0
BBX 17 27 2 1
BITMAP
00EE00
00DC00
019800
033000
020000
008000
077000
0C1800
180C00
380E00
780E00
780F00
780F00
F80F80
F80F80
F80F80
F80F80
F80F80
F80F80
F80F80
780F00
780F00
780F00
380E00
180C00
0C1800
077000
ENDCHAR
STARTCHAR 0151
ENCODING 337
SWIDTH 500 0
DWIDTH 14 0
BBX 12 21 1 0
BITMAP
0320
0770
06E0
0CC0
1980
1100
0000
0F00
3180
70C0
70E0
F0E0
F0E0
F0F0
F0F0
F0E0
F0E0
70E0
70C0
3180
0F00
ENDCHAR
STARTCHAR 0152
ENCODING 338
SWIDTH 1000 0
DWIDTH 28 0
BBX 25 21 2 1
BITMAP
07FFFF80
0C1F0780
180F0380
380F0180
780F0180
780F0180
780F0880
F80F0800
F80F1800
F80F1800
F80FF800
F80F1800
F80F1800
F80F0880
780F0880
780F0080
780F0180
380F0180
180F0380
0C1F0780
07FFFF80
ENDCHAR
STARTCHAR 0153
ENCODING 339
SWIDTH 714 0
DWIDTH 20 0
BBX 18 14 1 0
BITMAP
1F3E00
31F300
71E380
71E3C0
F1E3C0
F1E3C0
F1FFC0
F1E000
F1E000
F1E040
71E040
71F080
31B080
1F1F00
ENDCHAR
STARTCHAR 0154
ENCODING 340
SWIDTH 750 0
DWIDTH 21 0
BBX 19 27 1 1
BITMAP
007000
00F000
00C000
018000
000000
000000
FFF000
1E1C00
1E0E00
1E0F00
1E0F00
1E0F00
1E0F00
1E0E00
1E1C00
1FE000
1E3000
1E1C00
1E1C00
1E1C00
1E1E00
1E1E00
1E1E20
1E1E20
1E1E20
1E0E40
FFCFC0
ENDCHAR
STARTCHAR 0155
ENCODING 341
SWIDTH 428 0
DWIDTH 12 0
BBX 10 21 2 0
BITMAP
0100
0380
0300
0600
0C00
0800
0000
FB80
7D80
7BC0
7B80
7980
7800
7800
7800
7800
7800
7800
7800
7800
FC00
ENDCHAR
STARTCHAR 0156
ENCODING 342
SWIDTH 750 0
DWIDTH 21 0
BBX 19 28 1 -7
BITMAP
FFF000
1E1C00
1E0E00
1E0F00
1E0F00
1E0F00
1E0F00
1E0E00
1E1C00
1FE000
1E3000
1E1C00
1E1C00
1E1C00
1E1E00
1E1E00
1E1E20
1E1E20
1E1E20
1E0E40
FFCFC0
000000
00E000
00E000
00F000
002000
006000
008000
ENDCHAR
STARTCHAR 0157
ENCODING 343
SWIDTH 428 0
DWIDTH 12 0
BBX 10 21 1 -7
BITMAP
FB80
7DC0
79C0
7BC0
7980
7800
7800
7800
7800
7800
7800
7800
7800
FC00
0000
7000
7000
7800
1000
1000
6000
ENDCHAR
STARTCHAR 0158
ENCODING 344
SWIDTH 750 0
DWIDTH 21 0
BBX 19 26 1 1
BITMAP
083000
06E000
07C000
038000
000000
FFF000
1E1C00
1E0E00
1E0F00
1E0F00
1E0F00
1E0F00
1E0E00
1E1C00
1FE000
1E3000
1E1C00
1E1C00
1E1C00
1E1E00
1E1E00
1E1E20
1E1E20
1E1E20
1E0E40
FFCFC0
ENDCHAR
STARTCHAR 0159
ENCODING 345
SWIDTH 428 0
DWIDTH 12 0
BBX 10 20 2 0
BITMAP
4080
2100
1B00
1E00
0C00
0000
FB80
7D80
7BC0
7B80
7980
7800
7800
7800
7800
7800
7800
7800
7800
FC00
ENDCHAR
STARTCHAR 015A
ENCODING 346
SWIDTH 607 0
DWIDTH 17 0
BBX 13 27 3 1
BITMAP
01C0
0380
0300
0600
0000
0400
3B90
40F0
C070
C070
E030
F030
F810
FE10
7F00
3F80
1FE0
0FF0
83F0
81F8
8078
C038
C018
E018
E010
B030
8FC0
ENDCHAR
STARTCHAR 015B
ENCODING 347
SWIDTH 464 0
DWIDTH 13 0
BBX 10 21 2 0
BITMAP
0300
0700
0700
0E00
0800
1000
0000
3C80
4380
C180
C180
E080
F800
7E00
3F80
8F80
83C0
C0C0
E0C0
F080
8F00
ENDCHAR
STARTCHAR 015C
ENCODING 348
SWIDTH 607 0
DWIDTH 17 0
BBX 13 27 3 0
BITMAP
0400
0E00
1B00
3180
4040
0400
3B90
40F0
C070
C070
E030
F030
F810
FE10
7F00
3F80
1FE0
0FF0
83F0
81F8
8078
C038
C018
E018
E010
F030
9FC0
ENDCHAR
STARTCHAR 015D
ENCODING 349
SWIDTH 464 0
DWIDTH 13 0
BBX 10 21 2 0
BITMAP
1C00
1C00
3C00
3600
6300
8080
0000
3C80
4380
C180
C180
E080
F800
7E00
3F80
8F80
83C0
C0C0
E0C0
F080
8F00
ENDCHAR
STARTCHAR 015E
ENCODING 350
SWIDTH 607 0
DWIDTH 17 0
BBX 13 29 3 -7
BITMAP
0400
3B90
40F0
C070
C030
E030
F010
F810
FE10
7F00
3F80
1FE0
0FF0
83F0
81F8
8078
C038
C018
E018
E010
F030
8C60
0380
0200
0380
00C0
00C0
11C0
0F80
ENDCHAR
STARTCHAR 015F
ENCODING 351
SWIDTH 464 0
DWIDTH 13 0
BBX 10 21 2 -7
BITMAP
3C80
4380
C180
C180
E080
F800
7E00
3F80
8F80
83C0
C0C0
E0C0
F080
8F00
0800
0800
0600
0300
0300
2300
1E00
ENDCHAR
STARTCHAR 0160
ENCODING 352
SWIDTH 607 0
DWIDTH 17 0
BBX 13 27 3 0
BITMAP
4040
60C0
3B80
1F00
0E00
0400
3B90
40F0
C070
C070
E030
F030
F810
FE10
7F00
3F80
1FE0
0FF0
83F0
81F8
8078
C038
C018
E018
E010
F030
9FC0
ENDCHAR
STARTCHAR 0161
ENCODING 353
SWIDTH 464 0
DWIDTH 13 0
BBX 10 20 2 0
BITMAP
4100
6300
3E00
1C00
0800
0000
3C80
4380
C180
C180
E080
F800
7E00
3F80
8F80
83C0
C0C0
E0C0
F080
8F00
ENDCHAR
STARTCHAR 0162
ENCODING 354
SWIDTH 714 0
DWIDTH 20 0
BBX 17 28 2 -7
BITMAP
FFFF80
E3C780
C3C780
C3C380
83C180
83C180
83C180
03C100
03C080
03C000
03C000
03C000
03C000
03C000
03C000
03C000
03C000
03C000
03C000
03C000
1FF800
010000
010000
01C000
006000
006000
046000
03C000
ENDCHAR
STARTCHAR 0163
ENCODING 355
SWIDTH 357 0
DWIDTH 10 0
BBX 9 26 0 -7
BITMAP
0800
0800
0800
1800
3800
FF00
3800
3800
3800
3800
3800
3800
3800
3880
3880
3880
3880
3900
1E00
0800
0800
0600
0300
0300
0300
1E00
ENDCHAR
STARTCHAR 0164
ENCODING 356
SWIDTH 714 0
DWIDTH 20 0
BBX 17 26 2 1
BITMAP
083000
06E000
03C000
018000
000000
FFFF80
E3CF80
C3C780
C3C380
83C380
83C180
83C180
03C180
03C080
03C000
03C000
03C000
03C000
03C000
03C000
03C000
03C000
03C000
03C000
03C000
1FF800
ENDCHAR
STARTCHAR 0165
ENCODING 357
SWIDTH 392 0
DWIDTH 11 0
BBX 11 21 0 1
BITMAP
01E0
09E0
0860
0820
1840
1880
3900
FF00
3800
3800
3800
3800
3800
3800
3880
3880
3880
3880
3980
3900
0E00
ENDCHAR
STARTCHAR 0166
ENCODING 358
SWIDTH 714 0
DWIDTH 20 0
BBX 17 21 2 0
BITMAP
FFFF80
E3CF80
C3C780
C3C380
83C380
83C180
83C180
83C180
03C080
03C000
3FFC00
03C000
03C000
03C000
03C000
03C000
03C000
03C000
03C000
03C000
1FF800
ENDCHAR
STARTCHAR 0167
ENCODING 359
SWIDTH 357 0
DWIDTH 10 0
BBX 9 20 0 0
BITMAP
0800
0800
0800
1800
1800
3800
FF00
3800
3800
FF00
3800
3800
3800
3880
3880
3880
3880
3980
1900
0E00
ENDCHAR
STARTCHAR 0168
ENCODING 360
SWIDTH 785 0
DWIDTH 22 0
BBX 19 27 2 0
BITMAP
000400
03C400
03F800
047800
000000
000000
FF0FE0
3C0380
3C0100
3C0100
3C0100
3C0100
3C0100
3C0100
3C0100
3C0100
3C0100
3C0100
3C0100
3C0100
3C0100
3C0100
3C0100
1C0100
1C0200
0E0400
07F800
ENDCHAR
STARTCHAR 0169
ENCODING 361
SWIDTH 535 0
DWIDTH 15 0
BBX 14 20 0 0
BITMAP
0E20
1FC0
13C0
0000
0000
0000
FDF8
3C78
3C78
3C78
3C78
3C78
3C78
3C78
3C78
3C78
3C78
3CF8
1D78
0E7C
ENDCHAR
STARTCHAR 016A
ENCODING 362
SWIDTH 785 0
DWIDTH 22 0
BBX 19 25 2 0
BITMAP
03FC00
03FC00
000000
000000
FF8FE0
3C0380
3C0100
3C0100
3C0100
3C0100
3C0100
3C0100
3C0100
3C0100
3C0100
3C0100
3C0100
3C0100
3C0100
3C0100
3C0100
1C0100
1C0200
0E0400
07F800
ENDCHAR
STARTCHAR 016B
ENCODING 363
SWIDTH 535 0
DWIDTH 15 0
BBX 14 19 0 0
BITMAP
1FC0
1FC0
0000
0000
0000
FDF8
3C78
3C78
3C78
3C78
3C78
3C78
3C78
3C78
3C78
3C78
3CF8
1D78
0E7C
ENDCHAR
STARTCHAR 016C
ENCODING 364
SWIDTH 785 0
DWIDTH 22 0
BBX 19 27 2 0
BITMAP
040400
040400
060800
03F800
01F000
000000
FF0FE0
3C0380
3C0100
3C0100
3C0100
3C0100
3C0100
3C0100
3C0100
3C0100
3C0100
3C0100
3C0100
3C0100
3C0100
3C0100
3C0100
1C0100
1C0200
0E0400
07F800
ENDCHAR
STARTCHAR 016D
ENCODING 365
SWIDTH 535 0
DWIDTH 15 0
BBX 14 21 0 0
BITMAP
1020
1040
1840
0FC0
0780
0000
0000
FDF8
3C78
3C78
3C78
3C78
3C78
3C78
3C78
3C78
3C78
3C78
3CF8
1D78
0E7C
ENDCHAR
STARTCHAR 016E
ENCODING 366
SWIDTH 785 0
DWIDTH 22 0
BBX 19 27 2 0
BITMAP
00F000
010800
010800
010800
00F000
000000
FF8FE0
3C0380
3C0100
3C0100
3C0100
3C0100
3C0100
3C0100
3C0100
3C0100
3C0100
3C0100
3C0100
3C0100
3C0100
3C0100
3C0100
1C0100
1C0200
0E0400
07F800
ENDCHAR
STARTCHAR 016F
ENCODING 367
SWIDTH 535 0
DWIDTH 15 0
BBX 14 21 0 1
BITMAP
0780
0840
0840
0840
0C80
0300
0000
FCF8
3C78
3C78
3C78
3C78
3C78
3C78
3C78
3C78
3C78
3C78
3CF8
1D78
0E7C
ENDCHAR
STARTCHAR 0170
ENCODING 368
SWIDTH 785 0
DWIDTH 22 0
BBX 19 27 2 1
BITMAP
007700
00EE00
00CC00
019800
000000
000000
FF0FE0
3C0380
3C0100
3C0100
3C0100
3C0100
3C0100
3C0100
3C0100
3C0100
3C0100
3C0100
3C0100
3C0100
3C0100
3C0100
3C0100
1C0300
1C0200
0E0400
07F800
ENDCHAR
STARTCHAR 0171
ENCODING 369
SWIDTH 535 0
DWIDTH 15 0
BBX 14 21 0 0
BITMAP
0190
03B8
0370
0660
04C0
0000
0000
FCF8
3C78
3C78
3C78
3C78
3C78
3C78
3C78
3C78
3C78
3C78
3CF8
1CF8
0F7C
ENDCHAR
STARTCHAR 0172
ENCODING 370
SWIDTH 785 0
DWIDTH 22 0
BBX 19 28 2 -7
BITMAP
FF8FE0
3C0380
3C0100
3C0100
3C0100
3C0100
3C0100
3C0100
3C0100
3C0100
3C0100
3C0100
3C0100
3C0100
3C0100
3C0100
3C0100
1C0200
1C0200
0E0400
071800
00E000
006000
00C000
00C000
00C000
00F800
007000
ENDCHAR
STARTCHAR 0173
ENCODING 371
SWIDTH 535 0
DWIDTH 15 0
BBX 15 21 0 -7
BITMAP
FDF8
3C78
3C78
3C78
3C78
3C78
3C78
3C78
3C78
3C78
3C78
3CF8
1D78
0E7C
0008
0010
0020
0060
0062
007C
0038
ENDCHAR
STARTCHAR 0174
ENCODING 372
SWIDTH 1107 0
DWIDTH 31 0
BBX 28 27 2 0
BITMAP
00060000
00070000
000D8000
0030E000
00000000
00000000
FFBFE7F0
3E0F81C0
1E078180
1E078180
1F07C100
0F07C100
0F07C100
0F8FE200
0789E200
0789E200
07C9F600
03D0F400
03D0F400
03F0FC00
01F07C00
01E07800
01E07800
00E03800
00C03000
00C03000
00401000
ENDCHAR
STARTCHAR 0175
ENCODING 373
SWIDTH 785 0
DWIDTH 22 0
BBX 20 21 1 0
BITMAP
007000
007000
007800
00D800
010400
000000
000000
FDFDF0
787840
387840
3C3840
1C7880
1C7C80
1E5C80
0E9D00
0E9F00
0F8F00
070E00
070E00
060600
020400
ENDCHAR
STARTCHAR 0176
ENCODING 374
SWIDTH 750 0
DWIDTH 21 0
BBX 18 27 2 0
BITMAP
00C000
00E000
01F000
031800
040400
000000
FF1FC0
3E0700
1E0600
1E0400
1F0400
0F0400
0F8800
078800
079000
03D000
03F000
03E000
01E000
01E000
01E000
01E000
01E000
01E000
01E000
01E000
07F800
ENDCHAR
STARTCHAR 0177
ENCODING 375
SWIDTH 535 0
DWIDTH 15 0
BBX 13 28 1 -7
BITMAP
0300
0700
0780
0CC0
1860
0020
0000
FCF8
7820
3820
3C40
1C40
1C40
1E40
0E80
0F80
0780
0780
0700
0300
0300
0200
0200
3200
7A00
7400
7400
3800
ENDCHAR
STARTCHAR 0178
ENCODING 376
SWIDTH 750 0
DWIDTH 21 0
BBX 19 27 2 0
BITMAP
030C00
079E00
079E00
030C00
000000
000000
FF1FE0
3E0300
1E0200
1F0200
0F0400
0F8400
0F8400
078800
07C800
03D000
03F000
01F000
01E000
01E000
01E000
01E000
01E000
01E000
01E000
01E000
07FC00
ENDCHAR
STARTCHAR 0179
ENCODING 377
SWIDTH 678 0
DWIDTH 19 0
BBX 15 27 2 1
BITMAP
0030
0070
00E0
0080
0000
0000
7FFE
783E
707C
607C
60F8
40F8
41F0
01F0
03E0
03E0
07C0
0780
0F80
1F02
1F02
3E02
3E06
7C06
7C0E
F81E
FFFE
ENDCHAR
STARTCHAR 017A
ENCODING 378
SWIDTH 464 0
DWIDTH 13 0
BBX 11 21 1 0
BITMAP
00C0
01C0
0380
0300
0600
0000
0000
7FE0
61E0
43C0
4380
4780
0F00
0F00
1E00
1E20
3C20
3820
7860
F0E0
FFE0
ENDCHAR
STARTCHAR 017B
ENCODING 379
SWIDTH 678 0
DWIDTH 19 0
BBX 15 27 2 0
BITMAP
0180
03C0
03C0
0180
0000
0000
7FFE
787E
707C
60FC
40F8
41F8
41F0
03F0
03E0
07C0
07C0
0F80
0F80
1F02
1F02
3E02
3E06
7C06
7C0E
F81E
FFFE
ENDCHAR
STARTCHAR 017C
ENCODING 380
SWIDTH 464 0
DWIDTH 13 0
BBX 11 20 1 0
BITMAP
0600
0F00
0F00
0600
0000
0000
7FE0
63E0
43C0
4780
4780
0F00
0F00
1E00
1E20
3C20
7820
7860
F0E0
FFE0
ENDCHAR
STARTCHAR 017D
ENCODING 381
SWIDTH 678 0
DWIDTH 19 0
BBX 15 26 2 1
BITMAP
0C10
0660
03C0
0180
0000
7FFE
783E
707C
607C
60F8
40F8
41F0
01F0
03E0
03E0
07C0
0780
0F80
1F02
1F02
3E02
3E06
7C06
7C0E
F81E
FFFE
ENDCHAR
STARTCHAR 017E
ENCODING 382
SWIDTH 464 0
DWIDTH 13 0
BBX 11 20 1 0
BITMAP
2040
1080
1980
0F00
0600
0000
7FE0
61E0
43C0
4380
4780
0F00
0F00
1E00
1E20
3C20
3820
7860
F0E0
FFE0
ENDCHAR
STARTCHAR 017F
ENCODING 383
SWIDTH 357 0
DWIDTH 10 0
BBX 11 21 1 0
BITMAP
0780
0CC0
1CC0
3DE0
3DC0
3C80
3C00
3C00
3C00
3C00
3C00
3C00
3C00
3C00
3C00
3C00
3C00
3C00
3C00
3C00
FE00
ENDCHAR
STARTCHAR 0180
ENCODING 384
SWIDTH 500 0
DWIDTH 14 0
BBX 13 21 0 0
BITMAP
FC00
3C00
3C00
3C00
FFC0
3C00
3C00
3DC0
3E60
3C70
3C70
3C78
3C78
3C78
3C78
3C78
3C78
3C70
3470
2660
23C0
ENDCHAR
STARTCHAR 0186
ENCODING 390
SWIDTH 642 0
DWIDTH 18 0
BBX 16 21 1 1
BITMAP
0FE0
1038
203C
601C
401E
401E
401F
801F
001F
001F
001F
001F
401F
401F
401F
601E
601E
701C
703C
7838
47F0
ENDCHAR
STARTCHAR 018E
ENCODING 398
SWIDTH 714 0
DWIDTH 20 0
BBX 16 21 3 0
BITMAP
FFFF
F078
E078
C078
C078
8078
8878
0878
0C78
0E78
0FF8
0E78
0C78
8878
8878
8078
8078
C078
E078
F078
FFFF
ENDCHAR
STARTCHAR 018F
ENCODING 399
SWIDTH 678 0
DWIDTH 19 0
BBX 16 22 2 0
BITMAP
0100
0EE0
1038
203C
201C
401E
401E
C01F
001F
001F
001F
FFFF
F81F
F81F
F81F
F81E
781E
781E
381C
3C3C
1C38
0EF0
ENDCHAR
STARTCHAR 0190
ENCODING 400
SWIDTH 607 0
DWIDTH 17 0
BBX 14 21 2 1
BITMAP
0FE8
3C38
3818
7818
7808
7808
7808
7800
3C00
1C00
03C0
1C00
3C00
7800
F83C
F83C
F83C
F81C
7818
7C18
1FE0
ENDCHAR
STARTCHAR 0192
ENCODING 402
SWIDTH 571 0
DWIDTH 16 0
BBX 16 25 -1 -4
BITMAP
003C
0066
00E6
00CF
01CE
01C0
01C0
0FF8
01C0
01C0
01C0
03C0
03C0
03C0
03C0
0380
0380
0380
0380
0380
E700
F700
E600
EC00
3800
ENDCHAR
STARTCHAR 0195
ENCODING 405
SWIDTH 714 0
DWIDTH 20 0
BBX 18 21 1 0
BITMAP
FC0000
3C0000
3C0000
3C0000
3C0000
3C0000
3C0000
3DE300
3E7380
3C73C0
3C7BC0
3C78C0
3C78C0
3C7840
3C7840
3C7840
3C7840
3C7880
3C7880
3C3900
FE1E00
ENDCHAR
STARTCHAR 01A6
ENCODING 422
SWIDTH 750 0
DWIDTH 21 0
BBX 19 26 1 -5
BITMAP
FF8000
1E0000
1E0000
1E0000
1FF000
1E1C00
1E0E00
1E0F00
1E0F00
1E0F00
1E0F00
1E0E00
1E1C00
1FE000
1E3800
1E1C00
1E1C00
1E1C00
1E1E00
1E1E00
FF9E20
001E20
001E20
001E60
000FC0
000780
ENDCHAR
STARTCHAR 01B7
ENCODING 439
SWIDTH 642 0
DWIDTH 18 0
BBX 15 21 2 0
BITMAP
7FFC
7FFC
7FF8
7FF0
6060
4040
4080
4100
0200
07E0
0878
007C
003C
703E
F83E
F83E
F83E
F03E
E07C
6078
3FE0
ENDCHAR
STARTCHAR 01BF
ENCODING 447
SWIDTH 535 0
DWIDTH 15 0
BBX 13 20 1 -6
BITMAP
1CF0
7F70
BC78
3C78
3C78
3C78
3C70
3C70
3C60
3CC0
3C80
3D00
3E00
3C00
3C00
3C00
3C00
3C00
3000
C000
ENDCHAR
STARTCHAR 01C4
ENCODING 452
SWIDTH 1428 0
DWIDTH 40 0
BBX 37 26 1 1
BITMAP
0000003040
0000001980
0000000F00
0000000600
0000000000
FFF801FFF8
1E0E01E0F8
1E0701C1F0
1E038181F0
1E03C183E0
1E03C103E0
1E03C107C0
1E03E007C0
1E03E00F80
1E03E00F80
1E03E01F00
1E03E01E00
1E03E03E00
1E03E07C08
1E03C07C08
1E03C0F808
1E03C0F818
1E0381F018
1E0701F038
1E0E03E078
FFF803FFF8
ENDCHAR
STARTCHAR 01C5
ENCODING 453
SWIDTH 1214 0
DWIDTH 34 0
BBX 32 21 1 0
BITMAP
FFF80000
1E0E0186
1E0700CC
1E038078
1E03C030
1E03C000
1E03C000
1E03E3FF
1E03E30F
1E03E31E
1E03E21C
1E03E23C
1E03E078
1E03E078
1E03C0F0
1E03C0F1
1E03C1E1
1E0381C1
1E0703C3
1E0E0787
FFF807FF
ENDCHAR
STARTCHAR 01C6
ENCODING 454
SWIDTH 964 0
DWIDTH 27 0
BBX 25 21 1 0
BITMAP
03E00000
01E08100
01E06600
01E03C00
01E03C00
01E01800
01E00000
1DE1FF80
33E18780
71E10F00
71E10E00
F1E11E00
F1E03C00
F1E03C00
F1E07800
F1E07880
F1E0F080
71E0E080
71E1E180
33E3C380
1DFBFF80
ENDCHAR
STARTCHAR 01C7
ENCODING 455
SWIDTH 1178 0
DWIDTH 33 0
BBX 31 21 1 0
BITMAP
FF8003FE
1E000078
1E000078
1E000078
1E000078
1E000078
1E000078
1E000078
1E000078
1E000078
1E000078
1E000078
1E010078
1E011C78
1E033E78
1E033E78
1E033E78
1E073878
1E073070
1E0F1060
FFFF0FC0
ENDCHAR
STARTCHAR 01C8
ENCODING 456
SWIDTH 964 0
DWIDTH 27 0
BBX 24 28 1 -7
BITMAP
FF8006
1E000F
1E000F
1E0006
1E0000
1E0000
1E0000
1E001F
1E000F
1E000F
1E000F
1E000F
1E010F
1E010F
1E010F
1E010F
1E030F
1E030F
1E070F
1E0F0F
FFFF0F
00000F
00004F
0000FF
0000EF
0000EE
0000CE
000038
ENDCHAR
STARTCHAR 01C9
ENCODING 457
SWIDTH 607 0
DWIDTH 17 0
BBX 15 28 1 -7
BITMAP
FC0C
3C1E
3C1E
3C0C
3C00
3C00
3C00
3C7E
3C1E
3C1E
3C1E
3C1E
3C1E
3C1E
3C1E
3C1E
3C1E
3C1E
3C1E
3C1E
FE1E
001E
009E
01DC
03DC
019C
0198
00F0
ENDCHAR
STARTCHAR 01CA
ENCODING 458
SWIDTH 1285 0
DWIDTH 36 0
BBX 34 21 1 0
BITMAP
FE0FF07FC0
1F01C00F00
1F00800F00
0F80800F00
0FC0800F00
0FC0800F00
0BE0800F00
0BF0800F00
09F8800F00
08F8800F00
08FC800F00
087E800F00
083E800F00
081F838F00
081F87CF00
080F87CF00
080787CF00
0807870F00
0803860E00
1C01820C00
FF8181F800
ENDCHAR
STARTCHAR 01CB
ENCODING 459
SWIDTH 1107 0
DWIDTH 31 0
BBX 28 28 1 -7
BITMAP
FE0FF060
1F01C0F0
1F0080F0
0F808060
0FC08000
0FC08000
0BE08000
0BF083F0
09F080F0
08F880F0
08FC80F0
087E80F0
083E80F0
083F80F0
081F80F0
080F80F0
080780F0
080780F0
080380F0
1C0180F0
FF8180F0
000080F0
000008F0
00001EE0
00001CE0
00001CE0
000008C0
00000780
ENDCHAR
STARTCHAR 01CC
ENCODING 460
SWIDTH 857 0
DWIDTH 24 0
BBX 21 28 2 -7
BITMAP
000030
000078
000078
000030
000000
000000
000000
FBC1F8
7CE078
78E078
78F078
78F078
78F078
78F078
78F078
78F078
78F078
78F078
78F078
78F078
FDF878
000078
000278
000770
000F70
000670
000660
0003C0
ENDCHAR
STARTCHAR 01DD
ENCODING 477
SWIDTH 464 0
DWIDTH 13 0
BBX 11 14 1 0
BITMAP
3E00
4300
8180
81C0
01C0
01C0
FFE0
F1E0
F1C0
F1C0
71C0
7180
3300
1E00
ENDCHAR
STARTCHAR 01E2
ENCODING 482
SWIDTH 1000 0
DWIDTH 28 0
BBX 26 25 0 0
BITMAP
0003FC00
0003FC00
00000000
00000000
003FFFC0
000F83C0
000F81C0
001F80C0
001780C0
00378040
00278440
00678400
00478C00
00C79C00
0087FC00
01879C00
01078C00
03078440
03FF8440
06078040
04078040
0C0780C0
0C0781C0
1C0783C0
FF3FFFC0
ENDCHAR
STARTCHAR 01E3
ENCODING 483
SWIDTH 678 0
DWIDTH 19 0
BBX 17 19 1 0
BITMAP
07F000
07F000
000000
000000
000000
3E3C00
63E600
63C700
F3C780
73C780
07C780
1BFF80
73C000
73C000
F3C080
F3C080
F3E100
F2E100
7C3E00
ENDCHAR
STARTCHAR 01EA
ENCODING 490
SWIDTH 714 0
DWIDTH 20 0
BBX 17 29 2 -7
BITMAP
008000
077000
0C1800
180C00
380E00
780E00
780F00
780F00
F80F80
F80F80
F80F80
F80F80
F80F80
F80F80
F80F80
780F00
780F00
780E00
380E00
1C1C00
0C1800
077000
01C000
030000
020000
060000
060000
07E000
03C000
ENDCHAR
STARTCHAR 01EB
ENCODING 491
SWIDTH 500 0
DWIDTH 14 0
BBX 12 21 1 -7
BITMAP
0F00
3180
70C0
70E0
F0E0
F0E0
F0F0
F0F0
F0F0
F0E0
70E0
70E0
30C0
1980
0F00
0400
0800
1800
1800
1F00
0E00
ENDCHAR
STARTCHAR 01EC
ENCODING 492
SWIDTH 714 0
DWIDTH 20 0
BBX 17 32 2 -7
BITMAP
0FF000
0FF000
000000
008000
077000
0C1800
180C00
380E00
780E00
780F00
780F00
F80F80
F80F80
F80F80
F80F80
F80F80
F80F80
F80F80
780F00
780F00
780E00
380E00
1C1C00
0C1800
077000
01C000
030000
020000
060000
060000
07E000
03C000
ENDCHAR
STARTCHAR 01ED
ENCODING 493
SWIDTH 500 0
DWIDTH 14 0
BBX 12 25 1 -7
BITMAP
3F80
3F80
0000
0000
0F00
3180
70C0
70E0
F0E0
F0E0
F0F0
F0F0
F0F0
F0E0
70E0
70E0
30C0
1980
0F00
0400
0800
1800
1800
1F00
0E00
ENDCHAR
STARTCHAR 01F0
ENCODING 496
SWIDTH 321 0
DWIDTH 9 0
BBX 10 27 -1 -7
BITMAP
2040
1080
1B80
0F00
0600
0000
1F00
0F00
0F00
0F00
0F00
0F00
0F00
0F00
0F00
0F00
0F00
0F00
0F00
0F00
0F00
4F00
FF00
EF00
EE00
CE00
3800
ENDCHAR
STARTCHAR 01F1
ENCODING 497
SWIDTH 1428 0
DWIDTH 40 0
BBX 37 21 1 0
BITMAP
FFF801FFF8
1E0E01E0F8
1E0701C1F0
1E038181F0
1E03C183E0
1E03C103E0
1E03C107C0
1E03E007C0
1E03E00F80
1E03E00F80
1E03E01F00
1E03E01E00
1E03E03E00
1E03E07C08
1E03C07C08
1E03C0F808
1E03C0F818
1E0381F018
1E0701F038
1E0E03E078
FFF803FFF8
ENDCHAR
STARTCHAR 01F2
ENCODING 498
SWIDTH 1214 0
DWIDTH 34 0
BBX 32 21 1 0
BITMAP
FFF80000
1E0E0000
1E070000
1E038000
1E03C000
1E03C000
1E03C000
1E03E3FF
1E03E30F
1E03E31E
1E03E21C
1E03E23C
1E03E078
1E03E078
1E03C0F0
1E03C0F1
1E03C1E1
1E0381C1
1E0703C3
1E0E0787
FFF807FF
ENDCHAR
STARTCHAR 01F3
ENCODING 499
SWIDTH 964 0
DWIDTH 27 0
BBX 25 21 1 0
BITMAP
03E00000
01E00000
01E00000
01E00000
01E00000
01E00000
01E00000
1DE1FF80
33E18780
71E10F00
71E10E00
F1E11E00
F1E03C00
F1E03C00
F1E07800
F1E07880
F1E0F080
71E0E080
71E1E180
33E3C380
1DFBFF80
ENDCHAR
STARTCHAR 01F4
ENCODING 500
SWIDTH 714 0
DWIDTH 20 0
BBX 17 27 2 1
BITMAP
003800
007000
006000
00C000
000000
008000
077200
1C1E00
180E00
380600
780600
780600
780200
F80200
F80000
F80000
F80000
F8FF80
F81E00
F81E00
F81E00
781E00
781E00
381E00
381600
1C2200
0EC200
ENDCHAR
STARTCHAR 01F5
ENCODING 501
SWIDTH 571 0
DWIDTH 16 0
BBX 14 28 1 -7
BITMAP
00C0
01C0
0180
0300
0600
0400
0000
0F18
39EC
79FC
79F8
79E0
79E0
39C0
39C0
0F00
7000
C000
FF00
FFE0
7FF0
3FF8
4038
8018
8010
8030
6060
1F80
ENDCHAR
STARTCHAR 01F6
ENCODING 502
SWIDTH 964 0
DWIDTH 27 0
BBX 25 21 1 0
BITMAP
FFBFF000
1E078000
1E078000
1E078000
1E078000
1E078000
1E078000
1E078000
1E078000
1E079E00
1FFF9F00
1E079F00
1E078F80
1E078180
1E078080
1E078080
1E078080
1E078080
1E038100
1E03C300
FF81FE00
ENDCHAR
STARTCHAR 01F7
ENCODING 503
SWIDTH 642 0
DWIDTH 18 0
BBX 15 26 2 -4
BITMAP
0CF0
3DF8
FFFC
BC3C
3C3C
3C1E
3C1E
3C1C
3C1C
3C1C
3C1C
3C18
3C38
3C30
3C30
3C60
3CC0
3F00
3C00
3C00
3C00
3C00
3C00
3000
6000
8000
ENDCHAR
STARTCHAR 01FA
ENCODING 506
SWIDTH 785 0
DWIDTH 22 0
BBX 19 27 2 1
BITMAP
003000
004000
00E000
011000
011000
00E000
004000
00E000
00E000
00E000
01F000
01F000
01F000
02F800
02F800
027800
047C00
043C00
043C00
083E00
0FFE00
081E00
101E00
100F00
100F00
300F80
FE7FE0
ENDCHAR
STARTCHAR 01FB
ENCODING 507
SWIDTH 500 0
DWIDTH 14 0
BBX 12 27 1 0
BITMAP
0180
0380
0300
0600
0C00
0000
1E00
2100
2100
2100
3300
1C00
0000
1F00
6380
61C0
F1C0
71E0
21E0
0FE0
31E0
61E0
E1E0
E1F0
E1F0
E1F0
7EE0
ENDCHAR
STARTCHAR 01FC
ENCODING 508
SWIDTH 1000 0
DWIDTH 28 0
BBX 26 28 0 0
BITMAP
00000800
00001C00
00003800
00003000
00006000
00000000
00000000
003FFFC0
000F83C0
000F81C0
001F80C0
001780C0
00378040
00278440
00678400
00478C00
00C79C00
0087FC00
01879C00
01078C00
03078440
03FF8440
06078040
04078040
0C0780C0
0C0781C0
1C0783C0
FF3FFFC0
ENDCHAR
STARTCHAR 01FD
ENCODING 509
SWIDTH 678 0
DWIDTH 19 0
BBX 17 21 1 0
BITMAP
003000
003000
007000
00E000
00C000
000000
000000
3E3C00
63E600
63C700
F3C780
73C780
07C780
1BFF80
73C000
73C000
F3C080
F3C080
F3E100
F2E100
7C3E00
ENDCHAR
STARTCHAR 01FE
ENCODING 510
SWIDTH 714 0
DWIDTH 20 0
BBX 17 27 2 1
BITMAP
003800
007000
006000
00C000
000000
008000
077180
0C1B00
180E00
380E00
380E00
781F00
781F00
F82F80
F86F80
F84F80
F88F80
F90F80
FB0F80
FA0F80
7C0F00
7C0F00
780E00
380E00
380C00
6C1800
C77000
ENDCHAR
STARTCHAR 01FF
ENCODING 511
SWIDTH 500 0
DWIDTH 14 0
BBX 12 21 1 0
BITMAP
0180
01C0
0380
0300
0600
0400
0000
0F10
31A0
71C0
70E0
F1E0
F3E0
F2F0
F4F0
F8E0
F0E0
70E0
70C0
7980
8F00
ENDCHAR
STARTCHAR 0200
ENCODING 512
SWIDTH 750 0
DWIDTH 21 0
BBX 20 27 1 1
BITMAP
0EC000
0EE000
077000
013000
008800
000000
006000
006000
007000
00F000
00F000
00F800
01F800
017800
017C00
023C00
023C00
023C00
041E00
041E00
07FE00
080F00
080F00
080F00
180F80
180F80
FE3FF0
ENDCHAR
STARTCHAR 0201
ENCODING 513
SWIDTH 500 0
DWIDTH 14 0
BBX 12 21 1 0
BITMAP
9800
DC00
EC00
6600
3200
1000
0000
1E00
6380
63C0
F3C0
73C0
23C0
0FC0
33C0
73C0
F3C0
F3D0
F3D0
F3D0
7DE0
ENDCHAR
STARTCHAR 0202
ENCODING 514
SWIDTH 785 0
DWIDTH 22 0
BBX 19 27 2 0
BITMAP
00E000
01F000
031800
060C00
000400
000000
006000
00E000
00E000
00E000
01F000
01F000
01F000
03F800
027800
027800
047C00
043C00
043C00
083E00
0FFE00
081E00
081F00
100F00
100F00
300F80
FE7FE0
ENDCHAR
STARTCHAR 0203
ENCODING 515
SWIDTH 500 0
DWIDTH 14 0
BBX 12 20 1 0
BITMAP
0E00
1F00
3300
2180
4080
0000
1E00
6380
63C0
F3C0
73C0
23C0
0FC0
33C0
73C0
F3C0
F3D0
F3D0
F3D0
7DE0
ENDCHAR
STARTCHAR 0204
ENCODING 516
SWIDTH 678 0
DWIDTH 19 0
BBX 16 27 1 1
BITMAP
1D80
1DC0
06C0
0320
0100
0000
FFFF
1E07
1E07
1E03
1E01
1E01
1E11
1E10
1E30
1E30
1FF0
1E30
1E30
1E11
1E11
1E01
1E01
1E03
1E03
1E07
FFFF
ENDCHAR
STARTCHAR 0205
ENCODING 517
SWIDTH 464 0
DWIDTH 13 0
BBX 11 21 1 0
BITMAP
D800
DC00
EC00
6600
3300
1100
0000
0F00
3380
71C0
71C0
F1C0
F1E0
FFE0
F000
F000
F020
7040
7040
3880
0F00
ENDCHAR
STARTCHAR 0206
ENCODING 518
SWIDTH 678 0
DWIDTH 19 0
BBX 16 27 1 0
BITMAP
01C0
03F0
0630
0408
0008
0000
FFFF
1E0F
1E07
1E03
1E03
1E01
1E11
1E10
1E30
1E30
1FF0
1E30
1E30
1E11
1E11
1E01
1E01
1E03
1E07
1E0F
FFFF
ENDCHAR
STARTCHAR 0207
ENCODING 519
SWIDTH 464 0
DWIDTH 13 0
BBX 11 20 1 0
BITMAP
0E00
1F00
3100
2080
4080
0000
0F00
3380
71C0
71C0
F1C0
F1E0
FFE0
F000
F000
F020
7040
7040
3880
0F00
ENDCHAR
STARTCHAR 0208
ENCODING 520
SWIDTH 428 0
DWIDTH 12 0
BBX 10 27 1 1
BITMAP
EC00
EE00
3600
1300
0100
0000
7FC0
0F00
0F00
0F00
0F00
0F00
0F00
0F00
0F00
0F00
0F00
0F00
0F00
0F00
0F00
0F00
0F00
0F00
0F00
0F00
7FC0
ENDCHAR
STARTCHAR 0209
ENCODING 521
SWIDTH 321 0
DWIDTH 9 0
BBX 9 21 -1 0
BITMAP
CC00
DC00
EE00
3300
1100
0000
0000
3F00
0F00
0F00
0F00
0F00
0F00
0F00
0F00
0F00
0F00
0F00
0F00
0F00
3F80
ENDCHAR
STARTCHAR 020A
ENCODING 522
SWIDTH 392 0
DWIDTH 11 0
BBX 9 27 1 0
BITMAP
1C00
3E00
6300
4180
4000
0000
FF80
1E00
1E00
1E00
1E00
1E00
1E00
1E00
1E00
1E00
1E00
1E00
1E00
1E00
1E00
1E00
1E00
1E00
1E00
1E00
FF80
ENDCHAR
STARTCHAR 020B
ENCODING 523
SWIDTH 321 0
DWIDTH 9 0
BBX 8 19 1 0
BITMAP
3C
7E
C2
81
00
FC
3C
3C
3C
3C
3C
3C
3C
3C
3C
3C
3C
3C
FE
ENDCHAR
STARTCHAR 020C
ENCODING 524
SWIDTH 714 0
DWIDTH 20 0
BBX 17 27 2 1
BITMAP
3B8000
1D8000
0CC000
066000
002000
008000
077000
0C1800
180C00
380E00
780E00
780F00
780F00
F80F80
F80F80
F80F80
F80F80
F80F80
F80F80
F80F80
780F00
780F00
780F00
380E00
180C00
0C1800
077000
ENDCHAR
STARTCHAR 020D
ENCODING 525
SWIDTH 500 0
DWIDTH 14 0
BBX 12 21 1 0
BITMAP
CC00
EC00
6E00
3700
1100
0800
0000
0F00
3980
70C0
70E0
F0E0
F0E0
F0F0
F0F0
F0E0
F0E0
70E0
70C0
3980
0F00
ENDCHAR
STARTCHAR 020E
ENCODING 526
SWIDTH 714 0
DWIDTH 20 0
BBX 17 27 2 0
BITMAP
01C000
03E000
063000
0C1800
000000
008000
077000
0C1800
180C00
380E00
780E00
780F00
780F00
F80F80
F80F80
F80F80
F80F80
F80F80
F80F80
F80F80
780F00
780F00
780F00
380E00
180C00
0C1800
077000
ENDCHAR
STARTCHAR 020F
ENCODING 527
SWIDTH 500 0
DWIDTH 14 0
BBX 12 20 1 0
BITMAP
0E00
1F00
1180
2080
2040
0000
0F00
3180
70C0
70E0
F0E0
F0E0
F0F0
F0F0
F0E0
F0E0
70E0
70C0
3180
0F00
ENDCHAR
STARTCHAR 0210
ENCODING 528
SWIDTH 750 0
DWIDTH 21 0
BBX 19 27 1 1
BITMAP
370000
3B0000
198000
04C000
004000
000000
FFF000
1E1C00
1E0E00
1E0F00
1E0F00
1E0F00
1E0F00
1E0E00
1E1C00
1FE000
1E3000
1E1C00
1E1C00
1E1C00
1E1E00
1E1E00
1E1E20
1E1E20
1E1E20
1E0E40
FFCFC0
ENDCHAR
STARTCHAR 0211
ENCODING 529
SWIDTH 428 0
DWIDTH 12 0
BBX 11 21 1 0
BITMAP
CC00
EE00
7600
3300
1900
0800
0000
FDC0
3EC0
3DE0
3DC0
3CC0
3C00
3C00
3C00
3C00
3C00
3C00
3C00
3C00
FE00
ENDCHAR
STARTCHAR 0212
ENCODING 530
SWIDTH 750 0
DWIDTH 21 0
BBX 19 27 1 0
BITMAP
03C000
07E000
0C7000
081000
001000
000000
FFF000
1E1C00
1E0E00
1E0F00
1E0F00
1E0F00
1E0F00
1E0E00
1E1C00
1FE000
1E3000
1E1C00
1E1C00
1E1C00
1E1E00
1E1E00
1E1E20
1E1E20
1E1E20
1E0E40
FFCFC0
ENDCHAR
STARTCHAR 0213
ENCODING 531
SWIDTH 428 0
DWIDTH 12 0
BBX 10 19 2 0
BITMAP
1E00
3F00
2100
4080
0000
FB80
7D80
7BC0
7B80
7980
7800
7800
7800
7800
7800
7800
7800
7800
FC00
ENDCHAR
STARTCHAR 0214
ENCODING 532
SWIDTH 785 0
DWIDTH 22 0
BBX 19 27 2 1
BITMAP
1DC000
0FC000
066000
033000
011000
000000
FF0FE0
3C0380
3C0100
3C0100
3C0100
3C0100
3C0100
3C0100
3C0100
3C0100
3C0100
3C0100
3C0100
3C0100
3C0100
3C0100
3C0100
1C0100
1C0200
0E0400
07F800
ENDCHAR
STARTCHAR 0215
ENCODING 533
SWIDTH 535 0
DWIDTH 15 0
BBX 14 21 0 0
BITMAP
6600
7600
3300
1900
0C80
0000
0000
FDF8
3C78
3C78
3C78
3C78
3C78
3C78
3C78
3C78
3C78
3C78
3CF8
1D78
0E7C
ENDCHAR
STARTCHAR 0216
ENCODING 534
SWIDTH 785 0
DWIDTH 22 0
BBX 19 27 2 0
BITMAP
00E000
01F000
031800
040C00
040000
000000
FF0FE0
3C0380
3C0100
3C0100
3C0100
3C0100
3C0100
3C0100
3C0100
3C0100
3C0100
3C0100
3C0100
3C0100
3C0100
3C0100
3C0100
1C0100
1C0200
0E0400
07F800
ENDCHAR
STARTCHAR 0217
ENCODING 535
SWIDTH 535 0
DWIDTH 15 0
BBX 14 20 0 0
BITMAP
0700
0F80
08C0
1040
1000
0000
FDF8
3C78
3C78
3C78
3C78
3C78
3C78
3C78
3C78
3C78
3C78
3CF8
1D78
0E7C
ENDCHAR
STARTCHAR 0218
ENCODING 536
SWIDTH 607 0
DWIDTH 17 0
BBX 13 29 3 -7
BITMAP
0400
3B90
40F0
C070
C070
E030
F030
F810
FE10
7F00
3F80
1FE0
0FF0
83F0
81F8
8078
C038
C018
E018
E010
F030
9C40
0380
0700
0700
0780
0100
0100
0600
ENDCHAR
STARTCHAR 0219
ENCODING 537
SWIDTH 464 0
DWIDTH 13 0
BBX 10 20 2 -6
BITMAP
3C80
4380
C180
C180
E080
F800
7E00
3F80
8F80
83C0
C0C0
E0C0
F080
8F00
0000
0E00
1E00
0600
0600
0C00
ENDCHAR
STARTCHAR 021A
ENCODING 538
SWIDTH 714 0
DWIDTH 20 0
BBX 17 28 2 -7
BITMAP
FFFF80
E3CF80
C3C780
C3C380
83C380
83C180
83C180
03C180
03C080
03C000
03C000
03C000
03C000
03C000
03C000
03C000
03C000
03C000
03C000
03C000
1FF800
000000
038000
038000
03C000
008000
008000
030000
ENDCHAR
STARTCHAR 021B
ENCODING 539
SWIDTH 357 0
DWIDTH 10 0
BBX 9 27 0 -7
BITMAP
0800
0800
0800
1800
1800
3800
FF00
3800
3800
3800
3800
3800
3800
3880
3880
3880
3880
3980
3900
1E00
0000
0C00
1E00
0E00
0600
0400
0800
ENDCHAR
STARTCHAR 021C
ENCODING 540
SWIDTH 571 0
DWIDTH 16 0
BBX 13 25 1 -3
BITMAP
0FC0
1FE0
21E0
40F0
00E0
00E0
01C0
0180
0300
07C0
1FE0
3FF0
21F8
00F8
0078
0078
0078
0070
00F0
01E0
01C0
0700
0E00
3800
C000
ENDCHAR
STARTCHAR 021D
ENCODING 541
SWIDTH 428 0
DWIDTH 12 0
BBX 10 21 1 -7
BITMAP
1E00
3F00
6780
8380
0380
0300
0600
0C00
1E00
3F80
4780
03C0
03C0
0380
0380
0700
0700
0E00
3800
6000
8000
ENDCHAR
STARTCHAR 0224
ENCODING 548
SWIDTH 607 0
DWIDTH 17 0
BBX 14 28 2 -7
BITMAP
FFFC
F07C
E0F8
C0F8
C1F0
81F0
83E0
03E0
07C0
07C0
0F80
0F80
1F00
1F00
3E00
3C00
7C00
7800
F800
F000
FFF0
007C
003C
003C
0038
0070
00E0
0300
ENDCHAR
STARTCHAR 0225
ENCODING 549
SWIDTH 428 0
DWIDTH 12 0
BBX 11 20 1 -6
BITMAP
7FE0
61C0
43C0
4380
4780
0F00
0F00
1E00
1C00
3C00
3800
7800
F000
FFC0
01E0
00E0
00C0
0180
0300
0400
ENDCHAR
STARTCHAR 0228
ENCODING 552
SWIDTH 678 0
DWIDTH 19 0
BBX 16 28 1 -7
BITMAP
FFFF
1E07
1E07
1E03
1E01
1E01
1E11
1E10
1E30
1E30
1FF0
1E30
1E30
1E11
1E11
1E01
1E01
1E03
1E07
1E0F
FFFF
0040
00C0
0070
0018
0018
0238
01E0
ENDCHAR
STARTCHAR 0229
ENCODING 553
SWIDTH 464 0
DWIDTH 13 0
BBX 11 21 1 -7
BITMAP
0F00
3380
71C0
71C0
F1C0
F1C0
F1E0
FFE0
F000
F000
7040
7040
3880
1F00
0400
0800
0600
0300
0300
0300
1E00
ENDCHAR
STARTCHAR 0232
ENCODING 562
SWIDTH 714 0
DWIDTH 20 0
BBX 19 25 1 0
BITMAP
03FC00
03FC00
000000
000000
FF9FE0
3E0300
1E0200
1F0200
0F0400
0F8400
078400
078800
07C800
03D000
03D000
01F000
01E000
00E000
00E000
00E000
00E000
00E000
00E000
00E000
07FC00
ENDCHAR
STARTCHAR 0233
ENCODING 563
SWIDTH 500 0
DWIDTH 14 0
BBX 13 26 1 -7
BITMAP
1FC0
1FC0
0000
0000
0000
FCF8
7820
3840
3C40
1C40
1C40
1E80
0E80
0E80
0780
0700
0700
0300
0200
0200
0200
3200
7C00
7400
7400
3800
ENDCHAR
STARTCHAR 0237
ENCODING 567
SWIDTH 321 0
DWIDTH 9 0
BBX 8 21 -1 -7
BITMAP
1F
0F
0F
0F
0F
0F
0F
0F
0F
0F
0F
0F
0F
0F
0F
4F
FF
EF
EE
CE
38
ENDCHAR
STARTCHAR 0243
ENCODING 579
SWIDTH 714 0
DWIDTH 20 0
BBX 17 21 2 0
BITMAP
FFF000
1E1C00
1E0E00
1E0F00
1E0F00
1E0F00
1E0F00
1E0E00
1E0E00
1E1800
1FE000
1E1C00
1E0F00
1E0700
1E0780
FF8780
1E0780
1E0780
1E0700
1E0E00
FFF800
ENDCHAR
STARTCHAR 0254
ENCODING 596
SWIDTH 464 0
DWIDTH 13 0
BBX 10 14 2 0
BITMAP
3C00
4700
8380
8380
03C0
03C0
03C0
03C0
63C0
E3C0
E380
C380
4700
3C00
ENDCHAR
STARTCHAR 0259
ENCODING 601
SWIDTH 464 0
DWIDTH 13 0
BBX 11 14 1 0
BITMAP
3E00
4300
8180
81C0
01C0
01C0
FFE0
F1E0
F1C0
F1C0
71C0
7180
3300
1E00
ENDCHAR
STARTCHAR 025B
ENCODING 603
SWIDTH 428 0
DWIDTH 12 0
BBX 11 14 1 0
BITMAP
1F80
70C0
F0C0
F1E0
F1C0
7000
0E00
7000
F180
F1C0
F0C0
F0C0
7080
3F00
ENDCHAR
STARTCHAR 0280
ENCODING 640
SWIDTH 571 0
DWIDTH 16 0
BBX 13 14 2 0
BITMAP
FF80
79C0
79C0
79E0
79C0
79C0
7E00
7980
79C0
79E0
79E8
79E8
79E8
FCF0
ENDCHAR
STARTCHAR 0292
ENCODING 658
SWIDTH 500 0
DWIDTH 14 0
BBX 13 21 1 -7
BITMAP
7FF0
7FE0
7FE0
6040
4080
4100
0200
0400
0400
0F80
10E0
00F0
0070
0070
6078
F078
E070
E070
C0E0
61C0
1F00
ENDCHAR
STARTCHAR 02BB
ENCODING 699
SWIDTH 285 0
DWIDTH 8 0
BBX 5 7 2 14
BITMAP
10
60
C0
C0
F0
F8
70
ENDCHAR
STARTCHAR 02BC
ENCODING 700
SWIDTH 285 0
DWIDTH 8 0
BBX 4 8 2 14
BITMAP
40
E0
F0
70
30
20
40
80
ENDCHAR
STARTCHAR 02BD
ENCODING 701
SWIDTH 285 0
DWIDTH 8 0
BBX 4 7 2 15
BITMAP
70
F0
E0
C0
40
20
10
ENDCHAR
STARTCHAR 02BE
ENCODING 702
SWIDTH 178 0
DWIDTH 5 0
BBX 3 6 1 16
BITMAP
C0
60
20
20
60
C0
ENDCHAR
STARTCHAR 02BF
ENCODING 703
SWIDTH 178 0
DWIDTH 5 0
BBX 3 6 1 16
BITMAP
60
80
80
80
C0
60
ENDCHAR
STARTCHAR 02C6
ENCODING 710
SWIDTH 428 0
DWIDTH 12 0
BBX 8 5 2 16
BITMAP
18
1C
3C
66
C1
ENDCHAR
STARTCHAR 02C7
ENCODING 711
SWIDTH 428 0
DWIDTH 12 0
BBX 8 5 2 15
BITMAP
81
43
36
3C
18
ENDCHAR
STARTCHAR 02C9
ENCODING 713
SWIDTH 464 0
DWIDTH 13 0
BBX 7 2 3 17
BITMAP
FE
FE
ENDCHAR
STARTCHAR 02CA
ENCODING 714
SWIDTH 428 0
DWIDTH 12 0
BBX 5 5 5 16
BITMAP
18
38
70
60
C0
ENDCHAR
STARTCHAR 02CB
ENCODING 715
SWIDTH 428 0
DWIDTH 12 0
BBX 5 5 2 16
BITMAP
C0
E0
70
30
18
ENDCHAR
STARTCHAR 02D8
ENCODING 728
SWIDTH 428 0
DWIDTH 12 0
BBX 8 5 2 16
BITMAP
81
81
43
7E
3C
ENDCHAR
STARTCHAR 02D9
ENCODING 729
SWIDTH 428 0
DWIDTH 12 0
BBX 4 4 4 16
BITMAP
60
F0
F0
60
ENDCHAR
STARTCHAR 02DA
ENCODING 730
SWIDTH 428 0
DWIDTH 12 0
BBX 6 5 3 17
BITMAP
78
84
84
84
78
ENDCHAR
STARTCHAR 02DB
ENCODING 731
SWIDTH 428 0
DWIDTH 12 0
BBX 5 7 2 -7
BITMAP
10
20
40
C0
C8
F8
70
ENDCHAR
STARTCHAR 02DC
ENCODING 732
SWIDTH 464 0
DWIDTH 13 0
BBX 8 3 2 16
BITMAP
79
FF
8E
ENDCHAR
STARTCHAR 02DD
ENCODING 733
SWIDTH 464 0
DWIDTH 13 0
BBX 9 5 3 16
BITMAP
1980
3B80
3700
6600
CC00
ENDCHAR
STARTCHAR 0300
ENCODING 768
SWIDTH 0 0
DWIDTH 0 0
BBX 5 5 -11 16
BITMAP
C0
E0
70
30
18
ENDCHAR
STARTCHAR 0301
ENCODING 769
SWIDTH 0 0
DWIDTH 0 0
BBX 5 5 -9 16
BITMAP
18
38
70
60
C0
ENDCHAR
STARTCHAR 0302
ENCODING 770
SWIDTH 0 0
DWIDTH 0 0
BBX 8 5 -11 16
BITMAP
18
38
3C
66
83
ENDCHAR
STARTCHAR 0303
ENCODING 771
SWIDTH 0 0
DWIDTH 0 0
BBX 8 3 -11 16
BITMAP
79
FF
8E
ENDCHAR
STARTCHAR 0304
ENCODING 772
SWIDTH 0 0
DWIDTH 0 0
BBX 7 2 -11 17
BITMAP
FE
FE
ENDCHAR
STARTCHAR 0305
ENCODING 773
SWIDTH 0 0
DWIDTH 0 0
BBX 15 2 -14 23
BITMAP
FFFE
FFFE
ENDCHAR
STARTCHAR 0306
ENCODING 774
SWIDTH 0 0
DWIDTH 0 0
BBX 8 5 -11 16
BITMAP
81
82
C2
7E
38
ENDCHAR
STARTCHAR 0307
ENCODING 775
SWIDTH 0 0
DWIDTH 0 0
BBX 4 4 -9 16
BITMAP
60
F0
F0
60
ENDCHAR
STARTCHAR 0308
ENCODING 776
SWIDTH 0 0
DWIDTH 0 0
BBX 9 4 -12 16
BITMAP
6300
F780
F780
6300
ENDCHAR
STARTCHAR 030A
ENCODING 778
SWIDTH 0 0
DWIDTH 0 0
BBX 6 5 -10 17
BITMAP
78
84
84
84
78
ENDCHAR
STARTCHAR 030B
ENCODING 779
SWIDTH 0 0
DWIDTH 0 0
BBX 9 5 -10 16
BITMAP
1980
3B80
3700
6600
CC00
ENDCHAR
STARTCHAR 030C
ENCODING 780
SWIDTH 0 0
DWIDTH 0 0
BBX 8 5 -11 15
BITMAP
81
C6
6C
3C
18
ENDCHAR
STARTCHAR 030F
ENCODING 783
SWIDTH 0 0
DWIDTH 0 0
BBX 9 5 -13 16
BITMAP
CC00
EE00
7600
3300
1980
ENDCHAR
STARTCHAR 0311
ENCODING 785
SWIDTH 0 0
DWIDTH 0 0
BBX 7 4 -11 15
BITMAP
38
7C
C6
82
ENDCHAR
STARTCHAR 0312
ENCODING 786
SWIDTH 0 0
DWIDTH 0 0
BBX 5 7 -9 15
BITMAP
10
60
40
C0
F0
F8
70
ENDCHAR
STARTCHAR 0313
ENCODING 787
SWIDTH 0 0
DWIDTH 0 0
BBX 4 7 -9 15
BITMAP
E0
F0
F0
30
20
60
80
ENDCHAR
STARTCHAR 0314
ENCODING 788
SWIDTH 0 0
DWIDTH 0 0
BBX 4 7 -9 15
BITMAP
70
F0
F0
C0
40
60
10
ENDCHAR
STARTCHAR 0316
ENCODING 790
SWIDTH 0 0
DWIDTH 0 0
BBX 5 5 -11 -6
BITMAP
C0
E0
70
30
18
ENDCHAR
STARTCHAR 0317
ENCODING 791
SWIDTH 0 0
DWIDTH 0 0
BBX 5 5 -9 -6
BITMAP
18
38
70
60
C0
ENDCHAR
STARTCHAR 0323
ENCODING 803
SWIDTH 0 0
DWIDTH 0 0
BBX 4 4 -9 -6
BITMAP
60
F0
F0
60
ENDCHAR
STARTCHAR 0324
ENCODING 804
SWIDTH 0 0
DWIDTH 0 0
BBX 9 4 -12 -6
BITMAP
6300
F780
F780
6300
ENDCHAR
STARTCHAR 0325
ENCODING 805
SWIDTH 0 0
DWIDTH 0 0
BBX 6 6 -10 -7
BITMAP
30
CC
84
84
84
78
ENDCHAR
STARTCHAR 0326
ENCODING 806
SWIDTH 0 0
DWIDTH 0 0
BBX 4 6 -9 -7
BITMAP
E0
E0
F0
20
20
C0
ENDCHAR
STARTCHAR 0327
ENCODING 807
SWIDTH 0 0
DWIDTH 0 0
BBX 5 6 -10 -7
BITMAP
20
40
30
18
18
F0
ENDCHAR
STARTCHAR 0328
ENCODING 808
SWIDTH 0 0
DWIDTH 0 0
BBX 5 7 -11 -7
BITMAP
10
20
40
C0
C8
F8
70
ENDCHAR
STARTCHAR 032C
ENCODING 812
SWIDTH 0 0
DWIDTH 0 0
BBX 8 5 -11 -7
BITMAP
81
C6
6C
3C
18
ENDCHAR
STARTCHAR 032D
ENCODING 813
SWIDTH 0 0
DWIDTH 0 0
BBX 8 5 -11 -6
BITMAP
18
38
3C
66
83
ENDCHAR
STARTCHAR 032E
ENCODING 814
SWIDTH 0 0
DWIDTH 0 0
BBX 8 5 -11 -6
BITMAP
81
82
C2
7E
38
ENDCHAR
STARTCHAR 032F
ENCODING 815
SWIDTH 0 0
DWIDTH 0 0
BBX 7 4 -11 -6
BITMAP
38
7C
C6
82
ENDCHAR
STARTCHAR 0330
ENCODING 816
SWIDTH 0 0
DWIDTH 0 0
BBX 8 3 -11 -5
BITMAP
79
FF
8E
ENDCHAR
STARTCHAR 0331
ENCODING 817
SWIDTH 0 0
DWIDTH 0 0
BBX 7 2 -11 -5
BITMAP
FE
FE
ENDCHAR
STARTCHAR 0332
ENCODING 818
SWIDTH 0 0
DWIDTH 0 0
BBX 15 2 -14 -5
BITMAP
FFFE
FFFE
ENDCHAR
STARTCHAR 0333
ENCODING 819
SWIDTH 0 0
DWIDTH 0 0
BBX 15 6 -14 -8
BITMAP
FFFE
FFFE
0000
0000
FFFE
FFFE
ENDCHAR
STARTCHAR 033E
ENCODING 830
SWIDTH 0 0
DWIDTH 0 0
BBX 3 7 -9 16
BITMAP
C0
60
60
C0
C0
C0
60
ENDCHAR
STARTCHAR 0342
ENCODING 834
SWIDTH 0 0
DWIDTH 0 0
BBX 10 4 -12 16
BITMAP
3040
7C80
9F80
8700
ENDCHAR
STARTCHAR 0343
ENCODING 835
SWIDTH 0 0
DWIDTH 0 0
BBX 4 7 -9 14
BITMAP
60
F0
F0
10
10
20
40
ENDCHAR
STARTCHAR 0344
ENCODING 836
SWIDTH 0 0
DWIDTH 0 0
BBX 10 7 -12 16
BITMAP
0700
0700
0600
0400
EF80
FBC0
E380
ENDCHAR
STARTCHAR 0345
ENCODING 837
SWIDTH 0 0
DWIDTH 0 0
BBX 4 6 -9 -8
BITMAP
60
60
E0
E0
F0
E0
ENDCHAR
STARTCHAR 0351
ENCODING 849
SWIDTH 0 0
DWIDTH 0 0
BBX 3 6 -9 16
BITMAP
60
80
80
80
C0
60
ENDCHAR
STARTCHAR 0357
ENCODING 855
SWIDTH 0 0
DWIDTH 0 0
BBX 3 6 -9 16
BITMAP
C0
60
20
20
60
C0
ENDCHAR
STARTCHAR 0359
ENCODING 857
SWIDTH 0 0
DWIDTH 0 0
BBX 6 7 -10 -8
BITMAP
30
FC
EC
10
EC
FC
30
ENDCHAR
STARTCHAR 035C
ENCODING 860
SWIDTH 0 0
DWIDTH 0 0
BBX 16 4 -8 -7
BITMAP
8001
700E
3FFC
07E0
ENDCHAR
STARTCHAR 035D
ENCODING 861
SWIDTH 0 0
DWIDTH 0 0
BBX 16 4 -8 20
BITMAP
8001
700E
3FFC
07E0
ENDCHAR
STARTCHAR 0361
ENCODING 865
SWIDTH 0 0
DWIDTH 0 0
BBX 16 4 -8 19
BITMAP
0FF0
3FFC
E007
8001
ENDCHAR
STARTCHAR 0363
ENCODING 867
SWIDTH 0 0
DWIDTH 0 0
BBX 8 8 -11 15
BITMAP
78
8C
CC
1C
6C
CC
CD
76
ENDCHAR
STARTCHAR 0364
ENCODING 868
SWIDTH 0 0
DWIDTH 0 0
BBX 7 8 -11 15
BITMAP
38
44
C6
FE
C0
C2
62
3C
ENDCHAR
STARTCHAR 0365
ENCODING 869
SWIDTH 0 0
DWIDTH 0 0
BBX 5 12 -10 15
BITMAP
20
70
70
00
E0
60
60
60
60
60
60
F8
ENDCHAR
STARTCHAR 0366
ENCODING 870
SWIDTH 0 0
DWIDTH 0 0
BBX 7 8 -11 15
BITMAP
38
64
C6
C6
C6
C6
64
38
ENDCHAR
STARTCHAR 0367
ENCODING 871
SWIDTH 0 0
DWIDTH 0 0
BBX 9 8 -12 15
BITMAP
E700
6300
6300
6300
6300
6300
6700
3B80
ENDCHAR
STARTCHAR 0368
ENCODING 872
SWIDTH 0 0
DWIDTH 0 0
BBX 6 8 -11 15
BITMAP
38
64
CC
C8
C0
C0
64
38
ENDCHAR
STARTCHAR 0369
ENCODING 873
SWIDTH 0 0
DWIDTH 0 0
BBX 8 11 -11 15
BITMAP
0E
06
06
36
6E
C6
C6
C6
C6
6E
37
ENDCHAR
STARTCHAR 036A
ENCODING 874
SWIDTH 0 0
DWIDTH 0 0
BBX 9 12 -12 15
BITMAP
E000
6000
6000
6000
6E00
7300
6300
6300
6300
6300
6300
F780
ENDCHAR
STARTCHAR 036B
ENCODING 875
SWIDTH 0 0
DWIDTH 0 0
BBX 12 8 -14 15
BITMAP
ECC0
7760
6660
6660
6660
6660
6660
FFF0
ENDCHAR
STARTCHAR 036C
ENCODING 876
SWIDTH 0 0
DWIDTH 0 0
BBX 7 8 -10 15
BITMAP
EC
76
64
60
60
60
60
F0
ENDCHAR
STARTCHAR 036D
ENCODING 877
SWIDTH 0 0
DWIDTH 0 0
BBX 6 11 -10 15
BITMAP
20
20
60
F8
60
60
60
64
64
64
38
ENDCHAR
STARTCHAR 036E
ENCODING 878
SWIDTH 0 0
DWIDTH 0 0
BBX 8 8 -11 15
BITMAP
F7
62
64
74
38
38
18
10
ENDCHAR
STARTCHAR 036F
ENCODING 879
SWIDTH 0 0
DWIDTH 0 0
BBX 8 8 -11 15
BITMAP
F7
74
38
38
1C
2C
4E
EF
ENDCHAR
STARTCHAR 0374
ENCODING 884
SWIDTH 250 0
DWIDTH 7 0
BBX 5 7 1 14
BITMAP
18
38
30
70
60
40
80
ENDCHAR
STARTCHAR 0375
ENCODING 885
SWIDTH 250 0
DWIDTH 7 0
BBX 5 7 1 -8
BITMAP
08
10
30
70
60
E0
C0
ENDCHAR
STARTCHAR 037A
ENCODING 890
SWIDTH 464 0
DWIDTH 13 0
BBX 3 6 5 -8
BITMAP
40
40
E0
E0
E0
E0
ENDCHAR
STARTCHAR 037E
ENCODING 894
SWIDTH 285 0
DWIDTH 8 0
BBX 5 19 2 -5
BITMAP
60
F0
F0
F0
60
00
00
00
00
70
F8
F8
F8
F8
08
10
10
20
C0
ENDCHAR
STARTCHAR 0384
ENCODING 900
SWIDTH 250 0
DWIDTH 7 0
BBX 5 7 2 14
BITMAP
18
38
30
70
60
40
80
ENDCHAR
STARTCHAR 0385
ENCODING 901
SWIDTH 464 0
DWIDTH 13 0
BBX 9 7 2 16
BITMAP
0600
0600
0E00
0C00
EB80
EB80
E380
ENDCHAR
STARTCHAR 0386
ENCODING 902
SWIDTH 785 0
DWIDTH 22 0
BBX 19 21 2 0
BITMAP
184000
386000
30E000
60E000
40F000
81F000
01F000
01F800
027800
027800
027C00
043C00
043C00
043E00
0FFE00
081E00
081F00
100F00
100F00
300F80
FE7FE0
ENDCHAR
STARTCHAR 0387
ENCODING 903
SWIDTH 285 0
DWIDTH 8 0
BBX 4 4 2 10
BITMAP
60
F0
F0
60
ENDCHAR
STARTCHAR 0388
ENCODING 904
SWIDTH 928 0
DWIDTH 26 0
BBX 22 21 2 0
BITMAP
1BFFFC
38783C
30781C
60780C
40780C
C07804
007844
007840
0078C0
0079C0
007FC0
0079C0
0078C0
007844
007844
007804
007804
00780C
00781C
00783C
03FFFC
ENDCHAR
STARTCHAR 0389
ENCODING 905
SWIDTH 1071 0
DWIDTH 30 0
BBX 27 21 2 0
BITMAP
1BFF7FE0
38780F00
30780F00
60780F00
60780F00
C0780F00
00780F00
00780F00
00780F00
00780F00
007FFF00
00780F00
00780F00
00780F00
00780F00
00780F00
00780F00
00780F00
00780F00
00780F00
03FF7FE0
ENDCHAR
STARTCHAR 038A
ENCODING 906
SWIDTH 678 0
DWIDTH 19 0
BBX 16 21 2 0
BITMAP
1BFF
3878
3078
6078
4078
8078
0078
0078
0078
0078
0078
0078
0078
0078
0078
0078
0078
0078
0078
0078
03FF
ENDCHAR
STARTCHAR 038C
ENCODING 908
SWIDTH 857 0
DWIDTH 24 0
BBX 21 21 2 1
BITMAP
187F00
38C180
71C1C0
6380E0
C780E0
8780F0
0780F0
0F80F8
0F80F8
0F80F8
0F80F8
0F80F8
0F80F8
0F80F8
0780F0
0780F0
0780F0
0380E0
01C1C0
00C180
007F00
ENDCHAR
STARTCHAR 038E
ENCODING 910
SWIDTH 964 0
DWIDTH 27 0
BBX 23 21 3 1
BITMAP
33007C
31C0DE
70E19E
60713E
C0393E
803A3C
001E00
001E00
001E00
001E00
001E00
001E00
001E00
001E00
001E00
001E00
001E00
001E00
001E00
001E00
007F80
ENDCHAR
STARTCHAR 038F
ENCODING 911
SWIDTH 928 0
DWIDTH 26 0
BBX 21 21 3 1
BITMAP
30FF80
31C1C0
73C1E0
67C1F0
C780F0
8F80F8
0F80F8
0F80F8
0F80F8
0F80F8
0F80F8
0780F0
03C1E0
03C1C0
00E380
087708
081408
081408
0FF7F8
0FF7F8
0FF7F8
ENDCHAR
STARTCHAR 0390
ENCODING 912
SWIDTH 321 0
DWIDTH 9 0
BBX 9 22 -1 1
BITMAP
0600
0600
0600
0400
EF80
EB80
E380
0000
1C00
1C00
1C00
1C00
1C00
1800
1800
1000
1000
1000
1900
1F00
1E00
0E00
ENDCHAR
STARTCHAR 0391
ENCODING 913
SWIDTH 785 0
DWIDTH 22 0
BBX 19 21 2 0
BITMAP
004000
006000
00E000
00E000
00F000
01F000
01F000
01F800
027800
027800
027C00
043C00
043C00
083E00
0FFE00
081E00
101F00
100F00
100F00
300F80
FE7FE0
ENDCHAR
STARTCHAR 0392
ENCODING 914
SWIDTH 678 0
DWIDTH 19 0
BBX 17 21 1 0
BITMAP
FFF000
1E1C00
1E0E00
1E0F00
1E0F00
1E0F00
1E0F00
1E0E00
1E0E00
1E1800
1FE000
1E1C00
1E0F00
1E0700
1E0780
1E0780
1E0780
1E0780
1E0F00
1E0E00
FFF800
ENDCHAR
STARTCHAR 0393
ENCODING 915
SWIDTH 642 0
DWIDTH 18 0
BBX 16 21 1 0
BITMAP
FFFF
1E1F
1E0F
1E07
1E07
1E03
1E03
1E03
1E01
1E00
1E00
1E00
1E00
1E00
1E00
1E00
1E00
1E00
1E00
1E00
FFC0
ENDCHAR
STARTCHAR 0394
ENCODING 916
SWIDTH 642 0
DWIDTH 18 0
BBX 16 21 2 0
BITMAP
0180
0180
01C0
03C0
03E0
03E0
05E0
04F0
0CF0
08F0
0878
1078
1078
103C
203C
203C
601E
401E
7FFE
FFFF
FFFF
ENDCHAR
STARTCHAR 0395
ENCODING 917
SWIDTH 678 0
DWIDTH 19 0
BBX 16 21 1 0
BITMAP
FFFF
1E0F
1E07
1E03
1E03
1E01
1E11
1E10
1E30
1E70
1FF0
1E70
1E30
1E11
1E11
1E01
1E01
1E03
1E07
1E0F
FFFF
ENDCHAR
STARTCHAR 0396
ENCODING 918
SWIDTH 678 0
DWIDTH 19 0
BBX 15 21 2 0
BITMAP
7FFE
783E
707C
607C
60F8
40F8
41F0
41F0
03E0
03E0
07C0
07C0
0F80
0F02
1F02
3E02
3E06
7C06
7C0E
F81E
FFFE
ENDCHAR
STARTCHAR 0397
ENCODING 919
SWIDTH 821 0
DWIDTH 23 0
BBX 21 21 1 0
BITMAP
FFDFF8
1E03C0
1E03C0
1E03C0
1E03C0
1E03C0
1E03C0
1E03C0
1E03C0
1E03C0
1FFFC0
1E03C0
1E03C0
1E03C0
1E03C0
1E03C0
1E03C0
1E03C0
1E03C0
1E03C0
FFDFF8
ENDCHAR
STARTCHAR 0398
ENCODING 920
SWIDTH 714 0
DWIDTH 20 0
BBX 17 22 2 0
BITMAP
008000
07F000
0C1800
1C1C00
380E00
780F00
780F00
780F00
FA2F80
FA2F80
FBEF80
FBEF80
FBEF80
FA2F80
FA2F80
780F00
780F00
780F00
380E00
1C1C00
1C1800
07F000
ENDCHAR
STARTCHAR 0399
ENCODING 921
SWIDTH 428 0
DWIDTH 12 0
BBX 10 21 1 0
BITMAP
FFC0
1E00
1E00
1E00
1E00
1E00
1E00
1E00
1E00
1E00
1E00
1E00
1E00
1E00
1E00
1E00
1E00
1E00
1E00
1E00
FFC0
ENDCHAR
STARTCHAR 039A
ENCODING 922
SWIDTH 750 0
DWIDTH 21 0
BBX 19 21 1 0
BITMAP
FF9FC0
1E0700
1E0600
1E0400
1E0800
1E1000
1E3000
1E6000
1EF000
1EF000
1FF800
1E7800
1E7C00
1E3C00
1E3E00
1E1E00
1E1F00
1E0F00
1E0F80
1E0F80
FF9FE0
ENDCHAR
STARTCHAR 039B
ENCODING 923
SWIDTH 785 0
DWIDTH 22 0
BBX 19 21 2 0
BITMAP
004000
006000
00E000
00E000
00F000
01F000
01F000
01F800
027800
027800
027C00
043C00
043C00
0C3E00
081E00
081E00
181F00
100F00
100F00
300F80
FE7FE0
ENDCHAR
STARTCHAR 039C
ENCODING 924
SWIDTH 892 0
DWIDTH 25 0
BBX 23 21 1 0
BITMAP
FE00FE
1E01F0
1F01F0
1F01F0
1F02F0
1F82F0
1782F0
1782F0
17C4F0
13C4F0
13C4F0
11E4F0
11E8F0
11F8F0
10F8F0
10F8F0
10F0F0
1070F0
1070F0
3870F0
FE27FE
ENDCHAR
STARTCHAR 039D
ENCODING 925
SWIDTH 785 0
DWIDTH 22 0
BBX 21 21 1 0
BITMAP
FE0FF8
3F03C0
1F0180
1F8080
0FC080
0FC080
0BE080
0BF080
09F080
08F880
08FC80
087C80
083E80
081F80
081F80
080F80
080780
080780
180380
3C0180
FF8180
ENDCHAR
STARTCHAR 039E
ENCODING 926
SWIDTH 678 0
DWIDTH 19 0
BBX 15 21 2 0
BITMAP
FFFE
FFFE
FFFE
8002
8002
8002
8002
1020
1020
1FE0
1FE0
1FE0
1020
1020
0000
8002
8002
8002
FFFE
FFFE
FFFE
ENDCHAR
STARTCHAR 039F
ENCODING 927
SWIDTH 714 0
DWIDTH 20 0
BBX 17 22 2 0
BITMAP
008000
07F000
0C1800
1C1C00
380E00
780E00
780F00
780F00
F80F80
F80F80
F80F80
F80F80
F80F80
F80F80
F80F80
780F00
780F00
780F00
380E00
1C1C00
0C1800
07F000
ENDCHAR
STARTCHAR 03A0
ENCODING 928
SWIDTH 785 0
DWIDTH 22 0
BBX 20 21 1 0
BITMAP
FFFFF0
1E0780
1E0780
1E0780
1E0780
1E0780
1E0780
1E0780
1E0780
1E0780
1E0780
1E0780
1E0780
1E0780
1E0780
1E0780
1E0780
1E0780
1E0780
1E0780
FF9FF0
ENDCHAR
STARTCHAR 03A1
ENCODING 929
SWIDTH 678 0
DWIDTH 19 0
BBX 17 21 1 0
BITMAP
FFF800
1E0E00
1E0F00
1E0780
1E0780
1E0780
1E0780
1E0780
1E0F00
1E0E00
1FF800
1E0000
1E0000
1E0000
1E0000
1E0000
1E0000
1E0000
1E0000
1E0000
FFC000
ENDCHAR
STARTCHAR 03A3
ENCODING 931
SWIDTH 678 0
DWIDTH 19 0
BBX 15 21 2 0
BITMAP
FFFE
F80E
7C06
3E06
3E06
1F02
1F02
0F80
07C0
07C0
03C0
0380
0100
0202
0402
0802
1802
3006
7FFE
FFFE
FFFE
ENDCHAR
STARTCHAR 03A4
ENCODING 932
SWIDTH 714 0
DWIDTH 20 0
BBX 17 21 2 0
BITMAP
FFFF80
E3C780
E3C780
C3C380
83C180
83C180
83C180
03C100
03C080
03C000
03C000
03C000
03C000
03C000
03C000
03C000
03C000
03C000
03C000
03C000
1FF800
ENDCHAR
STARTCHAR 03A5
ENCODING 933
SWIDTH 714 0
DWIDTH 20 0
BBX 17 21 2 1
BITMAP
C01F00
703780
386780
1C4F80
0E4F80
0E8F00
078000
078000
078000
078000
078000
078000
078000
078000
078000
078000
078000
078000
078000
078000
1FE000
ENDCHAR
STARTCHAR 03A6
ENCODING 934
SWIDTH 821 0
DWIDTH 23 0
BBX 21 21 1 0
BITMAP
03FE00
007800
007800
007800
07FF80
1C79E0
3878F0
707870
F07878
F07878
F07878
F07878
F07878
707870
7878F0
1C79E0
0FFF80
007800
007800
007800
03FE00
ENDCHAR
STARTCHAR 03A7
ENCODING 935
SWIDTH 714 0
DWIDTH 20 0
BBX 19 21 1 0
BITMAP
FF9FC0
3F0700
1F0600
0F0400
0F8800
078800
07D000
03F000
03E000
01F000
01F000
00F800
01F800
037C00
027C00
063E00
043E00
081F00
181F00
381F80
FE3FE0
ENDCHAR
STARTCHAR 03A8
ENCODING 936
SWIDTH 964 0
DWIDTH 27 0
BBX 24 21 2 1
BITMAP
E1FF1F
783C1F
383C3F
3C3C27
3C3C27
3C3C20
3C3C20
3C3C20
3C3C20
3C3C20
3C3C20
1C3C60
1C3C40
0E3CC0
073D80
01FE00
003C00
003C00
003C00
003C00
01FF00
ENDCHAR
STARTCHAR 03A9
ENCODING 937
SWIDTH 750 0
DWIDTH 21 0
BBX 17 22 2 0
BITMAP
008000
0FF800
1C1C00
3C1E00
7C1F00
780F00
F80F80
F80F80
F80F80
F80F80
F80F80
F80F80
780F00
3C1E00
3C1C00
0E3800
877080
814080
814080
FF7F80
FF7F80
FF7F80
ENDCHAR
STARTCHAR 03AA
ENCODING 938
SWIDTH 428 0
DWIDTH 12 0
BBX 9 26 2 0
BITMAP
F780
F780
6300
0000
0000
FF80
1E00
1E00
1E00
1E00
1E00
1E00
1E00
1E00
1E00
1E00
1E00
1E00
1E00
1E00
1E00
1E00
1E00
1E00
1E00
FF80
ENDCHAR
STARTCHAR 03AB
ENCODING 939
SWIDTH 714 0
DWIDTH 20 0
BBX 17 26 2 0
BITMAP
1EF000
1EF000
0C6000
000000
000000
C01F00
703780
386780
1C4F80
0ECF80
0E8F00
078000
078000
078000
078000
078000
078000
078000
078000
078000
078000
078000
078000
078000
078000
1FE000
ENDCHAR
STARTCHAR 03AC
ENCODING 940
SWIDTH 607 0
DWIDTH 17 0
BBX 13 21 2 0
BITMAP
0060
00E0
00E0
00C0
0180
0100
0000
0E38
1F38
3F78
71F0
60F0
C0E0
C1E0
81C0
8380
8388
CF88
FFF8
7E78
3870
ENDCHAR
STARTCHAR 03AD
ENCODING 941
SWIDTH 464 0
DWIDTH 13 0
BBX 10 21 2 0
BITMAP
0380
0380
0700
0600
0C00
0800
0000
3E00
7F80
FF80
E180
8000
9E00
7F00
9E00
8000
8040
E180
FF80
7F00
3E00
ENDCHAR
STARTCHAR 03AE
ENCODING 942
SWIDTH 642 0
DWIDTH 18 0
BBX 15 29 1 -8
BITMAP
0030
0030
0070
0060
00C0
0080
0000
7078
78FC
F9C6
CF82
8782
0782
0702
0706
0706
0F06
0F06
0E0E
0E0C
0E0C
001C
001C
001C
003C
003C
003C
003C
0018
ENDCHAR
STARTCHAR 03AF
ENCODING 943
SWIDTH 285 0
DWIDTH 8 0
BBX 5 21 2 0
BITMAP
18
18
38
30
20
40
00
E0
E0
E0
E0
C0
C0
C0
80
80
80
C8
F8
F0
70
ENDCHAR
STARTCHAR 03B0
ENCODING 944
SWIDTH 535 0
DWIDTH 15 0
BBX 13 23 1 0
BITMAP
0200
0600
0600
0600
0400
FF80
FB80
7380
0000
E180
F0C0
F060
7060
3030
3038
3038
1038
1038
1038
1078
1870
0FE0
07C0
ENDCHAR
STARTCHAR 03B1
ENCODING 945
SWIDTH 607 0
DWIDTH 17 0
BBX 13 14 2 0
BITMAP
0E38
3F38
3F78
7170
60F0
C0E0
C1C0
81C0
8380
8388
CF88
FFF8
7E78
3870
ENDCHAR
STARTCHAR 03B2
ENCODING 946
SWIDTH 535 0
DWIDTH 15 0
BBX 12 29 2 -7
BITMAP
1F80
3FC0
3840
7020
7020
6020
6060
4EE0
4FC0
4F80
4780
4040
4060
4060
4070
6070
60F0
71F0
5FF0
4FE0
47C0
C000
E000
E000
F000
F000
F000
F000
6000
ENDCHAR
STARTCHAR 03B3
ENCODING 947
SWIDTH 535 0
DWIDTH 15 0
BBX 14 22 1 -8
BITMAP
607C
F078
F8F0
F8E0
99C0
8D80
0580
0500
0600
0200
0200
0200
0200
0700
0700
0700
0780
0780
0780
0780
0780
0300
ENDCHAR
STARTCHAR 03B4
ENCODING 948
SWIDTH 535 0
DWIDTH 15 0
BBX 11 22 2 0
BITMAP
2000
FC00
FF00
FFC0
8FE0
C3E0
20E0
1800
1E00
3F80
7FC0
FC40
F020
E020
C060
8060
80E0
83E0
C7C0
7FC0
3F80
1F00
ENDCHAR
STARTCHAR 03B5
ENCODING 949
SWIDTH 464 0
DWIDTH 13 0
BBX 10 14 2 0
BITMAP
3E00
7F80
FF80
C180
8000
9E00
7F00
9E00
8000
8040
C180
FF80
7F00
3E00
ENDCHAR
STARTCHAR 03B6
ENCODING 950
SWIDTH 535 0
DWIDTH 15 0
BBX 12 26 2 -4
BITMAP
C3C0
C7C0
CFC0
7F80
3C00
2000
6000
4000
4000
C000
8000
8000
8000
8000
8000
8000
8000
C000
7FC0
7FE0
3FF0
0030
0010
0E30
0FE0
07C0
ENDCHAR
STARTCHAR 03B7
ENCODING 951
SWIDTH 642 0
DWIDTH 18 0
BBX 15 22 1 -8
BITMAP
7078
78FC
F9C6
CF82
8782
0782
0702
0706
0706
0F06
0F06
0E0E
0E0C
0E0C
001C
001C
001C
003C
003C
003C
003C
0018
ENDCHAR
STARTCHAR 03B8
ENCODING 952
SWIDTH 642 0
DWIDTH 18 0
BBX 17 21 1 0
BITMAP
0F0000
19C000
30C000
306000
306000
307000
187000
047000
027000
71FF80
F07380
B87380
B87100
387000
387000
387000
387000
386000
386000
1CC000
0F8000
ENDCHAR
STARTCHAR 03B9
ENCODING 953
SWIDTH 285 0
DWIDTH 8 0
BBX 5 14 2 0
BITMAP
E0
E0
E0
E0
C0
C0
C0
80
80
80
C8
F8
F0
70
ENDCHAR
STARTCHAR 03BA
ENCODING 954
SWIDTH 571 0
DWIDTH 16 0
BBX 14 14 1 0
BITMAP
3830
7C78
7C78
FC70
8CF0
85E0
07C0
07C0
0F40
1E44
3C64
7C7C
787C
3038
ENDCHAR
STARTCHAR 03BB
ENCODING 955
SWIDTH 535 0
DWIDTH 15 0
BBX 14 21 1 0
BITMAP
7000
FC00
FC00
7E00
0600
0200
0200
0200
0300
0700
0700
0F00
0F00
1E80
1E80
3CC0
3CE0
78F0
7878
F07C
F038
ENDCHAR
STARTCHAR 03BC
ENCODING 956
SWIDTH 607 0
DWIDTH 17 0
BBX 14 22 2 -8
BITMAP
60C0
F1E0
F1E0
F1E0
F1E0
F1E0
E1E0
E1E0
E0C4
40C4
40C4
41FC
77FC
5F38
4000
C000
E000
E000
F000
F000
F000
6000
ENDCHAR
STARTCHAR 03BD
ENCODING 957
SWIDTH 500 0
DWIDTH 14 0
BBX 12 14 1 0
BITMAP
C040
E060
F060
7070
3870
18F0
08F0
09E0
07E0
07C0
07C0
0780
0700
0C00
ENDCHAR
STARTCHAR 03BE
ENCODING 958
SWIDTH 464 0
DWIDTH 13 0
BBX 10 26 2 -4
BITMAP
C7C0
EFC0
1FC0
3000
6000
4000
4000
4780
3FC0
3FC0
7F80
6000
C000
8000
8000
8000
8000
C000
FF80
7FC0
3FC0
00C0
0040
18C0
1F80
1F00
ENDCHAR
STARTCHAR 03BF
ENCODING 959
SWIDTH 500 0
DWIDTH 14 0
BBX 11 14 2 0
BITMAP
1F00
3F80
7FC0
FC40
F020
E020
C060
C060
80E0
83E0
C7C0
7FC0
3F80
1F00
ENDCHAR
STARTCHAR 03C0
ENCODING 960
SWIDTH 642 0
DWIDTH 18 0
BBX 16 14 1 0
BITMAP
1FFF
3FFF
7FFF
4220
8220
8220
0620
0620
0E21
1E33
3E3F
3E3E
3E3E
1C1C
ENDCHAR
STARTCHAR 03C1
ENCODING 961
SWIDTH 500 0
DWIDTH 14 0
BBX 11 22 2 -8
BITMAP
0F00
1F80
3FC0
7E40
7820
7020
6060
6060
40E0
41E0
67C0
7FC0
5F80
4F00
6000
E000
F000
F000
F800
F800
F800
7000
ENDCHAR
STARTCHAR 03C2
ENCODING 962
SWIDTH 464 0
DWIDTH 13 0
BBX 10 19 2 -5
BITMAP
0780
1FC0
3FC0
7FC0
4000
C000
8000
8000
8000
8000
C000
FF80
7FC0
3FC0
00C0
0040
18C0
1F80
1F00
ENDCHAR
STARTCHAR 03C3
ENCODING 963
SWIDTH 571 0
DWIDTH 16 0
BBX 13 14 2 0
BITMAP
1FF8
3FF8
7FF8
E100
C080
8040
8040
8060
8060
C0E0
E1E0
7FC0
3FC0
0F00
ENDCHAR
STARTCHAR 03C4
ENCODING 964
SWIDTH 500 0
DWIDTH 14 0
BBX 12 14 1 0
BITMAP
1FF0
3FF0
7FF0
4200
8200
8200
0200
0200
0220
0320
03E0
03E0
03E0
01C0
ENDCHAR
STARTCHAR 03C5
ENCODING 965
SWIDTH 535 0
DWIDTH 15 0
BBX 13 14 1 0
BITMAP
E080
F0C0
F060
7070
3030
3038
3038
1038
1038
1038
1078
1870
0FE0
07C0
ENDCHAR
STARTCHAR 03C6
ENCODING 966
SWIDTH 607 0
DWIDTH 17 0
BBX 14 22 2 -8
BITMAP
3870
7CF8
7DFC
F98C
E304
8304
8304
820C
C20C
C218
7278
7FF0
3FE0
0FC0
0200
0200
0300
0300
0780
0780
0780
0300
ENDCHAR
STARTCHAR 03C7
ENCODING 967
SWIDTH 607 0
DWIDTH 17 0
BBX 17 22 1 -8
BITMAP
703C00
F83C00
F83800
7C7800
047000
04F000
02F000
01E000
01E000
01C000
03C000
038000
078000
078000
0F4000
0E4000
1E2000
1C3000
3C1F00
381F80
780F80
700700
ENDCHAR
STARTCHAR 03C8
ENCODING 968
SWIDTH 642 0
DWIDTH 18 0
BBX 15 30 2 -8
BITMAP
0080
01C0
03E0
03E0
03E0
03E0
03C0
03C0
33C8
7BC4
F984
F986
F186
C186
C106
810E
810E
C11C
717C
3FF8
3FF0
0FE0
0100
0100
0380
0380
03C0
03C0
03C0
0180
ENDCHAR
STARTCHAR 03C9
ENCODING 969
SWIDTH 678 0
DWIDTH 19 0
BBX 17 14 1 0
BITMAP
301800
780C00
780600
F18700
F3C300
E3C380
E3C380
E3C380
E3C380
E18380
618700
710700
3B8E00
1C7C00
ENDCHAR
STARTCHAR 03CA
ENCODING 970
SWIDTH 357 0
DWIDTH 10 0
BBX 9 20 0 0
BITMAP
7300
F780
F780
0000
0000
0000
1C00
1C00
1C00
1C00
1800
1800
1000
1000
1000
1000
1900
1F00
1E00
0E00
ENDCHAR
STARTCHAR 03CB
ENCODING 971
SWIDTH 535 0
DWIDTH 15 0
BBX 13 20 1 0
BITMAP
7300
F780
F780
0000
0000
0000
E100
F0C0
F060
7060
3030
3038
3038
1038
1038
1038
1078
1870
0FE0
07C0
ENDCHAR
STARTCHAR 03CC
ENCODING 972
SWIDTH 500 0
DWIDTH 14 0
BBX 11 21 2 0
BITMAP
0180
0380
0380
0300
0600
0400
0000
1F00
3F80
7FC0
FC40
F020
E020
C060
C060
80E0
83E0
C7C0
7FC0
3F80
1F00
ENDCHAR
STARTCHAR 03CD
ENCODING 973
SWIDTH 535 0
DWIDTH 15 0
BBX 13 21 1 0
BITMAP
0300
0300
0700
0600
0400
0800
0000
E080
F0C0
F060
7070
3030
3038
3038
1038
1038
1038
1078
1870
0FE0
07C0
ENDCHAR
STARTCHAR 03CE
ENCODING 974
SWIDTH 678 0
DWIDTH 19 0
BBX 17 21 1 0
BITMAP
007000
007000
00E000
01C000
018000
030000
000000
301800
780C00
780600
F18700
F3C300
E3C380
E3C380
E3C380
E3C380
E18380
618700
710700
3B8E00
1C7C00
ENDCHAR
STARTCHAR 03CF
ENCODING 975
SWIDTH 750 0
DWIDTH 21 0
BBX 19 29 1 -8
BITMAP
FF9FC0
1E0700
1E0600
1E0400
1E0800
1E1000
1E2000
1E6000
1EF000
1EF800
1FF800
1E7C00
1E7C00
1E3E00
1E1E00
1E1F00
1E0F80
1E0F80
1E07C0
1E07C0
FF83E0
0007E0
000FC0
009F80
007F00
003E00
001C00
000800
000400
ENDCHAR
STARTCHAR 03D0
ENCODING 976
SWIDTH 500 0
DWIDTH 14 0
BBX 12 21 1 1
BITMAP
07E0
0870
1070
2070
30E0
4FC0
4000
4000
8000
9E00
FF00
F880
F0C0
E0C0
E0C0
C1C0
C1C0
43C0
67C0
3F80
1F00
ENDCHAR
STARTCHAR 03D1
ENCODING 977
SWIDTH 571 0
DWIDTH 16 0
BBX 17 21 1 0
BITMAP
0F0000
19C000
30C000
306000
306000
307000
187000
047000
027000
71FF80
F07380
B87380
B87100
387000
387000
387000
387000
386000
386000
1CC000
0F8000
ENDCHAR
STARTCHAR 03D2
ENCODING 978
SWIDTH 714 0
DWIDTH 20 0
BBX 17 21 2 1
BITMAP
C01F00
703780
386780
1C4F80
0E4F80
0E8F00
078000
078000
078000
078000
078000
078000
078000
078000
078000
078000
078000
078000
078000
078000
1FE000
ENDCHAR
STARTCHAR 03D3
ENCODING 979
SWIDTH 964 0
DWIDTH 27 0
BBX 23 21 3 1
BITMAP
33007C
31C0DE
70E19E
60713E
C0393E
803A3C
001E00
001E00
001E00
001E00
001E00
001E00
001E00
001E00
001E00
001E00
001E00
001E00
001E00
001E00
007F80
ENDCHAR
STARTCHAR 03D4
ENCODING 980
SWIDTH 714 0
DWIDTH 20 0
BBX 17 26 2 0
BITMAP
1EF000
1EF000
0C6000
000000
000000
C01F00
703780
386780
1C4F80
0ECF80
0E8F00
078000
078000
078000
078000
078000
078000
078000
078000
078000
078000
078000
078000
078000
078000
1FE000
ENDCHAR
STARTCHAR 03D5
ENCODING 981
SWIDTH 607 0
DWIDTH 17 0
BBX 14 30 2 -8
BITMAP
0200
0700
0700
0700
0700
0700
0200
0200
0FC0
3FF0
7FF8
7E08
FA04
E204
C204
820C
821C
827C
C3F8
7FF0
3FE0
1F80
0200
0200
0200
0700
0700
0700
0700
0700
ENDCHAR
STARTCHAR 03D6
ENCODING 982
SWIDTH 785 0
DWIDTH 22 0
BBX 20 14 1 0
BITMAP
3FFFF0
7FFFF0
FFFFF0
980180
980180
B860C0
30F0E0
30F0E0
30F0E0
30F0E0
30E0E0
1861C0
0C6380
079F00
ENDCHAR
STARTCHAR 03D7
ENCODING 983
SWIDTH 571 0
DWIDTH 16 0
BBX 14 20 1 -6
BITMAP
3830
7C78
7C78
FC70
8CF0
85E0
07C0
07C0
0F40
1E44
3C64
7C7C
787C
303C
0008
0008
0708
07F0
07E0
03C0
ENDCHAR
STARTCHAR 03D8
ENCODING 984
SWIDTH 678 0
DWIDTH 19 0
BBX 17 21 1 1
BITMAP
0FF800
1C1C00
3C1E00
780F00
F80F80
F80F80
F80F80
F80F80
F80F80
780F00
7C1F00
1C1E00
0F3800
01E000
01E000
01E000
01E000
01E000
01E000
01E000
0FF800
ENDCHAR
STARTCHAR 03D9
ENCODING 985
SWIDTH 500 0
DWIDTH 14 0
BBX 11 22 2 -8
BITMAP
1F00
3F80
7FC0
FC40
F020
E020
C060
C060
80E0
83E0
C7C0
7FC0
3F80
1F00
0400
0400
0400
0C00
0E00
0E00
0E00
0E00
ENDCHAR
STARTCHAR 03DA
ENCODING 986
SWIDTH 607 0
DWIDTH 17 0
BBX 15 21 2 1
BITMAP
1FF2
3FFE
7FFC
C078
8000
8000
8000
8000
8000
C000
6000
3000
1FC0
03C0
03C0
03C0
03C0
03C0
03C0
03C0
0FF0
ENDCHAR
STARTCHAR 03DB
ENCODING 987
SWIDTH 500 0
DWIDTH 14 0
BBX 12 21 2 -4
BITMAP
0010
0010
07F0
1FF0
3FE0
7FC0
6000
C000
8000
8000
8000
8000
C000
FF80
7FC0
3FC0
00C0
0040
18C0
1F80
1F00
ENDCHAR
STARTCHAR 03DC
ENCODING 988
SWIDTH 678 0
DWIDTH 19 0
BBX 17 21 1 0
BITMAP
FFFF80
1E0F80
1E0780
1E0380
1E0180
1E0180
1E0180
1E0180
1E0080
1FF000
1E7000
1E3000
1E3000
1E1000
1E1000
1E0000
1E0000
1E0000
1E0000
1E0000
FFC000
ENDCHAR
STARTCHAR 03DD
ENCODING 989
SWIDTH 535 0
DWIDTH 15 0
BBX 15 22 -1 -8
BITMAP
07FE
07FE
07FC
0400
0400
0400
0400
07FC
07FC
07F8
0400
0400
0400
0400
0400
0400
0400
0400
E400
E400
FC00
7800
ENDCHAR
STARTCHAR 03DE
ENCODING 990
SWIDTH 678 0
DWIDTH 19 0
BBX 17 21 1 1
BITMAP
780000
FC0000
FC0000
E40000
040200
040E00
0C1C00
087C00
09FC00
0FFC00
1FF800
1FE800
1FC800
1F1800
1C1000
301000
201000
001380
001F80
001F80
000F00
ENDCHAR
STARTCHAR 03DF
ENCODING 991
SWIDTH 392 0
DWIDTH 11 0
BBX 10 26 0 -5
BITMAP
3000
7800
F800
9800
0800
1000
1000
2000
2000
3FC0
7FC0
7FC0
0040
0080
0180
0180
0380
0300
0700
0700
0E00
0E00
1E00
1E00
1C00
0800
ENDCHAR
STARTCHAR 03E0
ENCODING 992
SWIDTH 750 0
DWIDTH 21 0
BBX 18 21 1 1
BITMAP
1FC000
3FE000
7FF800
61FC00
407C00
403E00
407F00
404F80
608F80
211780
0333C0
0223C0
0441C0
08C1C0
1980C0
1110C0
2278C0
4678C0
C47080
007180
003F00
ENDCHAR
STARTCHAR 03E1
ENCODING 993
SWIDTH 535 0
DWIDTH 15 0
BBX 16 25 -2 -5
BITMAP
E000
FC00
1F00
0380
01E0
0070
0030
0078
01DC
078C
0E06
000E
003E
00F3
01C3
0183
0003
0003
0003
0003
0003
0006
0006
0006
0004
ENDCHAR
STARTCHAR 03F0
ENCODING 1008
SWIDTH 535 0
DWIDTH 15 0
BBX 14 14 1 0
BITMAP
3830
7C78
7C78
FC70
8CF0
85E0
07C0
07C0
0F40
1E44
3C64
7C7C
787C
3038
ENDCHAR
STARTCHAR 03F1
ENCODING 1009
SWIDTH 500 0
DWIDTH 14 0
BBX 11 22 2 -8
BITMAP
0F00
1F80
3FC0
7E40
7820
7020
6060
6060
40E0
41E0
67C0
7FC0
5F80
4F00
6000
E000
F000
F000
F800
F800
F800
7000
ENDCHAR
STARTCHAR 03F2
ENCODING 1010
SWIDTH 428 0
DWIDTH 12 0
BBX 10 14 1 0
BITMAP
0F00
38C0
7840
7000
F000
F000
F000
F000
F000
F000
7000
7840
38C0
0F00
ENDCHAR
STARTCHAR 03F3
ENCODING 1011
SWIDTH 321 0
DWIDTH 9 0
BBX 8 27 -1 -7
BITMAP
06
0F
0F
06
00
00
1F
07
07
07
07
07
07
07
07
07
07
07
07
07
07
67
F7
F7
E6
66
38
ENDCHAR
STARTCHAR 03F4
ENCODING 1012
SWIDTH 714 0
DWIDTH 20 0
BBX 17 22 2 0
BITMAP
008000
07F000
0C1800
1C1C00
380E00
780E00
780F00
780F00
F80F80
F80F80
F80F80
FFFF80
F80F80
F80F80
F80F80
780F00
780F00
780F00
380E00
181C00
0C1800
07F000
ENDCHAR
STARTCHAR 03F5
ENCODING 1013
SWIDTH 428 0
DWIDTH 12 0
BBX 10 14 1 0
BITMAP
0F00
38C0
7840
7000
F000
F000
FF80
F000
F000
F000
7000
7840
38C0
0F00
ENDCHAR
STARTCHAR 03F6
ENCODING 1014
SWIDTH 428 0
DWIDTH 12 0
BBX 10 14 1 0
BITMAP
3C00
C700
8780
0380
03C0
03C0
7FC0
03C0
03C0
03C0
0380
8780
C700
3C00
ENDCHAR
STARTCHAR 03F9
ENCODING 1017
SWIDTH 642 0
DWIDTH 18 0
BBX 15 21 2 1
BITMAP
07F0
1C08
3C04
3804
7802
7800
F800
F800
F800
F800
F800
F800
F800
F800
F800
7800
7802
3804
3C04
1C08
07F0
ENDCHAR
STARTCHAR 0400
ENCODING 1024
SWIDTH 678 0
DWIDTH 19 0
BBX 16 27 1 1
BITMAP
0600
0700
0300
0180
0000
0000
FFFF
1E0F
1E07
1E03
1E03
1E01
1E11
1E10
1E30
1E30
1FF0
1E30
1E30
1E11
1E11
1E01
1E01
1E03
1E07
1E0F
FFFF
ENDCHAR
STARTCHAR 0401
ENCODING 1025
SWIDTH 678 0
DWIDTH 19 0
BBX 16 27 1 0
BITMAP
0618
0F3C
0F3C
0618
0000
0000
FFFF
1E0F
1E07
1E03
1E03
1E01
1E11
1E10
1E30
1E30
1FF0
1E30
1E30
1E11
1E11
1E01
1E01
1E03
1E07
1E0F
FFFF
ENDCHAR
STARTCHAR 0402
ENCODING 1026
SWIDTH 821 0
DWIDTH 23 0
BBX 21 21 2 0
BITMAP
FFFF80
E3C780
C3C380
83C180
83C180
83C080
03C080
03C080
03C000
03CF80
03F1E0
03C0E0
03C070
03C070
03C078
03C078
03CE78
03CE70
03DE70
03CCE0
1FCFC0
ENDCHAR
STARTCHAR 0403
ENCODING 1027
SWIDTH 642 0
DWIDTH 18 0
BBX 16 27 1 1
BITMAP
0030
0070
00E0
0080
0000
0000
FFFF
1E1F
1E0F
1E07
1E07
1E03
1E03
1E03
1E01
1E00
1E00
1E00
1E00
1E00
1E00
1E00
1E00
1E00
1E00
1E00
FFC0
ENDCHAR
STARTCHAR 0404
ENCODING 1028
SWIDTH 642 0
DWIDTH 18 0
BBX 15 21 2 1
BITMAP
0FE4
1C1C
3C0C
780C
7804
7804
F804
F804
F800
F800
FFE0
F800
F800
F81C
783E
783E
783E
381E
3C0E
1C0C
0778
ENDCHAR
STARTCHAR 0405
ENCODING 1029
SWIDTH 607 0
DWIDTH 17 0
BBX 13 22 3 0
BITMAP
0400
3B90
40F0
C070
C070
E030
F030
F810
FE10
7F00
3F80
1FE0
0FF0
83F0
81F8
8078
C038
C018
E018
E010
F030
9FC0
ENDCHAR
STARTCHAR 0406
ENCODING 1030
SWIDTH 392 0
DWIDTH 11 0
BBX 9 21 1 0
BITMAP
FF80
1E00
1E00
1E00
1E00
1E00
1E00
1E00
1E00
1E00
1E00
1E00
1E00
1E00
1E00
1E00
1E00
1E00
1E00
1E00
FF80
ENDCHAR
STARTCHAR 0407
ENCODING 1031
SWIDTH 464 0
DWIDTH 13 0
BBX 10 27 2 0
BITMAP
6180
F3C0
F3C0
6180
0000
0000
FFC0
1E00
1E00
1E00
1E00
1E00
1E00
1E00
1E00
1E00
1E00
1E00
1E00
1E00
1E00
1E00
1E00
1E00
1E00
1E00
FFC0
ENDCHAR
STARTCHAR 0408
ENCODING 1032
SWIDTH 535 0
DWIDTH 15 0
BBX 13 21 1 0
BITMAP
0FF8
01E0
01E0
01E0
01E0
01E0
01E0
01E0
01E0
01E0
01E0
01E0
01E0
71E0
F9E0
F9E0
F9C0
E1C0
C1C0
4180
3700
ENDCHAR
STARTCHAR 0409
ENCODING 1033
SWIDTH 1035 0
DWIDTH 29 0
BBX 27 21 1 0
BITMAP
0FFFF000
00C78000
00878000
00878000
00878000
00878000
00878000
00878000
00878000
0087FE00
00878380
008783C0
018781C0
010781E0
010781E0
710781E0
F10781E0
F30781E0
F20783C0
F4078380
781FFE00
ENDCHAR
STARTCHAR 040A
ENCODING 1034
SWIDTH 1071 0
DWIDTH 30 0
BBX 28 21 1 0
BITMAP
FFDFF800
1E03C000
1E03C000
1E03C000
1E03C000
1E03C000
1E03C000
1E03C000
1E03C000
1FFFFF00
1E03C1C0
1E03C1E0
1E03C0E0
1E03C0F0
1E03C0F0
1E03C0F0
1E03C0F0
1E03C0E0
1E03C1E0
1E03C1C0
FFDFFF00
ENDCHAR
STARTCHAR 040B
ENCODING 1035
SWIDTH 892 0
DWIDTH 25 0
BBX 23 21 2 0
BITMAP
FFFF80
E3C380
C3C180
83C180
83C080
83C080
03C080
03C000
03C000
03FF80
03C0E0
03C0E0
03C0F0
03C0F0
03C0F0
03C0F0
03C0F0
03C0F0
03C0F0
03C0F0
1FF3FE
ENDCHAR
STARTCHAR 040C
ENCODING 1036
SWIDTH 750 0
DWIDTH 21 0
BBX 19 27 1 1
BITMAP
001800
003800
007000
004000
000000
000000
FFC780
1E0BC0
1E0BC0
1E0FC0
1E0FC0
1E0F80
1E0800
1E0800
1E1800
1E1000
1FF000
1E1C00
1E0E00
1E0E00
1E0E00
1E0F00
1E0F20
1E0F20
1E0F20
1E0F60
FFC7C0
ENDCHAR
STARTCHAR 040D
ENCODING 1037
SWIDTH 785 0
DWIDTH 22 0
BBX 20 27 1 1
BITMAP
038000
038000
00C000
006000
002000
000000
FFDFF0
1E03C0
1E03C0
1E07C0
1E07C0
1E0FC0
1E0BC0
1E13C0
1E13C0
1E23C0
1E23C0
1E43C0
1E43C0
1E83C0
1E83C0
1F03C0
1F03C0
1E03C0
1E03C0
1E03C0
FFDFF0
ENDCHAR
STARTCHAR 040E
ENCODING 1038
SWIDTH 750 0
DWIDTH 21 0
BBX 20 27 1 1
BITMAP
038700
038700
038700
030300
018600
007800
FFEFF0
1F8180
0F8180
078100
07C100
07C300
03E200
03E200
01E400
01F400
00F400
00F800
007800
007800
003000
0E3000
1F1000
1F2000
1F2000
1E4000
0F8000
ENDCHAR
STARTCHAR 040F
ENCODING 1039
SWIDTH 750 0
DWIDTH 21 0
BBX 19 28 1 -7
BITMAP
FFDFE0
1E0780
1E0780
1E0780
1E0780
1E0780
1E0780
1E0780
1E0780
1E0780
1E0780
1E0780
1E0780
1E0780
1E0780
1E0780
1E0780
1E0780
1E0780
1E0780
FFFFE0
006000
006000
007000
007000
00F000
00F000
007000
ENDCHAR
STARTCHAR 0410
ENCODING 1040
SWIDTH 785 0
DWIDTH 22 0
BBX 19 21 2 0
BITMAP
004000
006000
00E000
00E000
00F000
01F000
01F000
01F800
027800
027800
027C00
043C00
043C00
043E00
0FFE00
081E00
081F00
100F00
100F00
300F80
FE7FE0
ENDCHAR
STARTCHAR 0411
ENCODING 1041
SWIDTH 678 0
DWIDTH 19 0
BBX 17 21 1 0
BITMAP
FFFF00
1E0F00
1E0700
1E0700
1E0300
1E0300
1E0100
1E0100
1E0000
1E0000
1FF800
1E0E00
1E0700
1E0780
1E0780
1E0780
1E0780
1E0780
1E0F00
1E0E00
FFF800
ENDCHAR
STARTCHAR 0412
ENCODING 1042
SWIDTH 678 0
DWIDTH 19 0
BBX 17 21 1 0
BITMAP
FFF000
1E1C00
1E0E00
1E0F00
1E0F00
1E0F00
1E0F00
1E0E00
1E0E00
1E1800
1FE000
1E1C00
1E0F00
1E0700
1E0780
1E0780
1E0780
1E0780
1E0700
1E0E00
FFF800
ENDCHAR
STARTCHAR 0413
ENCODING 1043
SWIDTH 642 0
DWIDTH 18 0
BBX 16 21 1 0
BITMAP
FFFF
1E1F
1E0F
1E07
1E07
1E03
1E03
1E03
1E01
1E00
1E00
1E00
1E00
1E00
1E00
1E00
1E00
1E00
1E00
1E00
FFC0
ENDCHAR
STARTCHAR 0414
ENCODING 1044
SWIDTH 750 0
DWIDTH 21 0
BBX 19 27 1 -6
BITMAP
1FFFC0
031E00
021E00
021E00
021E00
021E00
021E00
021E00
021E00
021E00
021E00
041E00
041E00
041E00
041E00
041E00
0C1E00
081E00
081E00
081E00
1FFE00
F001E0
E000E0
C00060
800060
800020
800020
ENDCHAR
STARTCHAR 0415
ENCODING 1045
SWIDTH 678 0
DWIDTH 19 0
BBX 16 21 1 0
BITMAP
FFFF
1E0F
1E07
1E03
1E03
1E01
1E11
1E10
1E30
1E30
1FF0
1E30
1E30
1E11
1E11
1E01
1E01
1E03
1E07
1E0F
FFFF
ENDCHAR
STARTCHAR 0416
ENCODING 1046
SWIDTH 1000 0
DWIDTH 28 0
BBX 26 21 1 1
BITMAP
3CFFCF00
7C1E1780
7A1E1780
7E1E1F80
7E1E1F80
3E1E1F00
021E1000
021E1000
021E3000
011E2000
01FFE000
071E3800
0E1E1C00
0E1E1C00
1E1E1C00
1E1E1E00
9E1E1E40
9E1E1E40
9E1E1E40
DE1E1EC0
7CFFCF80
ENDCHAR
STARTCHAR 0417
ENCODING 1047
SWIDTH 642 0
DWIDTH 18 0
BBX 15 22 2 0
BITMAP
0100
4EF0
7838
7038
603C
603C
403C
403C
4038
0070
0FC0
0070
003C
383C
7C3E
FC3E
FC3E
F83E
F03E
603C
7078
1DE0
ENDCHAR
STARTCHAR 0418
ENCODING 1048
SWIDTH 785 0
DWIDTH 22 0
BBX 20 21 1 0
BITMAP
FFDFF0
1E03C0
1E03C0
1E07C0
1E07C0
1E0FC0
1E0BC0
1E13C0
1E13C0
1E23C0
1E23C0
1E43C0
1E43C0
1E83C0
1E83C0
1F03C0
1F03C0
1E03C0
1E03C0
1E03C0
FFDFF0
ENDCHAR
STARTCHAR 0419
ENCODING 1049
SWIDTH 785 0
DWIDTH 22 0
BBX 20 27 1 1
BITMAP
070F00
078F00
070700
060300
030600
00F800
FFDFF0
1E0380
1E0380
1E0780
1E0780
1E0B80
1E0B80
1E1380
1E1380
1E3380
1E2380
1E6380
1E4380
1E4380
1E8380
1E8380
1F0380
1F0380
1E0380
1E0380
FFDFF0
ENDCHAR
STARTCHAR 041A
ENCODING 1050
SWIDTH 750 0
DWIDTH 21 0
BBX 19 21 1 1
BITMAP
FFC780
1E0BC0
1E0BC0
1E0FC0
1E0FC0
1E0F80
1E0800
1E0800
1E1800
1E1000
1FF000
1E1C00
1E0E00
1E0E00
1E0E00
1E0F00
1E0F20
1E0F20
1E0F20
1E0F60
FFC7C0
ENDCHAR
STARTCHAR 041B
ENCODING 1051
SWIDTH 785 0
DWIDTH 22 0
BBX 19 21 1 0
BITMAP
0FFFE0
00C780
008780
008780
008780
008780
008780
008780
008780
008780
008780
008780
018780
010780
010780
710780
F10780
F30780
F20780
F40780
781FE0
ENDCHAR
STARTCHAR 041C
ENCODING 1052
SWIDTH 892 0
DWIDTH 25 0
BBX 23 21 1 0
BITMAP
FE00FE
1E00F0
1F01F0
1F01F0
1F01F0
1F81F0
1782F0
17C2F0
17C2F0
13C4F0
13E4F0
11E4F0
11E4F0
11F8F0
10F8F0
10F8F0
10F8F0
1070F0
1070F0
3830F0
FE23FE
ENDCHAR
STARTCHAR 041D
ENCODING 1053
SWIDTH 785 0
DWIDTH 22 0
BBX 20 21 1 0
BITMAP
FFDFF0
1E03C0
1E03C0
1E03C0
1E03C0
1E03C0
1E03C0
1E03C0
1E03C0
1E03C0
1FFFC0
1E03C0
1E03C0
1E03C0
1E03C0
1E03C0
1E03C0
1E03C0
1E03C0
1E03C0
FFDFF0
ENDCHAR
STARTCHAR 041E
ENCODING 1054
SWIDTH 714 0
DWIDTH 20 0
BBX 17 22 2 0
BITMAP
008000
077000
0C1800
180C00
380E00
780E00
780F00
780F00
F80F80
F80F80
F80F80
F80F80
F80F80
F80F80
F80F80
780F00
780F00
780F00
380E00
180C00
0C1800
077000
ENDCHAR
STARTCHAR 041F
ENCODING 1055
SWIDTH 750 0
DWIDTH 21 0
BBX 19 21 1 0
BITMAP
FFFFE0
1E0780
1E0780
1E0780
1E0780
1E0780
1E0780
1E0780
1E0780
1E0780
1E0780
1E0780
1E0780
1E0780
1E0780
1E0780
1E0780
1E0780
1E0780
1E0780
FFBFE0
ENDCHAR
STARTCHAR 0420
ENCODING 1056
SWIDTH 678 0
DWIDTH 19 0
BBX 17 21 1 0
BITMAP
FFF800
1E0E00
1E0700
1E0780
1E0780
1E0780
1E0780
1E0780
1E0F00
1E0E00
1FF800
1E0000
1E0000
1E0000
1E0000
1E0000
1E0000
1E0000
1E0000
1E0000
FFC000
ENDCHAR
STARTCHAR 0421
ENCODING 1057
SWIDTH 678 0
DWIDTH 19 0
BBX 15 21 2 1
BITMAP
0FE6
1C1E
381E
380E
780E
7806
F806
F806
F802
F800
F800
F800
F800
F802
F802
7802
7804
3804
3C0C
1C08
0FF0
ENDCHAR
STARTCHAR 0422
ENCODING 1058
SWIDTH 714 0
DWIDTH 20 0
BBX 17 21 2 0
BITMAP
FFFF80
E3CF80
C3C780
C3C380
83C380
83C180
83C180
03C180
03C080
03C000
03C000
03C000
03C000
03C000
03C000
03C000
03C000
03C000
03C000
03C000
1FF800
ENDCHAR
STARTCHAR 0423
ENCODING 1059
SWIDTH 785 0
DWIDTH 22 0
BBX 20 21 1 0
BITMAP
FFE7F0
1F81C0
0F8180
078180
07C100
07C100
03E200
03E200
01E200
01F400
00F400
00FC00
007800
007800
003800
0E3000
1F1000
1F2000
1F2000
1E4000
0F8000
ENDCHAR
STARTCHAR 0424
ENCODING 1060
SWIDTH 821 0
DWIDTH 23 0
BBX 21 21 1 0
BITMAP
03FE00
007800
007800
007800
07FF00
1C79C0
3878E0
707870
F07878
F07878
F07878
F07878
F07878
707870
3878F0
1C79C0
07FF00
007800
007800
007800
03FE00
ENDCHAR
STARTCHAR 0425
ENCODING 1061
SWIDTH 714 0
DWIDTH 20 0
BBX 19 21 1 0
BITMAP
FF9FC0
3F0600
1F0600
0F0400
0F8800
079800
07D000
03F000
03E000
01F000
01F000
00F800
01F800
037C00
027C00
063E00
043E00
081E00
181F00
181F80
FE3FE0
ENDCHAR
STARTCHAR 0426
ENCODING 1062
SWIDTH 821 0
DWIDTH 23 0
BBX 21 27 1 -6
BITMAP
FFBFF0
1E0780
1E0780
1E0780
1E0780
1E0780
1E0780
1E0780
1E0780
1E0780
1E0780
1E0780
1E0780
1E0780
1E0780
1E0780
1E0780
1E0780
1E0780
1E0780
FFFF80
000078
000038
000018
000018
000018
000008
ENDCHAR
STARTCHAR 0427
ENCODING 1063
SWIDTH 785 0
DWIDTH 22 0
BBX 20 21 1 0
BITMAP
FF9FF0
1E0780
1E0780
1E0780
1E0780
1E0780
1E0780
1E0780
1E0780
1E0780
0E0780
03FF80
000780
000780
000780
000780
000780
000780
000780
000780
003FF0
ENDCHAR
STARTCHAR 0428
ENCODING 1064
SWIDTH 1107 0
DWIDTH 31 0
BBX 29 21 1 0
BITMAP
FFBFEFF8
1E0781E0
1E0781E0
1E0781E0
1E0781E0
1E0781E0
1E0781E0
1E0781E0
1E0781E0
1E0781E0
1E0781E0
1E0781E0
1E0781E0
1E0781E0
1E0781E0
1E0781E0
1E0781E0
1E0781E0
1E0781E0
1E0781E0
FFFFFFF8
ENDCHAR
STARTCHAR 0429
ENCODING 1065
SWIDTH 1142 0
DWIDTH 32 0
BBX 30 27 1 -6
BITMAP
FFBFEFF8
1E0783C0
1E0783C0
1E0783C0
1E0783C0
1E0783C0
1E0783C0
1E0783C0
1E0783C0
1E0783C0
1E0783C0
1E0783C0
1E0783C0
1E0783C0
1E0783C0
1E0783C0
1E0783C0
1E0783C0
1E0783C0
1E0783C0
FFFFFFC0
0000003C
0000001C
0000000C
0000000C
0000000C
00000004
ENDCHAR
STARTCHAR 042A
ENCODING 1066
SWIDTH 892 0
DWIDTH 25 0
BBX 22 21 2 0
BITMAP
FFFE00
F0F000
E0F000
C0F000
C0F000
80F000
80F000
80F000
00F000
00FFC0
00F070
00F078
00F038
00F03C
00F03C
00F03C
00F03C
00F038
00F078
00F070
07FFC0
ENDCHAR
STARTCHAR 042B
ENCODING 1067
SWIDTH 964 0
DWIDTH 27 0
BBX 25 21 1 0
BITMAP
FFC1FF80
1E001E00
1E001E00
1E001E00
1E001E00
1E001E00
1E001E00
1E001E00
1E001E00
1FF01E00
1E1C1E00
1E1E1E00
1E0E1E00
1E0F1E00
1E0F1E00
1E0F1E00
1E0F1E00
1E0F1E00
1E1E1E00
1E1C1E00
FFF1FF80
ENDCHAR
STARTCHAR 042C
ENCODING 1068
SWIDTH 678 0
DWIDTH 19 0
BBX 17 21 1 0
BITMAP
FFC000
1E0000
1E0000
1E0000
1E0000
1E0000
1E0000
1E0000
1E0000
1FF800
1E0E00
1E0F00
1E0700
1E0780
1E0780
1E0780
1E0780
1E0700
1E0F00
1E0E00
FFF800
ENDCHAR
STARTCHAR 042D
ENCODING 1069
SWIDTH 642 0
DWIDTH 18 0
BBX 15 22 2 0
BITMAP
0100
4EE0
7070
6078
603C
403C
403C
403E
403E
003E
003E
0FFE
003E
003E
703E
F83C
F83C
F83C
F038
E078
6070
3FC0
ENDCHAR
STARTCHAR 042E
ENCODING 1070
SWIDTH 1000 0
DWIDTH 28 0
BBX 26 21 1 1
BITMAP
FFC3F800
1E070E00
1E0E0700
1E0E0700
1E1E0780
1E1E0780
1E3E0780
1E3E07C0
1E3E07C0
1E3E07C0
1FFE07C0
1E3E07C0
1E3E07C0
1E3E07C0
1E3E0780
1E1E0780
1E1E0780
1E0E0700
1E0E0700
1E070E00
FFC3F800
ENDCHAR
STARTCHAR 042F
ENCODING 1071
SWIDTH 750 0
DWIDTH 21 0
BBX 19 21 1 0
BITMAP
01FFE0
070F00
0E0F00
1E0F00
1E0F00
1E0F00
1E0F00
1E0F00
0F0F00
070F00
01FF00
070F00
0E0F00
0E0F00
0E0F00
1E0F00
9E0F00
9E0F00
9E0F00
DE0F00
7CFFE0
ENDCHAR
STARTCHAR 0430
ENCODING 1072
SWIDTH 500 0
DWIDTH 14 0
BBX 12 14 1 0
BITMAP
1E00
6380
63C0
F3C0
73C0
23C0
0FC0
33C0
73C0
F3C0
F3D0
F3D0
F3D0
7DE0
ENDCHAR
STARTCHAR 0431
ENCODING 1073
SWIDTH 535 0
DWIDTH 15 0
BBX 12 21 2 0
BITMAP
0020
00E0
07E0
1FC0
3F00
7000
4000
CF00
B980
B0C0
F0E0
F0E0
F0E0
F0F0
F0F0
F0E0
F0E0
70E0
70C0
3980
0F00
ENDCHAR
STARTCHAR 0432
ENCODING 1074
SWIDTH 500 0
DWIDTH 14 0
BBX 11 14 2 0
BITMAP
FF80
79C0
79C0
79E0
79C0
7980
7E00
79C0
79E0
79E0
79E0
79E0
79C0
FF80
ENDCHAR
STARTCHAR 0433
ENCODING 1075
SWIDTH 464 0
DWIDTH 13 0
BBX 10 14 2 0
BITMAP
FFC0
79C0
78C0
78C0
7840
7840
7800
7800
7800
7800
7800
7800
7800
FC00
ENDCHAR
STARTCHAR 0434
ENCODING 1076
SWIDTH 535 0
DWIDTH 15 0
BBX 13 18 1 -4
BITMAP
3FF0
09E0
09E0
09E0
09E0
09E0
09E0
09E0
11E0
11E0
11E0
11E0
21E0
FFF8
E018
C018
8008
8008
ENDCHAR
STARTCHAR 0435
ENCODING 1077
SWIDTH 464 0
DWIDTH 13 0
BBX 11 14 1 0
BITMAP
0F00
3380
71C0
71C0
F1C0
F1E0
FFE0
F000
F000
F020
7040
7040
3880
0F00
ENDCHAR
STARTCHAR 0436
ENCODING 1078
SWIDTH 750 0
DWIDTH 21 0
BBX 19 14 1 0
BITMAP
3BF380
69E5C0
75E5C0
25E480
05E400
05E400
07FC00
1DE700
3DE700
3DE780
BDE7A0
BDE7A0
B9E7A0
73F3C0
ENDCHAR
STARTCHAR 0437
ENCODING 1079
SWIDTH 428 0
DWIDTH 12 0
BBX 10 14 1 0
BITMAP
9E00
E700
C780
8780
8780
0700
3C00
0700
0380
F3C0
E3C0
C380
4780
3E00
ENDCHAR
STARTCHAR 0438
ENCODING 1080
SWIDTH 607 0
DWIDTH 17 0
BBX 14 14 2 0
BITMAP
FDFC
78F0
78F0
78F0
79F0
79F0
7AF0
7AF0
7CF0
7CF0
78F0
78F0
78F0
FDFC
ENDCHAR
STARTCHAR 0439
ENCODING 1081
SWIDTH 571 0
DWIDTH 16 0
BBX 13 20 2 0
BITMAP
1980
39C0
30C0
10C0
0F00
0000
F9F8
70F0
70F0
71F0
71F0
72F0
72F0
74F0
74F0
78F0
78F0
70F0
70F0
F9F8
ENDCHAR
STARTCHAR 043A
ENCODING 1082
SWIDTH 571 0
DWIDTH 16 0
BBX 13 14 2 0
BITMAP
FCE0
7970
7970
7920
7900
7900
7F00
79C0
79C0
79E0
79E8
79E8
79E8
FCF0
ENDCHAR
STARTCHAR 043B
ENCODING 1083
SWIDTH 571 0
DWIDTH 16 0
BBX 14 14 1 0
BITMAP
1FFC
04F0
04F0
04F0
04F0
04F0
04F0
04F0
04F0
64F0
E4F0
E4F0
E8F0
71FC
ENDCHAR
STARTCHAR 043C
ENCODING 1084
SWIDTH 642 0
DWIDTH 18 0
BBX 16 14 1 0
BITMAP
F81F
383E
3C3E
3C3E
3E5E
2E5E
2E5E
2F5E
279E
279E
239E
231E
231E
F93F
ENDCHAR
STARTCHAR 043D
ENCODING 1085
SWIDTH 571 0
DWIDTH 16 0
BBX 13 14 2 0
BITMAP
FDF8
78F0
78F0
78F0
78F0
78F0
7FF0
78F0
78F0
78F0
78F0
78F0
78F0
FDF8
ENDCHAR
STARTCHAR 043E
ENCODING 1086
SWIDTH 500 0
DWIDTH 14 0
BBX 12 14 1 0
BITMAP
0F00
3180
70C0
70E0
F0E0
F0E0
F0F0
F0F0
F0E0
F0E0
70E0
70C0
3180
0F00
ENDCHAR
STARTCHAR 043F
ENCODING 1087
SWIDTH 571 0
DWIDTH 16 0
BBX 13 14 2 0
BITMAP
FFF8
78F0
78F0
78F0
78F0
78F0
78F0
78F0
78F0
78F0
78F0
78F0
78F0
FDF8
ENDCHAR
STARTCHAR 0440
ENCODING 1088
SWIDTH 535 0
DWIDTH 15 0
BBX 13 21 1 -7
BITMAP
FDC0
3E60
3C70
3C70
3C78
3C78
3C78
3C78
3C78
3C78
3C70
3C70
3E60
3DC0
3C00
3C00
3C00
3C00
3C00
3C00
FE00
ENDCHAR
STARTCHAR 0441
ENCODING 1089
SWIDTH 464 0
DWIDTH 13 0
BBX 10 14 1 0
BITMAP
0F00
3880
70C0
71C0
F3C0
F380
F000
F000
F000
F000
7040
7040
3880
0F00
ENDCHAR
STARTCHAR 0442
ENCODING 1090
SWIDTH 500 0
DWIDTH 14 0
BBX 12 14 1 0
BITMAP
FFF0
CF70
CF30
8F30
8F10
8F10
0F00
0F00
0F00
0F00
0F00
0F00
0F00
3FC0
ENDCHAR
STARTCHAR 0443
ENCODING 1091
SWIDTH 535 0
DWIDTH 15 0
BBX 13 21 1 -7
BITMAP
FCF8
7820
3820
3C40
1C40
1C40
1E40
0E80
0F80
0780
0780
0700
0300
0300
0200
0200
3200
7A00
7400
7400
3800
ENDCHAR
STARTCHAR 0444
ENCODING 1092
SWIDTH 714 0
DWIDTH 20 0
BBX 18 27 1 -7
BITMAP
001000
022000
016000
01E000
01E000
01E000
1DEE00
33F300
73E380
71E380
F1E380
F1E380
F1E3C0
F1E3C0
F1E380
F1E380
71E380
71E380
33E300
1DFE00
01E000
01E000
01E000
01E000
012000
022000
001000
ENDCHAR
STARTCHAR 0445
ENCODING 1093
SWIDTH 535 0
DWIDTH 15 0
BBX 13 14 1 0
BITMAP
FEF8
3C60
3C40
1E80
1E80
0F00
0700
0780
07C0
0BC0
09E0
10E0
30F0
FDF8
ENDCHAR
STARTCHAR 0446
ENCODING 1094
SWIDTH 607 0
DWIDTH 17 0
BBX 14 18 2 -4
BITMAP
FDF8
78F0
78F0
78F0
78F0
78F0
78F0
78F0
78F0
78F0
78F0
78F0
78F0
FFFC
001C
000C
0004
0004
ENDCHAR
STARTCHAR 0447
ENCODING 1095
SWIDTH 535 0
DWIDTH 15 0
BBX 14 14 0 0
BITMAP
FFFC
3CF0
3CF0
3CF0
3CF0
3CF0
3CF0
3CF0
1FF0
00F0
00F0
00F0
00F0
01FC
ENDCHAR
STARTCHAR 0448
ENCODING 1096
SWIDTH 821 0
DWIDTH 23 0
BBX 20 14 2 0
BITMAP
FDFBF0
78F1E0
78F1E0
78F1E0
78F1E0
78F1E0
78F1E0
78F1E0
78F1E0
78F1E0
78F1E0
78F1E0
78F1E0
FFFFF0
ENDCHAR
STARTCHAR 0449
ENCODING 1097
SWIDTH 821 0
DWIDTH 23 0
BBX 21 18 2 -4
BITMAP
FDFBF0
78F1E0
78F1E0
78F1E0
78F1E0
78F1E0
78F1E0
78F1E0
78F1E0
78F1E0
78F1E0
78F1E0
78F1E0
FFFFF8
000038
000018
000010
000008
ENDCHAR
STARTCHAR 044A
ENCODING 1098
SWIDTH 607 0
DWIDTH 17 0
BBX 14 14 2 0
BITMAP
FF80
CF00
8F00
8F00
0F00
0F00
0FF0
0F38
0F3C
0F3C
0F3C
0F3C
0F38
3FF0
ENDCHAR
STARTCHAR 044B
ENCODING 1099
SWIDTH 714 0
DWIDTH 20 0
BBX 17 14 2 0
BITMAP
FC3F80
781E00
781E00
781E00
781E00
781E00
7F1E00
7BDE00
79DE00
79FE00
79FE00
79DE00
79DE00
FFBF80
ENDCHAR
STARTCHAR 044C
ENCODING 1100
SWIDTH 500 0
DWIDTH 14 0
BBX 11 14 2 0
BITMAP
FC00
7800
7800
7800
7800
7800
7F80
79C0
79E0
79E0
79E0
79E0
79C0
FF80
ENDCHAR
STARTCHAR 044D
ENCODING 1101
SWIDTH 428 0
DWIDTH 12 0
BBX 10 14 1 0
BITMAP
9E00
E300
C380
C3C0
83C0
03C0
3FC0
03C0
03C0
F3C0
E380
C380
4300
3E00
ENDCHAR
STARTCHAR 044E
ENCODING 1102
SWIDTH 714 0
DWIDTH 20 0
BBX 17 14 2 0
BITMAP
FC7800
78C600
79C700
79C700
7BC780
7BC780
7FC780
7BC780
7BC780
7BC780
79C700
79C700
78C600
FC7C00
ENDCHAR
STARTCHAR 044F
ENCODING 1103
SWIDTH 571 0
DWIDTH 16 0
BBX 14 14 1 0
BITMAP
0FF8
3CF0
38F0
78F0
78F0
38F0
1CF0
07F0
1CF0
3CF0
3CF0
BCF0
BCF0
79FC
ENDCHAR
STARTCHAR 0450
ENCODING 1104
SWIDTH 464 0
DWIDTH 13 0
BBX 11 21 1 0
BITMAP
3000
3000
3800
1800
0C00
0000
0000
0F00
3380
71C0
71C0
F1C0
F1E0
FFE0
F000
F000
F020
7040
7040
3880
0F00
ENDCHAR
STARTCHAR 0451
ENCODING 1105
SWIDTH 464 0
DWIDTH 13 0
BBX 11 20 1 0
BITMAP
3180
7BC0
7BC0
3180
0000
0000
0F00
3380
71C0
71C0
F1C0
F1E0
FFE0
F000
F000
F020
7040
7040
3880
0F00
ENDCHAR
STARTCHAR 0452
ENCODING 1106
SWIDTH 535 0
DWIDTH 15 0
BBX 13 27 1 -7
BITMAP
4200
2400
2C00
3C00
3C00
3C00
FF80
3C00
3C00
3C00
3FC0
3CE0
3C70
3C70
3C78
3C78
3C70
3C70
3C70
FE70
00E0
00E0
00C0
0180
0100
0200
0400
ENDCHAR
STARTCHAR 0453
ENCODING 1107
SWIDTH 464 0
DWIDTH 13 0
BBX 10 21 2 0
BITMAP
0300
0300
0700
0600
0C00
0800
0000
FFC0
79C0
78C0
78C0
7840
7840
7800
7800
7800
7800
7800
7800
7800
FC00
ENDCHAR
STARTCHAR 0454
ENCODING 1108
SWIDTH 428 0
DWIDTH 12 0
BBX 10 14 1 0
BITMAP
1E40
31C0
70C0
F0C0
F040
F000
FF00
F000
F000
F3C0
71C0
70C0
3080
1F00
ENDCHAR
STARTCHAR 0455
ENCODING 1109
SWIDTH 464 0
DWIDTH 13 0
BBX 10 14 2 0
BITMAP
3C80
4380
C180
C180
E080
F800
7E00
3F80
8F80
83C0
C0C0
E0C0
F080
8F00
ENDCHAR
STARTCHAR 0456
ENCODING 1110
SWIDTH 285 0
DWIDTH 8 0
BBX 6 21 1 1
BITMAP
78
78
78
00
00
00
00
F8
78
78
78
78
78
78
78
78
78
78
78
78
FC
ENDCHAR
STARTCHAR 0457
ENCODING 1111
SWIDTH 321 0
DWIDTH 9 0
BBX 8 20 1 0
BITMAP
66
FF
FF
66
00
00
7C
3C
3C
3C
3C
3C
3C
3C
3C
3C
3C
3C
3C
7E
ENDCHAR
STARTCHAR 0458
ENCODING 1112
SWIDTH 285 0
DWIDTH 8 0
BBX 8 28 -1 -6
BITMAP
0E
0F
0E
00
00
00
00
1F
0F
0F
0F
0F
0F
0F
0F
0F
0F
0F
0F
0F
0F
0F
4F
FF
EF
EE
CE
38
ENDCHAR
STARTCHAR 0459
ENCODING 1113
SWIDTH 750 0
DWIDTH 21 0
BBX 19 14 1 0
BITMAP
1FF800
04F000
04F000
04F000
04F000
04F000
04FF00
04F3C0
04F1C0
64F1E0
E4F1E0
E4F1C0
E8F3C0
71FF80
ENDCHAR
STARTCHAR 045A
ENCODING 1114
SWIDTH 785 0
DWIDTH 22 0
BBX 19 14 2 0
BITMAP
FDF800
78F000
78F000
78F000
78F000
78F000
7FFF00
78F3C0
78F1C0
78F1E0
78F1E0
78F1C0
78F3C0
FDFF00
ENDCHAR
STARTCHAR 045B
ENCODING 1115
SWIDTH 535 0
DWIDTH 15 0
BBX 14 20 1 0
BITMAP
4200
2400
2C00
3C00
3C00
3C00
FF80
3C00
3C00
3C00
3FC0
3CF0
3CF0
3CF0
3CF0
3CF0
3CF0
3CF0
3CF0
FFFC
ENDCHAR
STARTCHAR 045C
ENCODING 1116
SWIDTH 571 0
DWIDTH 16 0
BBX 13 21 2 0
BITMAP
00C0
01C0
01C0
0300
0600
0400
0000
FCE0
7970
7970
7920
7900
7900
7F00
79C0
79C0
79E0
79E8
79E8
79E8
FCF0
ENDCHAR
STARTCHAR 045D
ENCODING 1117
SWIDTH 607 0
DWIDTH 17 0
BBX 14 21 2 0
BITMAP
1800
1C00
1C00
0600
0200
0000
0000
FDFC
78F0
78F0
78F0
79F0
79F0
7AF0
7AF0
7CF0
7CF0
78F0
78F0
78F0
FDFC
ENDCHAR
STARTCHAR 045E
ENCODING 1118
SWIDTH 535 0
DWIDTH 15 0
BBX 13 27 1 -7
BITMAP
18C0
18E0
1060
1040
0F80
0000
FCF8
7030
3820
3820
3C40
1C40
1E40
0E40
0E80
0F80
0780
0700
0700
0300
0300
0200
3200
7200
7400
7400
3800
ENDCHAR
STARTCHAR 045F
ENCODING 1119
SWIDTH 571 0
DWIDTH 16 0
BBX 13 19 2 -5
BITMAP
FDF8
78F0
78F0
78F0
78F0
78F0
78F0
78F0
78F0
78F0
78F0
78F0
78F0
FFF8
0200
0700
0700
0700
0700
ENDCHAR
STARTCHAR 0460
ENCODING 1120
SWIDTH 964 0
DWIDTH 27 0
BBX 24 21 2 0
BITMAP
F07C3E
F07C1F
F07C1F
F03C1F
F03C1F
F03C0E
F83C0E
783C0E
783E0E
781E0E
781E0C
3C3E0C
3C2F0C
3E2F08
1E4F98
1F4790
1F87D0
0F83E0
0781E0
0701C0
020080
ENDCHAR
STARTCHAR 0461
ENCODING 1121
SWIDTH 714 0
DWIDTH 20 0
BBX 18 14 1 0
BITMAP
F1E3C0
F1E3C0
F1E3C0
F0E1C0
F0E1C0
70E180
70F180
78F180
38F100
3D3900
3D3A00
1E1E00
0E1C00
040800
ENDCHAR
STARTCHAR 0462
ENCODING 1122
SWIDTH 821 0
DWIDTH 23 0
BBX 20 21 2 0
BITMAP
1FF800
03C000
03C000
FFFF80
F3C780
E3C380
C3C180
83C080
83C080
03C000
03FF00
03C1C0
03C1E0
03C0F0
03C0F0
03C0F0
03C0F0
03C0F0
03C0E0
03C1C0
1FFF00
ENDCHAR
STARTCHAR 0463
ENCODING 1123
SWIDTH 607 0
DWIDTH 17 0
BBX 14 20 2 0
BITMAP
1080
0900
0B00
0F00
0F00
0F00
FFF0
CF30
8F30
8F10
0F10
0F10
0FF0
0F38
0F3C
0F3C
0F3C
0F3C
0F38
3FF0
ENDCHAR
STARTCHAR 0464
ENCODING 1124
SWIDTH 964 0
DWIDTH 27 0
BBX 25 21 1 1
BITMAP
FFC3F900
1E070700
1E0F0300
1E1E0300
1E1E0100
1E1E0100
1E3E0100
1E3E0100
1E3E0000
1E3E0000
1FFFF800
1E3E0000
1E3E0000
1E3E0700
1E3E0F80
1E1E0F80
1E1E0F80
1E0E0780
1E0F0380
1E070300
FFC1DE00
ENDCHAR
STARTCHAR 0465
ENCODING 1125
SWIDTH 678 0
DWIDTH 19 0
BBX 16 14 2 0
BITMAP
FC79
78C7
79C3
7BC3
7BC1
7BC0
7FFC
7BC0
7BC0
7BCF
79C7
79C3
78C2
FC7C
ENDCHAR
STARTCHAR 0466
ENCODING 1126
SWIDTH 892 0
DWIDTH 25 0
BBX 23 21 1 0
BITMAP
001000
003800
003800
007C00
007C00
00FE00
00BE00
019F00
011F00
010F00
030F80
020780
0607C0
0403C0
0FFFE0
08F1E0
08F1F0
18F0F0
18F0F8
38F0F8
FDF9FE
ENDCHAR
STARTCHAR 0467
ENCODING 1127
SWIDTH 642 0
DWIDTH 18 0
BBX 16 14 1 0
BITMAP
0180
0180
03C0
03C0
05E0
05E0
08F0
08F0
1078
1078
2DBC
253C
621E
F23F
ENDCHAR
STARTCHAR 0468
ENCODING 1128
SWIDTH 1285 0
DWIDTH 36 0
BBX 34 21 1 0
BITMAP
FF80030000
1E00030000
1E00070000
1E00078000
1E000F8000
1E000BC000
1E001BC000
1E0013E000
1E0031E000
1E0021F000
1E0020F000
1E0040F800
1E0040F800
1E00807C00
1FFFFFFC00
1E019E3C00
1E011E3E00
1E031E1E00
1E021E1F00
1E071E1F00
FFBFBFBFC0
ENDCHAR
STARTCHAR 0469
ENCODING 1129
SWIDTH 892 0
DWIDTH 25 0
BBX 23 14 2 0
BITMAP
FC0300
780300
780780
780780
780B80
780BC0
7811C0
7811E0
7820E0
7FF1F0
784A70
784C78
78C478
FDE4FE
ENDCHAR
STARTCHAR 046A
ENCODING 1130
SWIDTH 1000 0
DWIDTH 28 0
BBX 26 21 1 0
BITMAP
1FFFFC00
03C01000
03E02000
01F02000
00F04000
00F88000
00798000
007D0000
003E0000
03FFE000
071E3800
0E1E1C00
0E1E1C00
1E1E1C00
1E1E1E00
1E1E1E00
9E1E1E40
9E1E1E40
9E1E1E40
DE1E1EC0
7CFFCF80
ENDCHAR
STARTCHAR 046B
ENCODING 1131
SWIDTH 750 0
DWIDTH 21 0
BBX 19 14 1 0
BITMAP
3FFF80
0F0200
0F0400
078800
03D800
01F000
0FFE00
1DE700
3DE700
3DE780
BDE7A0
BDE7A0
B9E7A0
73F3C0
ENDCHAR
STARTCHAR 046C
ENCODING 1132
SWIDTH 1357 0
DWIDTH 38 0
BBX 36 21 1 0
BITMAP
FFC7FFFF00
1E00F80400
1E00F80800
1E007C0800
1E003E1000
1E003E3000
1E001F2000
1E000F4000
1E000FC000
1FFFFFFC00
1E03C78E00
1E03878700
1E03878700
1E07878700
1E07878780
1E07878780
1E27878790
1E27878790
1E27878790
1E378787B0
FFDF3FF3E0
ENDCHAR
STARTCHAR 046D
ENCODING 1133
SWIDTH 1000 0
DWIDTH 28 0
BBX 25 14 2 0
BITMAP
FCFFFE00
783C0800
781C1000
781E2000
780F6000
7807C000
7FFFF800
78779C00
78779C00
78F79E00
7AF79E80
7AF79E80
7AF79E80
FDEFCF00
ENDCHAR
STARTCHAR 046E
ENCODING 1134
SWIDTH 607 0
DWIDTH 17 0
BBX 14 33 2 -7
BITMAP
1870
1CB0
1CA0
0F00
1F80
70E0
6070
E038
E038
F038
E038
0078
0070
01C0
3FC0
3070
3038
203C
203C
203C
003C
007C
00F8
07F8
3FE0
7FC0
FC00
E000
C060
C0F0
C0E0
61C0
1F00
ENDCHAR
STARTCHAR 046F
ENCODING 1135
SWIDTH 464 0
DWIDTH 13 0
BBX 11 23 1 -5
BITMAP
1180
1B80
0D00
0C00
3300
41C0
E1C0
F1E0
61C0
0380
3E00
3380
21C0
21E0
01C0
03C0
1F80
7E00
F000
8300
8300
8700
7C00
ENDCHAR
STARTCHAR 0470
ENCODING 1136
SWIDTH 1035 0
DWIDTH 29 0
BBX 27 21 1 0
BITMAP
007FC000
000F0000
000F03C0
FF0F07E0
3E0F0DE0
1E0F0BE0
1F0F1BE0
0F0F11C0
0F8F1000
078F2000
078F2000
03CF4000
03CF4000
01EFC000
01EF8000
01FF8000
000F0000
000F0000
000F0000
000F0000
007FC000
ENDCHAR
STARTCHAR 0471
ENCODING 1137
SWIDTH 785 0
DWIDTH 22 0
BBX 21 25 0 -7
BITMAP
00FC00
007800
007800
007800
FC7870
3878B8
3878B8
3C7978
1C7900
1C7900
1E7A00
0E7A00
0E7A00
0F7A00
077C00
077C00
077C00
03F800
007800
007800
007800
007800
007800
007800
00FC00
ENDCHAR
STARTCHAR 0472
ENCODING 1138
SWIDTH 714 0
DWIDTH 20 0
BBX 17 22 2 0
BITMAP
008000
077000
0C1800
181C00
380E00
780E00
780F00
780F00
F80F80
F80F80
F80F80
FFFF80
F80F80
F80F80
F80F80
780F00
780F00
780F00
380E00
180C00
0C1800
077000
ENDCHAR
STARTCHAR 0473
ENCODING 1139
SWIDTH 500 0
DWIDTH 14 0
BBX 12 14 1 0
BITMAP
0F00
3180
70C0
70E0
F0E0
F0E0
FFF0
F0F0
F0E0
F0E0
70E0
70C0
3180
0F00
ENDCHAR
STARTCHAR 0474
ENCODING 1140
SWIDTH 821 0
DWIDTH 23 0
BBX 22 21 1 1
BITMAP
FF8078
3E00BC
1E017C
1F017C
0F0178
0F0230
0F8200
078200
07C600
03C400
03C400
03E400
01E800
01E800
01F800
00F800
00F000
007000
007000
006000
002000
ENDCHAR
STARTCHAR 0475
ENCODING 1141
SWIDTH 571 0
DWIDTH 16 0
BBX 15 14 1 0
BITMAP
FC1C
782C
385E
3C5C
1C40
1C80
1E80
0E80
0E80
0F00
0700
0700
0200
0200
ENDCHAR
STARTCHAR 0476
ENCODING 1142
SWIDTH 857 0
DWIDTH 24 0
BBX 22 28 2 0
BITMAP
033000
03B800
019800
00CC00
006400
002000
000000
FF80F8
3E00BC
1E017C
1F017C
0F0178
0F0230
0F8200
078200
078600
07C400
03C400
03E400
01E800
01E800
01F800
00F800
00F000
00F000
007000
006000
002000
ENDCHAR
STARTCHAR 0477
ENCODING 1143
SWIDTH 571 0
DWIDTH 16 0
BBX 16 21 0 0
BITMAP
3300
3B80
1B80
0CC0
0440
0200
0000
FE0E
3C16
3C2F
1C2E
1E20
0E40
0E40
0F40
0780
0780
0380
0380
0300
0100
ENDCHAR
STARTCHAR 0478
ENCODING 1144
SWIDTH 1250 0
DWIDTH 35 0
BBX 33 28 2 -6
BITMAP
07E0000000
0C30000000
1818000000
381C000000
781E000000
781E000000
781E000000
F81F7F0700
F81F1C0B00
F81F1E1780
F81F0E1700
F81F0E1000
F81F0F2000
F81F072000
781E072000
781E03C000
781E03C000
381C03C000
1818018000
0C30018000
0660018000
0180010000
0000010000
0000010000
0000018000
000001E000
000001C000
000000C000
ENDCHAR
STARTCHAR 0479
ENCODING 1145
SWIDTH 1000 0
DWIDTH 28 0
BBX 26 20 1 -6
BITMAP
1F1FC380
318785C0
71C787C0
71C38980
F1E3C800
F1E3C800
F1E1C800
F1E1F000
F1E0F000
F1E0F000
71C0E000
71C06000
31806000
1F002000
00004000
00004000
00004000
00006000
00007000
00007000
ENDCHAR
STARTCHAR 047A
ENCODING 1146
SWIDTH 857 0
DWIDTH 24 0
BBX 21 25 2 -2
BITMAP
007000
00F800
01FC00
077700
0E7380
1C01C0
3800E0
7800F0
7800F0
F800F8
F800F8
F800F8
F800F8
F800F8
F800F8
F800F8
7800F0
7800F0
3800E0
1C01C0
0C0180
067300
01FC00
00F800
007000
ENDCHAR
STARTCHAR 047B
ENCODING 1147
SWIDTH 571 0
DWIDTH 16 0
BBX 14 17 1 -2
BITMAP
0300
0780
1B60
3030
7038
7038
F03C
F03C
F03C
F03C
F03C
7038
7038
3030
1B60
0780
0300
ENDCHAR
STARTCHAR 047C
ENCODING 1148
SWIDTH 1178 0
DWIDTH 33 0
BBX 30 27 2 0
BITMAP
000F8000
003E7800
00DF1F00
00110600
00108000
00408000
07B07F80
0C3861C0
1C7CF0E0
387CF870
787CF878
78787878
78000078
F800007C
F800007C
F800007C
F800007C
F83FE07C
F807807C
F807807C
78078078
78078078
78078078
38078070
1C0780E0
0E0C81C0
07B87F80
ENDCHAR
STARTCHAR 047D
ENCODING 1149
SWIDTH 821 0
DWIDTH 23 0
BBX 21 19 1 0
BITMAP
00F000
010C00
026700
009000
009000
0F0F80
399CC0
73DCE0
739E70
F10070
F00070
F00078
F1FC78
F0F070
F0F070
70F070
70F0E0
38D0C0
0F8F80
ENDCHAR
STARTCHAR 047E
ENCODING 1150
SWIDTH 964 0
DWIDTH 27 0
BBX 24 27 2 0
BITMAP
3FFFF8
303C18
303C08
203C08
00FF00
000000
F03C3E
F03C1F
F03C1F
F03C1F
F03C1F
F03C0E
F83C0E
781C0E
781C0E
781E0E
7C1E0C
3C1E0C
3C2F0C
3E2F08
1E2788
1F4790
0FC3D0
0F83E0
0781E0
0701C0
030080
ENDCHAR
STARTCHAR 047F
ENCODING 1151
SWIDTH 714 0
DWIDTH 20 0
BBX 18 19 1 0
BITMAP
7FFF80
61E180
41E080
03F080
000000
F1E3C0
F1E3C0
F1E3C0
F1E1C0
F0E1C0
70E180
70F180
78F180
797100
397900
3D3A00
1E1E00
0C1C00
0C0800
ENDCHAR
STARTCHAR 0480
ENCODING 1152
SWIDTH 678 0
DWIDTH 19 0
BBX 18 21 1 0
BITMAP
FF8000
1E0000
1E0000
1E0000
1E0000
1E0000
1E0000
1E0000
1E0000
1E0000
0E0000
03FE00
001E00
001E00
001E00
001E00
001E00
001E00
001E00
001E00
00FFC0
ENDCHAR
STARTCHAR 0481
ENCODING 1153
SWIDTH 464 0
DWIDTH 13 0
BBX 13 14 0 0
BITMAP
FE00
3C00
3C00
3C00
3C00
3C00
3C00
1FE0
01E0
01E0
01E0
01E0
01E0
03F8
ENDCHAR
STARTCHAR 0482
ENCODING 1154
SWIDTH 392 0
DWIDTH 11 0
BBX 9 10 1 -5
BITMAP
0180
0980
0F00
0600
4F00
F900
7800
3800
6C00
C000
ENDCHAR
STARTCHAR 0483
ENCODING 1155
SWIDTH 0 0
DWIDTH 0 0
BBX 11 3 -13 15
BITMAP
F0E0
ECE0
E3E0
ENDCHAR
STARTCHAR 0484
ENCODING 1156
SWIDTH 0 0
DWIDTH 0 0
BBX 11 4 -13 16
BITMAP
1F00
3FC0
6060
8020
ENDCHAR
STARTCHAR 0485
ENCODING 1157
SWIDTH 0 0
DWIDTH 0 0
BBX 5 5 -9 16
BITMAP
78
E8
C0
C0
40
ENDCHAR
STARTCHAR 0486
ENCODING 1158
SWIDTH 0 0
DWIDTH 0 0
BBX 5 5 -10 16
BITMAP
F0
B8
18
18
10
ENDCHAR
STARTCHAR 0487
ENCODING 1159
SWIDTH 0 0
DWIDTH 0 0
BBX 15 3 -15 23
BITMAP
0FE0
3838
E00E
ENDCHAR
STARTCHAR 0488
ENCODING 1160
SWIDTH 0 0
DWIDTH 0 0
BBX 34 30 -24 -7
BITMAP
0001C00000
0006300000
0004100000
0000000000
0700003800
0880004400
18C000C200
1040008200
0000000000
0000000000
0000000000
0000000000
0000000000
3800000700
4400000880
C2000018C0
8200001040
0000000000
0000000000
0000000000
0000000000
0000000000
0200001000
0F80007C00
18C000C600
1040008200
0000000000
0001C00000
0002200000
0004100000
ENDCHAR
STARTCHAR 0489
ENCODING 1161
SWIDTH 0 0
DWIDTH 0 0
BBX 31 32 -23 -8
BITMAP
00018000
00020000
00020000
00078000
00038000
040381E0
05800300
07800780
03800100
00000000
00000000
00000000
00000000
00000000
9C000038
9C000074
5C000074
38000032
00000000
00000000
00000000
00000000
01800380
038003E0
03C003E0
01800020
0F038020
00038040
0003C000
00008000
00008000
00030000
ENDCHAR
STARTCHAR 0490
ENCODING 1168
SWIDTH 607 0
DWIDTH 17 0
BBX 15 27 1 0
BITMAP
0002
0006
0006
000E
001E
003E
FFFE
1E00
1E00
1E00
1E00
1E00
1E00
1E00
1E00
1E00
1E00
1E00
1E00
1E00
1E00
1E00
1E00
1E00
1E00
1E00
FFC0
ENDCHAR
STARTCHAR 0491
ENCODING 1169
SWIDTH 428 0
DWIDTH 12 0
BBX 10 19 2 0
BITMAP
0040
0040
00C0
00C0
01C0
FFC0
7800
7800
7800
7800
7800
7800
7800
7800
7800
7800
7800
7800
FC00
ENDCHAR
STARTCHAR 04A4
ENCODING 1188
SWIDTH 1000 0
DWIDTH 28 0
BBX 26 21 1 0
BITMAP
FFDFFFC0
1E03C3C0
1E03C3C0
1E03C1C0
1E03C0C0
1E03C0C0
1E03C0C0
1E03C040
1E03C040
1E03C000
1FFFC000
1E03C000
1E03C000
1E03C000
1E03C000
1E03C000
1E03C000
1E03C000
1E03C000
1E03C000
FFDFF000
ENDCHAR
STARTCHAR 04A5
ENCODING 1189
SWIDTH 714 0
DWIDTH 20 0
BBX 17 14 2 0
BITMAP
FDFF80
78F380
78F180
78F080
78F080
78F080
7FF000
78F000
78F000
78F000
78F000
78F000
78F000
FDF800
ENDCHAR
STARTCHAR 04D8
ENCODING 1240
SWIDTH 678 0
DWIDTH 19 0
BBX 16 22 2 0
BITMAP
0100
0EE0
1038
203C
201C
401E
401E
C01F
001F
001F
001F
FFFF
F81F
F81F
F81F
F81E
781E
781E
381C
3C3C
1C38
0EF0
ENDCHAR
STARTCHAR 04D9
ENCODING 1241
SWIDTH 464 0
DWIDTH 13 0
BBX 11 14 1 0
BITMAP
3E00
4300
8180
81C0
01C0
01C0
FFE0
F1E0
F1C0
F1C0
71C0
7180
3300
1E00
ENDCHAR
STARTCHAR 0510
ENCODING 1296
SWIDTH 607 0
DWIDTH 17 0
BBX 14 21 2 1
BITMAP
0FE8
3C38
3818
7818
7808
7808
7808
7800
3C00
1C00
03C0
1C00
3C00
7800
F83C
F83C
F83C
F81C
7818
7C18
1FE0
ENDCHAR
STARTCHAR 0511
ENCODING 1297
SWIDTH 428 0
DWIDTH 12 0
BBX 11 14 1 0
BITMAP
1F80
70C0
F0C0
F1E0
F1C0
7000
0E00
7000
F180
F1C0
F0C0
F0C0
7080
3F00
ENDCHAR
STARTCHAR 05D0
ENCODING 1488
SWIDTH 571 0
DWIDTH 16 0
BBX 13 16 2 0
BITMAP
4060
4060
60F0
60F8
7078
7C78
7E70
9F80
8F80
87C0
C3E0
E0F0
F070
F830
F830
F820
ENDCHAR
STARTCHAR 1D79
ENCODING 7545
SWIDTH 464 0
DWIDTH 13 0
BBX 11 18 1 -5
BITMAP
7FE0
7FC0
7F80
0200
0400
1800
3000
3800
3E00
3F80
1FC0
63E0
C0E0
C060
C060
C040
6080
1F00
ENDCHAR
STARTCHAR 1E80
ENCODING 7808
SWIDTH 1107 0
DWIDTH 31 0
BBX 28 28 2 0
BITMAP
00100000
00380000
003C0000
000C0000
00060000
00000000
00000000
FFBFE7F0
3E0F81C0
1E078180
1E078180
1F07C100
0F07C100
0F07C100
0F8FE200
0789E200
0789E200
07D9F600
03D0F400
03D0F400
03F0FC00
01E07C00
01E07800
01E07800
01E03800
00C03000
00C03000
00C01000
ENDCHAR
STARTCHAR 1E81
ENCODING 7809
SWIDTH 785 0
DWIDTH 22 0
BBX 20 21 1 0
BITMAP
018000
01C000
01C000
006000
003000
000000
000000
FDFDF0
787840
387840
3C3840
1C7880
1C7C80
1E9C80
0E9D00
0E9F00
0F0F00
070E00
070E00
060600
020400
ENDCHAR
STARTCHAR 1E82
ENCODING 7810
SWIDTH 1107 0
DWIDTH 31 0
BBX 28 28 2 0
BITMAP
00004000
0000C000
0001C000
00018000
00030000
00000000
00000000
FFBFEFF0
3E0F81C0
1E078180
1E078180
1F07C100
0F07C100
0F07C100
0F8FE200
0789E200
0789E200
07C9F600
03D0F400
03D0F400
03F0FC00
01F07800
01E07800
01E07800
00E07800
00C03000
00C03000
00403000
ENDCHAR
STARTCHAR 1E83
ENCODING 7811
SWIDTH 785 0
DWIDTH 22 0
BBX 20 21 1 0
BITMAP
000C00
000C00
001C00
003800
002000
000000
000000
FDFDF0
787840
387840
3C3840
1C7880
1C7C80
1E5C80
0E9D00
0E9F00
0F8F00
070E00
070E00
060600
020400
ENDCHAR
STARTCHAR 1E84
ENCODING 7812
SWIDTH 1071 0
DWIDTH 30 0
BBX 28 27 1 0
BITMAP
00186000
003CF000
003CF000
00186000
00000000
00000000
FFBFF7F0
1F0FC1C0
1F07C180
0F07C180
0F03C100
0F87E100
0F87E100
0785E300
078DE200
07C9F200
03C8F200
03C8F600
03F0FC00
01F07C00
01F07C00
01F07C00
00E03800
00E03800
00E03800
00401800
00401000
ENDCHAR
STARTCHAR 1E85
ENCODING 7813
SWIDTH 785 0
DWIDTH 22 0
BBX 20 20 1 0
BITMAP
018C00
03DE00
03DE00
018C00
000000
000000
FDFDF0
787040
387840
3C3840
1C7880
1C7C80
1E9C80
0E9D00
0E9F00
0F0F00
070E00
070E00
060600
020400
ENDCHAR
STARTCHAR 1E9E
ENCODING 7838
SWIDTH 785 0
DWIDTH 22 0
BBX 20 21 1 1
BITMAP
00FFC0
03FFC0
07FF80
0E0100
0E0200
0E0600
1E0400
1E0800
1E1000
1E3F00
1E63C0
1E01E0
1E01E0
1E01F0
1E01F0
1EF1F0
1FF1F0
1FF1F0
1FE1E0
1EC3C0
FE7F80
ENDCHAR
STARTCHAR 1F00
ENCODING 7936
SWIDTH 607 0
DWIDTH 17 0
BBX 13 21 2 0
BITMAP
0300
0380
0380
0080
0080
0100
0000
0E38
3E78
3F78
71F0
60F0
C0E0
C1C0
81C0
8380
8388
CF88
FFF8
7E78
3870
ENDCHAR
STARTCHAR 1F01
ENCODING 7937
SWIDTH 607 0
DWIDTH 17 0
BBX 13 21 2 0
BITMAP
0180
0380
0380
0200
0200
0100
0000
0E38
3F78
3F78
7170
60F0
C0E0
C1C0
81C0
8380
8388
CF88
FFF8
7E78
3870
ENDCHAR
STARTCHAR 1F02
ENCODING 7938
SWIDTH 607 0
DWIDTH 17 0
BBX 13 21 2 0
BITMAP
1980
1DC0
1CC0
0460
0860
0820
0000
0E38
3F38
3F78
7170
60F0
C0E0
C1C0
81C0
8380
8388
CF88
FFF8
7E78
3870
ENDCHAR
STARTCHAR 1F03
ENCODING 7939
SWIDTH 607 0
DWIDTH 17 0
BBX 13 21 2 0
BITMAP
0D80
1DC0
1CC0
1060
1060
0820
0000
0E38
3F38
3F78
7170
60F0
C0E0
C1C0
81C0
8380
8388
CF88
FFF8
7E78
3870
ENDCHAR
STARTCHAR 1F04
ENCODING 7940
SWIDTH 607 0
DWIDTH 17 0
BBX 13 21 2 0
BITMAP
0638
0F38
0F30
0160
0260
06C0
0000
0E38
1F38
3F78
71F0
60F0
C0E0
C1E0
81C0
8380
8388
CF88
FFF8
7E78
3870
ENDCHAR
STARTCHAR 1F05
ENCODING 7941
SWIDTH 607 0
DWIDTH 17 0
BBX 13 21 2 0
BITMAP
0638
0F38
0F70
0860
0840
06C0
0000
0E38
3F38
3F78
7170
60F0
C0E0
C1E0
81C0
8380
8388
CF88
FFF8
7E78
3870
ENDCHAR
STARTCHAR 1F06
ENCODING 7942
SWIDTH 607 0
DWIDTH 17 0
BBX 13 25 2 0
BITMAP
0F10
0FF0
11E0
0000
0700
0780
0380
0080
0080
0100
0000
0E38
3F78
3F78
7170
60F0
C0E0
C0C0
81C0
8180
8388
CF88
FFF8
7E78
3870
ENDCHAR
STARTCHAR 1F07
ENCODING 7943
SWIDTH 607 0
DWIDTH 17 0
BBX 13 25 2 0
BITMAP
0F10
1FF0
11E0
0000
0780
0780
0700
0400
0400
0200
0000
0E38
3F38
3F78
7170
60F0
C0E0
C1C0
81C0
8380
8388
CF88
FFF8
7E78
3870
ENDCHAR
STARTCHAR 1F08
ENCODING 7944
SWIDTH 785 0
DWIDTH 22 0
BBX 19 21 2 0
BITMAP
E06000
F06000
F06000
10F000
20F000
20F000
41F800
017800
017800
037C00
023C00
023C00
063E00
041E00
07FE00
0C1F00
080F00
080F00
180F80
380F80
FE3FE0
ENDCHAR
STARTCHAR 1F09
ENCODING 7945
SWIDTH 785 0
DWIDTH 22 0
BBX 19 21 2 0
BITMAP
606000
F06000
F0E000
80F000
80F000
41F000
01F800
017800
017800
027C00
023C00
043C00
043E00
041E00
07FE00
081F00
080F00
100F00
100F00
380F80
FE7FE0
ENDCHAR
STARTCHAR 1F0A
ENCODING 7946
SWIDTH 821 0
DWIDTH 23 0
BBX 24 21 -2 0
BITMAP
660300
F70300
770700
130780
118780
208F80
408FC0
000FC0
001BC0
0013E0
0011E0
0031E0
0021F0
0020F0
007FF0
0040F8
004078
008078
008078
01C07C
07F3FF
ENDCHAR
STARTCHAR 1F0B
ENCODING 7947
SWIDTH 821 0
DWIDTH 23 0
BBX 24 21 -1 0
BITMAP
660200
F70700
F70700
830700
818780
408F80
200F80
000FC0
0013C0
0013C0
0013C0
0021E0
0021E0
0021E0
007FF0
0040F0
0040F0
0080F8
008078
01C07C
07F3FF
ENDCHAR
STARTCHAR 1F0C
ENCODING 7948
SWIDTH 857 0
DWIDTH 24 0
BBX 23 21 0 0
BITMAP
638600
F38600
730600
160F00
160F00
2C0F00
401F80
001780
001780
0027C0
0023C0
0023C0
0043E0
0041E0
007FE0
0081F0
0080F0
0100F0
0100F8
0380F8
0FE3FE
ENDCHAR
STARTCHAR 1F0D
ENCODING 7949
SWIDTH 857 0
DWIDTH 24 0
BBX 23 21 0 0
BITMAP
638600
F38600
F70600
860F00
840F00
4C0F00
201F80
001780
003780
0027C0
0023C0
0063C0
0043E0
0041E0
00FFE0
0081F0
0080F0
0100F0
0100F8
0380F8
0FE3FE
ENDCHAR
STARTCHAR 1F0E
ENCODING 7950
SWIDTH 785 0
DWIDTH 22 0
BBX 23 25 -1 0
BITMAP
708000
F88000
9F0000
000400
380C00
3C0E00
1C0E00
041E00
0C1F00
081F00
001F00
002F80
002F80
002780
004780
0047C0
0043C0
0083C0
00FFE0
0081E0
0101E0
0101F0
0300F0
0300F8
1FE7FE
ENDCHAR
STARTCHAR 1F0F
ENCODING 7951
SWIDTH 785 0
DWIDTH 22 0
BBX 23 25 -1 0
BITMAP
708000
F88000
9F0000
000400
3C0C00
3C0E00
380E00
200E00
301F00
101F00
001F00
002F80
002F80
002780
004780
0047C0
0043C0
0083C0
00FFE0
0081E0
0101E0
0101F0
0100F0
0300F8
0FE7FE
ENDCHAR
STARTCHAR 1F10
ENCODING 7952
SWIDTH 464 0
DWIDTH 13 0
BBX 10 21 2 0
BITMAP
1C00
1E00
1E00
0200
0400
0C00
0000
3E00
7F80
FF80
C180
8000
9E00
7F00
9E00
8000
8040
C180
FF80
7F00
3E00
ENDCHAR
STARTCHAR 1F11
ENCODING 7953
SWIDTH 464 0
DWIDTH 13 0
BBX 10 21 2 0
BITMAP
0C00
1E00
1E00
1000
1000
0800
0000
3E00
7F80
FF80
C180
8000
9E00
7F00
5E00
8000
8040
C180
FF80
7F00
3E00
ENDCHAR
STARTCHAR 1F12
ENCODING 7954
SWIDTH 464 0
DWIDTH 13 0
BBX 10 21 2 0
BITMAP
E600
F600
F700
1300
2100
4080
0000
3E00
7F80
FF80
E180
8000
9E00
7F00
5E00
8000
80C0
E180
FF80
7F00
3E00
ENDCHAR
STARTCHAR 1F13
ENCODING 7955
SWIDTH 464 0
DWIDTH 13 0
BBX 10 21 2 0
BITMAP
6600
F600
F700
8300
8100
6080
0000
3E00
7F80
FF80
E180
8000
9E00
7F00
9E00
8000
80C0
E180
FF80
7F00
3E00
ENDCHAR
STARTCHAR 1F14
ENCODING 7956
SWIDTH 464 0
DWIDTH 13 0
BBX 10 21 2 0
BITMAP
30C0
79C0
79C0
0B80
1300
3600
0000
3E00
7F00
FF80
C380
8180
9E00
7F00
9E00
8000
8040
C180
FF80
7F00
3E00
ENDCHAR
STARTCHAR 1F15
ENCODING 7957
SWIDTH 464 0
DWIDTH 13 0
BBX 10 21 2 0
BITMAP
18C0
39C0
39C0
2380
2300
1200
0000
3E00
7F00
FF80
C380
8180
9E00
7F00
5E00
8000
8040
C180
FF80
7F00
3E00
ENDCHAR
STARTCHAR 1F18
ENCODING 7960
SWIDTH 928 0
DWIDTH 26 0
BBX 22 21 2 0
BITMAP
E3FFFC
F0781C
F0780C
10780C
207804
407804
007844
007840
0078C0
0079C0
007FC0
0079C0
0078C0
007844
007844
007804
007804
00780C
00780C
00781C
03FFFC
ENDCHAR
STARTCHAR 1F19
ENCODING 7961
SWIDTH 928 0
DWIDTH 26 0
BBX 22 21 2 0
BITMAP
63FFFC
F0783C
F0781C
80780C
80780C
407804
007844
007840
0078C0
0079C0
007FC0
0079C0
0078C0
007844
007844
007804
00780C
00780C
00781C
00783C
03FFFC
ENDCHAR
STARTCHAR 1F1A
ENCODING 7962
SWIDTH 964 0
DWIDTH 27 0
BBX 27 21 -2 0
BITMAP
661FFFE0
F703C1E0
7703C0E0
1303C060
2183C060
4083C020
0003C220
0003C200
0003C600
0003CE00
0003FE00
0003CE00
0003C600
0003C220
0003C220
0003C020
0003C060
0003C060
0003C0E0
0003C1E0
001FFFE0
ENDCHAR
STARTCHAR 1F1B
ENCODING 7963
SWIDTH 1000 0
DWIDTH 28 0
BBX 27 21 -1 0
BITMAP
663FFFE0
FE0781E0
E70780E0
83078060
81078060
61878020
00078220
00078600
00078600
00078E00
0007FE00
00078E00
00078600
00078620
00078220
00078020
00078060
00078060
000780E0
000781E0
003FFFE0
ENDCHAR
STARTCHAR 1F1C
ENCODING 7964
SWIDTH 1000 0
DWIDTH 28 0
BBX 26 21 0 0
BITMAP
63BFFFC0
F38783C0
770781C0
160780C0
240780C0
4C078040
00078440
00078400
00078C00
00079C00
0007FC00
00079C00
00078C00
00078440
00078440
00078040
000780C0
000780C0
000781C0
000783C0
003FFFC0
ENDCHAR
STARTCHAR 1F1D
ENCODING 7965
SWIDTH 1000 0
DWIDTH 28 0
BBX 26 21 0 0
BITMAP
63BFFFC0
F38783C0
F70781C0
860780C0
840780C0
6C078040
00078440
00078400
00078C00
00079C00
0007FC00
00079C00
00078C00
00078440
00078440
00078040
000780C0
000780C0
000781C0
000783C0
003FFFC0
ENDCHAR
STARTCHAR 1F20
ENCODING 7968
SWIDTH 642 0
DWIDTH 18 0
BBX 15 29 1 -8
BITMAP
01C0
01E0
01E0
0020
0040
0040
0080
3078
78FC
79C6
CF82
8782
0782
0702
0706
0706
0706
0F06
0F0E
0E0C
0E0C
001C
001C
001C
003C
003C
003C
003C
0018
ENDCHAR
STARTCHAR 1F21
ENCODING 7969
SWIDTH 642 0
DWIDTH 18 0
BBX 15 29 1 -8
BITMAP
00C0
01E0
01C0
0100
0100
0080
0000
3078
78FC
79C6
CF82
8782
0782
0702
0706
0706
0706
0F06
0F0E
0E0C
0E0C
001C
001C
001C
003C
003C
003C
003C
0018
ENDCHAR
STARTCHAR 1F22
ENCODING 7970
SWIDTH 642 0
DWIDTH 18 0
BBX 15 29 1 -8
BITMAP
0660
0F60
0F70
0130
0210
0618
0000
3078
78FC
79C6
CF82
8782
0782
0702
0706
0706
0706
0F06
0F0E
0E0C
0E0C
001C
001C
001C
003C
003C
003C
003C
0018
ENDCHAR
STARTCHAR 1F23
ENCODING 7971
SWIDTH 642 0
DWIDTH 18 0
BBX 15 29 1 -8
BITMAP
0660
0FE0
0E60
0830
0810
0618
0000
3078
78FC
79C6
CF82
8782
0782
0702
0706
0706
0F06
0F06
0E0E
0E0C
0E0C
001C
001C
001C
003C
003C
003C
003C
0018
ENDCHAR
STARTCHAR 1F24
ENCODING 7972
SWIDTH 642 0
DWIDTH 18 0
BBX 15 29 1 -8
BITMAP
0718
079C
07B8
00B0
0130
0360
0000
7078
F8FC
F9C6
CB82
8782
0702
0702
0706
0F06
0F06
0F06
0E0E
0E0C
0C0C
001C
001C
001C
003C
003C
003C
003C
0018
ENDCHAR
STARTCHAR 1F25
ENCODING 7973
SWIDTH 642 0
DWIDTH 18 0
BBX 15 29 1 -8
BITMAP
0398
079C
0798
0430
0430
0320
0000
7078
F8FC
F9C6
CB82
8782
0702
0702
0706
0F06
0F06
0E06
0E0E
1E0C
0C0C
001C
001C
001C
003C
003C
003C
003C
0018
ENDCHAR
STARTCHAR 1F26
ENCODING 7974
SWIDTH 642 0
DWIDTH 18 0
BBX 15 33 1 -8
BITMAP
0380
07F8
08F0
0000
01C0
01E0
00E0
0020
0060
0040
0000
3078
78FC
79C6
CF82
8782
0782
0702
0706
0706
0706
0F06
0F0E
0E0C
0E0C
001C
001C
001C
003C
003C
003C
003C
0018
ENDCHAR
STARTCHAR 1F27
ENCODING 7975
SWIDTH 642 0
DWIDTH 18 0
BBX 15 33 1 -8
BITMAP
0700
0FF8
08F0
0000
03C0
03C0
0380
0200
0200
0100
0000
7078
F8FC
F9C6
CB82
8F82
0702
0702
0F06
0F06
0F06
0E06
1E0E
1E0C
0C0C
001C
001C
001C
003C
003C
003C
003C
0018
ENDCHAR
STARTCHAR 1F28
ENCODING 7976
SWIDTH 1071 0
DWIDTH 30 0
BBX 27 21 2 0
BITMAP
E3FF7FE0
F0780F00
F0780F00
10780F00
10780F00
20780F00
40780F00
00780F00
00780F00
00780F00
007FFF00
00780F00
00780F00
00780F00
00780F00
00780F00
00780F00
00780F00
00780F00
00780F00
03FF7FE0
ENDCHAR
STARTCHAR 1F29
ENCODING 7977
SWIDTH 1071 0
DWIDTH 30 0
BBX 27 21 2 0
BITMAP
63FF7FE0
F0780F00
F0780F00
80780F00
80780F00
40780F00
20780F00
00780F00
00780F00
00780F00
007FFF00
00780F00
00780F00
00780F00
00780F00
00780F00
00780F00
00780F00
00780F00
00780F00
03FF7FE0
ENDCHAR
STARTCHAR 1F2A
ENCODING 7978
SWIDTH 1071 0
DWIDTH 30 0
BBX 31 21 -2 0
BITMAP
661FF3FE
F703C0F0
7703C0F0
1303C0F0
1183C0F0
2083C0F0
4083C0F0
0003C0F0
0003C0F0
0003C0F0
0003FFF0
0003C0F0
0003C0F0
0003C0F0
0003C0F0
0003C0F0
0003C0F0
0003C0F0
0003C0F0
0003C0F0
001FF3FE
ENDCHAR
STARTCHAR 1F2B
ENCODING 7979
SWIDTH 1107 0
DWIDTH 31 0
BBX 31 21 -1 0
BITMAP
663FF7FE
FE0780F0
E60780F0
830780F0
830780F0
410780F0
208780F0
000780F0
000780F0
000780F0
0007FFF0
000780F0
000780F0
000780F0
000780F0
000780F0
000780F0
000780F0
000780F0
000780F0
003FF7FE
ENDCHAR
STARTCHAR 1F2C
ENCODING 7980
SWIDTH 1142 0
DWIDTH 32 0
BBX 31 21 0 0
BITMAP
63BFF7FE
F38780F0
730780F0
170780F0
160780F0
240780F0
480780F0
000780F0
000780F0
000780F0
0007FFF0
000780F0
000780F0
000780F0
000780F0
000780F0
000780F0
000780F0
000780F0
000780F0
003FF7FE
ENDCHAR
STARTCHAR 1F2D
ENCODING 7981
SWIDTH 1107 0
DWIDTH 31 0
BBX 30 21 0 0
BITMAP
63BFE7FC
F38781E0
F30781E0
870781E0
860781E0
4C0781E0
280781E0
000781E0
000781E0
000781E0
0007FFE0
000781E0
000781E0
000781E0
000781E0
000781E0
000781E0
000781E0
000781E0
000781E0
003FE7FC
ENDCHAR
STARTCHAR 1F2E
ENCODING 7982
SWIDTH 1071 0
DWIDTH 30 0
BBX 30 25 -1 0
BITMAP
70800000
F8800000
9F000000
00000000
387FEFFC
3C0F01E0
1C0F01E0
040F01E0
040F01E0
080F01E0
000F01E0
000F01E0
000F01E0
000F01E0
000FFFE0
000F01E0
000F01E0
000F01E0
000F01E0
000F01E0
000F01E0
000F01E0
000F01E0
000F01E0
007FEFFC
ENDCHAR
STARTCHAR 1F2F
ENCODING 7983
SWIDTH 1071 0
DWIDTH 30 0
BBX 30 25 -1 0
BITMAP
70800000
F8800000
9F000000
00000000
3C7FEFFC
3C0F01E0
380F01E0
200F01E0
200F01E0
100F01E0
000F01E0
000F01E0
000F01E0
000F01E0
000FFFE0
000F01E0
000F01E0
000F01E0
000F01E0
000F01E0
000F01E0
000F01E0
000F01E0
000F01E0
007FEFFC
ENDCHAR
STARTCHAR 1F30
ENCODING 7984
SWIDTH 321 0
DWIDTH 9 0
BBX 6 21 2 0
BITMAP
E0
F0
F0
10
20
20
00
E0
E0
E0
E0
E0
C0
C0
80
80
84
C8
F8
F8
70
ENDCHAR
STARTCHAR 1F31
ENCODING 7985
SWIDTH 285 0
DWIDTH 8 0
BBX 5 21 2 0
BITMAP
60
F0
F0
80
80
40
00
E0
E0
E0
E0
C0
C0
C0
80
80
80
C8
F8
F0
70
ENDCHAR
STARTCHAR 1F32
ENCODING 7986
SWIDTH 321 0
DWIDTH 9 0
BBX 9 21 0 0
BITMAP
E600
F600
F700
1300
2100
4080
0000
1C00
1C00
1C00
1C00
1800
1800
1800
1000
1000
1000
1900
1F00
1E00
0E00
ENDCHAR
STARTCHAR 1F33
ENCODING 7987
SWIDTH 285 0
DWIDTH 8 0
BBX 9 21 -1 0
BITMAP
6600
F600
F700
8300
8100
6080
0000
1C00
1C00
1C00
1C00
1800
1800
1800
1000
1000
1000
1900
1F00
1E00
0E00
ENDCHAR
STARTCHAR 1F34
ENCODING 7988
SWIDTH 285 0
DWIDTH 8 0
BBX 9 21 0 0
BITMAP
6380
F380
7300
1600
2600
2C00
4000
3800
3800
3800
3800
3000
3000
3000
2000
2000
2000
3200
3E00
3C00
1C00
ENDCHAR
STARTCHAR 1F35
ENCODING 7989
SWIDTH 321 0
DWIDTH 9 0
BBX 9 21 1 0
BITMAP
6380
F380
F700
8600
8400
6800
0000
3000
7800
7800
7000
7000
6000
6000
4000
4000
4200
6600
7C00
7C00
3800
ENDCHAR
STARTCHAR 1F36
ENCODING 7990
SWIDTH 321 0
DWIDTH 9 0
BBX 9 25 0 0
BITMAP
7880
FF80
8F00
0000
7800
7C00
1C00
0400
0C00
0800
0000
1800
3C00
3C00
3800
3800
3000
3000
2000
2000
2100
3300
3E00
3E00
1C00
ENDCHAR
STARTCHAR 1F37
ENCODING 7991
SWIDTH 321 0
DWIDTH 9 0
BBX 9 25 0 0
BITMAP
7880
7F80
8F00
0000
3C00
3C00
3800
2000
2000
1000
0000
1800
3C00
3C00
3800
3800
3000
3000
2000
2000
2100
3300
3E00
3E00
1C00
ENDCHAR
STARTCHAR 1F38
ENCODING 7992
SWIDTH 678 0
DWIDTH 19 0
BBX 16 21 2 0
BITMAP
E3FF
F078
F078
1078
1078
2078
4078
0078
0078
0078
0078
0078
0078
0078
0078
0078
0078
0078
0078
0078
03FF
ENDCHAR
STARTCHAR 1F39
ENCODING 7993
SWIDTH 678 0
DWIDTH 19 0
BBX 16 21 2 0
BITMAP
63FF
F078
F078
8078
8078
4078
2078
0078
0078
0078
0078
0078
0078
0078
0078
0078
0078
0078
0078
0078
03FF
ENDCHAR
STARTCHAR 1F3A
ENCODING 7994
SWIDTH 714 0
DWIDTH 20 0
BBX 21 21 -2 0
BITMAP
661FF8
F703C0
7703C0
1303C0
1183C0
2083C0
4083C0
0003C0
0003C0
0003C0
0003C0
0003C0
0003C0
0003C0
0003C0
0003C0
0003C0
0003C0
0003C0
0003C0
001FF8
ENDCHAR
STARTCHAR 1F3B
ENCODING 7995
SWIDTH 714 0
DWIDTH 20 0
BBX 20 21 -1 0
BITMAP
663FF0
FE0780
E60780
830780
830780
410780
200780
000780
000780
000780
000780
000780
000780
000780
000780
000780
000780
000780
000780
000780
003FF0
ENDCHAR
STARTCHAR 1F3C
ENCODING 7996
SWIDTH 750 0
DWIDTH 21 0
BBX 20 21 0 0
BITMAP
63BFF0
F38780
730780
170780
160780
240780
480780
000780
000780
000780
000780
000780
000780
000780
000780
000780
000780
000780
000780
000780
003FF0
ENDCHAR
STARTCHAR 1F3D
ENCODING 7997
SWIDTH 750 0
DWIDTH 21 0
BBX 20 21 0 0
BITMAP
63BFF0
F38780
F30780
860780
860780
4C0780
200780
000780
000780
000780
000780
000780
000780
000780
000780
000780
000780
000780
000780
000780
003FF0
ENDCHAR
STARTCHAR 1F3E
ENCODING 7998
SWIDTH 678 0
DWIDTH 19 0
BBX 19 25 -1 0
BITMAP
708000
F88000
9F0000
000000
387FE0
3C0F00
1C0F00
040F00
0C0F00
080F00
000F00
000F00
000F00
000F00
000F00
000F00
000F00
000F00
000F00
000F00
000F00
000F00
000F00
000F00
007FE0
ENDCHAR
STARTCHAR 1F3F
ENCODING 7999
SWIDTH 678 0
DWIDTH 19 0
BBX 19 25 -1 0
BITMAP
708000
F88000
9F0000
000000
3C7FE0
3C0F00
380F00
200F00
200F00
100F00
000F00
000F00
000F00
000F00
000F00
000F00
000F00
000F00
000F00
000F00
000F00
000F00
000F00
000F00
007FE0
ENDCHAR
STARTCHAR 1F40
ENCODING 8000
SWIDTH 500 0
DWIDTH 14 0
BBX 11 21 2 0
BITMAP
0C00
1E00
1E00
0200
0400
0400
0000
1F00
3F80
7FC0
FC40
F020
E020
C060
C060
80E0
83E0
C7C0
7FC0
3F80
1F00
ENDCHAR
STARTCHAR 1F41
ENCODING 8001
SWIDTH 500 0
DWIDTH 14 0
BBX 11 21 2 0
BITMAP
0600
0F00
0F00
0800
0800
0400
0200
1F00
3F80
7FC0
FC40
F020
E020
C060
C060
80E0
83E0
C7C0
7FC0
3F80
1F00
ENDCHAR
STARTCHAR 1F42
ENCODING 8002
SWIDTH 500 0
DWIDTH 14 0
BBX 11 21 2 0
BITMAP
6600
F700
7700
1380
2180
20C0
0000
1F00
3F80
7FC0
FC40
F020
E020
C060
C060
80E0
83E0
C7C0
7FC0
3F80
1F00
ENDCHAR
STARTCHAR 1F43
ENCODING 8003
SWIDTH 500 0
DWIDTH 14 0
BBX 11 21 2 0
BITMAP
3300
7B00
7B80
4180
4080
3040
0000
1F00
3F80
7FC0
FC40
F020
E020
C060
C060
80E0
83E0
C7C0
7FC0
3F80
1F00
ENDCHAR
STARTCHAR 1F44
ENCODING 8004
SWIDTH 500 0
DWIDTH 14 0
BBX 11 21 2 0
BITMAP
3860
3CE0
3CC0
05C0
0980
1B00
0000
1F00
3F80
7FC0
FC40
F020
E020
C060
C060
80E0
83E0
C7C0
7FC0
3F80
1F00
ENDCHAR
STARTCHAR 1F45
ENCODING 8005
SWIDTH 500 0
DWIDTH 14 0
BBX 11 21 2 0
BITMAP
1860
3CE0
3CC0
21C0
2180
1B00
0000
1F00
3F80
7FC0
FC40
F020
E020
C060
C060
80E0
83E0
C7C0
7FC0
3F80
1F00
ENDCHAR
STARTCHAR 1F48
ENCODING 8008
SWIDTH 857 0
DWIDTH 24 0
BBX 21 21 2 1
BITMAP
E07F00
F0C180
F1C1C0
1380E0
1380E0
2780F0
4780F0
0F80F8
0F80F8
0F80F8
0F80F8
0F80F8
0F80F8
0F80F8
0780F0
0780F0
0380F0
0380E0
01C1C0
00C180
007F00
ENDCHAR
STARTCHAR 1F49
ENCODING 8009
SWIDTH 857 0
DWIDTH 24 0
BBX 21 21 2 1
BITMAP
607F00
F0C180
F1C1C0
8380E0
8380F0
4780F0
2780F0
0780F8
0780F8
0F80F8
0F80F8
0F80F8
0780F8
0780F8
0780F0
0780F0
0380F0
0380E0
01C1C0
00C180
007F00
ENDCHAR
STARTCHAR 1F4A
ENCODING 8010
SWIDTH 892 0
DWIDTH 25 0
BBX 26 21 -2 1
BITMAP
6603F800
F6060C00
770E0E00
131C0700
113C0700
21BC0780
40BC0780
007C07C0
007C07C0
007C07C0
007C07C0
007C07C0
007C07C0
007C07C0
003C0780
003C0780
003C0780
001C0700
000E0E00
00060C00
0003F800
ENDCHAR
STARTCHAR 1F4B
ENCODING 8011
SWIDTH 928 0
DWIDTH 26 0
BBX 26 21 -1 1
BITMAP
6603F800
F6060C00
F70E0E00
831C0700
813C0700
41BC0780
20BC0780
007C07C0
007C07C0
007C07C0
007C07C0
007C07C0
007C07C0
007C07C0
003C0780
003C0780
003C0780
001C0700
000E0E00
00060C00
0003F800
ENDCHAR
STARTCHAR 1F4C
ENCODING 8012
SWIDTH 928 0
DWIDTH 26 0
BBX 25 21 0 1
BITMAP
6307F000
F30C1800
771C1C00
16380E00
16780E00
2C780F00
48780F00
00F80F80
00F80F80
00F80F80
00F80F80
00F80F80
00F80F80
00F80F80
00780F00
00780F00
00780F00
00380E00
001C1C00
000C1800
0007F000
ENDCHAR
STARTCHAR 1F4D
ENCODING 8013
SWIDTH 928 0
DWIDTH 26 0
BBX 25 21 0 1
BITMAP
6307F000
F30C1800
E71C1C00
86380E00
84780E00
4C780F00
28780F00
00F80F80
00F80F80
00F80F80
00F80F80
00F80F80
00F80F80
00F80F80
00780F00
00780F00
00780F00
00380E00
001C1C00
000C1800
0007F000
ENDCHAR
STARTCHAR 1F50
ENCODING 8016
SWIDTH 535 0
DWIDTH 15 0
BBX 13 21 1 0
BITMAP
1C00
1E00
1E00
0200
0400
0400
0000
E080
F0C0
F060
7070
3030
3038
3038
1038
1038
1038
1078
1870
0FE0
07C0
ENDCHAR
STARTCHAR 1F51
ENCODING 8017
SWIDTH 535 0
DWIDTH 15 0
BBX 13 21 1 0
BITMAP
0C00
1E00
1E00
1000
1000
0800
0400
E080
F0C0
F060
7070
3030
3038
3038
1038
1038
1038
1078
1870
0FE0
07C0
ENDCHAR
STARTCHAR 1F52
ENCODING 8018
SWIDTH 535 0
DWIDTH 15 0
BBX 13 21 1 0
BITMAP
E600
F600
F700
1300
2100
4080
0000
E080
F0C0
F060
7070
3030
3038
3038
1038
1038
1038
1078
1870
0FE0
07C0
ENDCHAR
STARTCHAR 1F53
ENCODING 8019
SWIDTH 535 0
DWIDTH 15 0
BBX 13 21 1 0
BITMAP
6600
F600
F700
8300
8100
6080
0000
E080
F0C0
F060
7070
3030
3038
3038
1038
1038
1038
1078
1870
0FE0
07C0
ENDCHAR
STARTCHAR 1F54
ENCODING 8020
SWIDTH 535 0
DWIDTH 15 0
BBX 13 21 1 0
BITMAP
31C0
79C0
7980
0B00
0B00
1600
2000
E180
F0C0
F060
7070
3030
3038
3038
1038
1038
1038
1078
1870
0FE0
07C0
ENDCHAR
STARTCHAR 1F55
ENCODING 8021
SWIDTH 535 0
DWIDTH 15 0
BBX 13 21 1 0
BITMAP
38C0
79C0
7980
4380
4300
3200
0000
E080
F0C0
F060
7070
3030
3038
3038
1038
1038
1038
1078
1870
0FE0
07C0
ENDCHAR
STARTCHAR 1F56
ENCODING 8022
SWIDTH 535 0
DWIDTH 15 0
BBX 13 25 1 0
BITMAP
7840
FF80
8700
0000
3800
3C00
1C00
0400
0400
0800
0000
E100
F0C0
F060
7060
3030
3038
3038
1038
1038
1038
1078
1870
0FE0
07C0
ENDCHAR
STARTCHAR 1F57
ENCODING 8023
SWIDTH 535 0
DWIDTH 15 0
BBX 13 25 1 0
BITMAP
7840
FF80
8F00
0000
1C00
3E00
3800
2000
2000
1800
0000
E080
F0C0
F060
F070
7030
6038
2038
2038
2038
2038
2078
30F0
1FE0
0FC0
ENDCHAR
STARTCHAR 1F59
ENCODING 8025
SWIDTH 964 0
DWIDTH 27 0
BBX 24 21 2 1
BITMAP
63807E
F1C0EF
F0E08F
80711F
80391F
403A1E
001E00
001E00
001E00
001E00
001E00
001E00
001E00
001E00
001E00
001E00
001E00
001E00
001E00
001E00
007FC0
ENDCHAR
STARTCHAR 1F5B
ENCODING 8027
SWIDTH 1000 0
DWIDTH 28 0
BBX 28 21 -1 1
BITMAP
663803E0
F60E06F0
F7070CF0
830389F0
8101C9F0
6081D1E0
0000F000
0000F000
0000F000
0000F000
0000F000
0000F000
0000F000
0000F000
0000F000
0000F000
0000F000
0000F000
0000F000
0000F000
0003FC00
ENDCHAR
STARTCHAR 1F5D
ENCODING 8029
SWIDTH 1000 0
DWIDTH 28 0
BBX 27 21 0 1
BITMAP
633007C0
F31C0DE0
F70E19E0
860713E0
840393E0
6803A3C0
0001E000
0001E000
0001E000
0001E000
0001E000
0001E000
0001E000
0001E000
0001E000
0001E000
0001E000
0001E000
0001E000
0001E000
0007F800
ENDCHAR
STARTCHAR 1F5F
ENCODING 8031
SWIDTH 964 0
DWIDTH 27 0
BBX 27 25 -1 0
BITMAP
70400000
FC800000
8F000000
00000000
3C7007C0
3C1C0DE0
380E19E0
200713E0
200393E0
1003A3C0
0001E000
0001E000
0001E000
0001E000
0001E000
0001E000
0001E000
0001E000
0001E000
0001E000
0001E000
0001E000
0001E000
0001E000
0007F800
ENDCHAR
STARTCHAR 1F60
ENCODING 8032
SWIDTH 678 0
DWIDTH 19 0
BBX 17 21 1 0
BITMAP
038000
03C000
03C000
004000
008000
010000
000000
381800
780C00
780600
F18700
F1C300
E3C380
E3C380
E3C380
E1C380
E18380
618700
708700
3B4E00
1E3C00
ENDCHAR
STARTCHAR 1F61
ENCODING 8033
SWIDTH 678 0
DWIDTH 19 0
BBX 17 21 1 0
BITMAP
018000
03C000
038000
020000
020000
010000
000000
381800
780C00
780600
F98700
F3C300
F3C380
E3C380
E3C380
E3C380
E18380
618700
708700
3B4E00
1E3C00
ENDCHAR
STARTCHAR 1F62
ENCODING 8034
SWIDTH 678 0
DWIDTH 19 0
BBX 17 21 1 0
BITMAP
0CC000
1EE000
0EE000
026000
043000
0C1000
000000
381800
780C00
780600
F98700
F3C300
F3C380
F3C380
E3C380
E3C380
E18380
718700
708700
3B4E00
1E3C00
ENDCHAR
STARTCHAR 1F63
ENCODING 8035
SWIDTH 678 0
DWIDTH 19 0
BBX 17 21 1 0
BITMAP
0DC000
1DC000
1CE000
106000
103000
081000
000000
381800
780C00
780600
F18700
F3C300
E3C380
E3C380
E3C380
E3C380
E18380
618700
710700
3B8E00
1C7C00
ENDCHAR
STARTCHAR 1F64
ENCODING 8036
SWIDTH 678 0
DWIDTH 19 0
BBX 17 21 1 0
BITMAP
061800
0F3C00
0F3800
017000
026000
04C000
000000
301800
780C00
780600
F18700
F3C300
E3C380
E3C380
E3C380
E3C380
E18380
618700
710700
3B8E00
1C7C00
ENDCHAR
STARTCHAR 1F65
ENCODING 8037
SWIDTH 678 0
DWIDTH 19 0
BBX 17 21 1 0
BITMAP
071800
073C00
073800
047000
046000
02C000
000000
181800
3C0C00
780600
798700
F3C300
F3C380
E3C380
E3C380
E3C380
E18380
618700
710700
3BCE00
1C3C00
ENDCHAR
STARTCHAR 1F66
ENCODING 8038
SWIDTH 678 0
DWIDTH 19 0
BBX 17 25 1 0
BITMAP
070800
0FF800
10F000
000000
078000
07C000
03C000
004000
00C000
018000
000000
301800
780C00
780600
F18700
F3C300
E3C380
E3C380
E3C380
E3C380
E18380
618700
708700
3B4E00
1E3C00
ENDCHAR
STARTCHAR 1F67
ENCODING 8039
SWIDTH 678 0
DWIDTH 19 0
BBX 17 25 1 0
BITMAP
070800
0FF800
10F000
000000
038000
03C000
038000
020000
020000
010000
000000
181800
3C0C00
780600
788700
F1C300
F1C380
E1C380
E1C380
E1C380
E18380
608700
708700
394E00
1E3C00
ENDCHAR
STARTCHAR 1F68
ENCODING 8040
SWIDTH 928 0
DWIDTH 26 0
BBX 22 22 2 0
BITMAP
000400
E07FC0
F0E0E0
F1E0F0
13E0F8
13C078
27C07C
47C07C
07C07C
07C07C
07C07C
07C07C
03C078
03C078
01E0F0
00E0E0
003980
040904
040904
07F9FC
07F9FC
07F9FC
ENDCHAR
STARTCHAR 1F69
ENCODING 8041
SWIDTH 928 0
DWIDTH 26 0
BBX 22 22 2 0
BITMAP
000400
607FC0
F0E0E0
F1E0F0
83E0F8
83C078
47C07C
27C07C
07C07C
07C07C
07C07C
07C07C
03C078
01C078
01E0F0
0060E0
003980
040904
040904
07F9FC
07F9FC
07F9FC
ENDCHAR
STARTCHAR 1F6A
ENCODING 8042
SWIDTH 964 0
DWIDTH 27 0
BBX 27 22 -2 0
BITMAP
00002000
6603FE00
F7070700
770F0780
131F07C0
119E03C0
21BE03E0
40BE03E0
003E03E0
003E03E0
003E03E0
003E03E0
001E03C0
001E0780
000F0780
00070E00
00039C00
00209020
00209020
003F9FE0
003F9FE0
003F9FE0
ENDCHAR
STARTCHAR 1F6B
ENCODING 8043
SWIDTH 1000 0
DWIDTH 28 0
BBX 27 22 -1 0
BITMAP
00002000
6603FE00
F7070700
F70F0780
831F07C0
819E03C0
40BE03E0
20BE03E0
003E03E0
003E03E0
003E03E0
003E03E0
001E03C0
001E0780
000F0780
00070E00
00039C00
00209020
00209020
003F9FE0
003F9FE0
003F9FE0
ENDCHAR
STARTCHAR 1F6C
ENCODING 8044
SWIDTH 1000 0
DWIDTH 28 0
BBX 26 22 0 0
BITMAP
00004000
6307FC00
F38E0E00
771E0F00
163E0F80
163C0780
247C07C0
487C07C0
007C07C0
007C07C0
007C07C0
007C07C0
003C0780
003C0780
001E0F00
000E0E00
00039C00
00409040
00409040
007F9FC0
007F9FC0
007F9FC0
ENDCHAR
STARTCHAR 1F6D
ENCODING 8045
SWIDTH 1000 0
DWIDTH 28 0
BBX 26 22 0 0
BITMAP
00004000
6307FC00
F38E0E00
F71E0F00
863E0F80
863C0780
4C7C07C0
287C07C0
007C07C0
007C07C0
007C07C0
007C07C0
003C0780
003C0F00
001E0F00
000E1C00
00073800
00412040
00412040
007F3FC0
007F3FC0
007F3FC0
ENDCHAR
STARTCHAR 1F6E
ENCODING 8046
SWIDTH 928 0
DWIDTH 26 0
BBX 25 25 -1 0
BITMAP
70800000
F9000000
9F000000
00008000
380FF800
3C1C1C00
1C3C1E00
047C1F00
0C780F00
08F80F80
00F80F80
00F80F80
00F80F80
00F80F80
00F80F80
00780F00
00380F00
003C1E00
000E1C00
00073000
00812080
00812080
00FF3F80
00FF3F80
00FF3F80
ENDCHAR
STARTCHAR 1F6F
ENCODING 8047
SWIDTH 928 0
DWIDTH 26 0
BBX 25 25 -1 0
BITMAP
70800000
F9000000
9F000000
00008000
3C0FF800
3C1C1C00
383C1E00
207C1F00
20780F00
10F80F80
00F80F80
00F80F80
00F80F80
00F80F80
00F80F80
00780F00
003C0F00
003C1E00
000E1C00
00873080
00812080
00812080
00FF3F80
00FF3F80
00FF3F80
ENDCHAR
STARTCHAR 1F70
ENCODING 8048
SWIDTH 607 0
DWIDTH 17 0
BBX 13 21 2 0
BITMAP
0C00
0E00
0E00
0600
0300
0100
0000
0E38
3F38
3F78
7170
60F0
C0E0
C1C0
81C0
8380
8388
CF88
FFF8
7E78
3870
ENDCHAR
STARTCHAR 1F71
ENCODING 8049
SWIDTH 607 0
DWIDTH 17 0
BBX 13 21 2 0
BITMAP
0060
00E0
00E0
00C0
0180
0100
0000
0E38
1F38
3F78
71F0
60F0
C0E0
C1E0
81C0
8380
8388
CF88
FFF8
7E78
3870
ENDCHAR
STARTCHAR 1F72
ENCODING 8050
SWIDTH 464 0
DWIDTH 13 0
BBX 10 21 2 0
BITMAP
6000
7000
3000
1800
1800
0C00
0000
3E00
7F80
FF80
C180
8000
9E00
7F00
9E00
8000
8040
C180
FF80
7F00
3E00
ENDCHAR
STARTCHAR 1F73
ENCODING 8051
SWIDTH 464 0
DWIDTH 13 0
BBX 10 21 2 0
BITMAP
0380
0380
0700
0600
0C00
0800
0000
3E00
7F80
FF80
E180
8000
9E00
7F00
9E00
8000
8040
E180
FF80
7F00
3E00
ENDCHAR
STARTCHAR 1F74
ENCODING 8052
SWIDTH 642 0
DWIDTH 18 0
BBX 15 29 1 -8
BITMAP
0600
0700
0300
0180
0080
00C0
0000
7078
78FC
F9C6
CF82
8782
0782
0702
0706
0706
0F06
0F06
0E0E
0E0C
0E0C
001C
001C
001C
003C
003C
003C
003C
0018
ENDCHAR
STARTCHAR 1F75
ENCODING 8053
SWIDTH 642 0
DWIDTH 18 0
BBX 15 29 1 -8
BITMAP
0030
0030
0070
0060
00C0
0080
0000
7078
78FC
F9C6
CF82
8782
0782
0702
0706
0706
0F06
0F06
0E0E
0E0C
0E0C
001C
001C
001C
003C
003C
003C
003C
0018
ENDCHAR
STARTCHAR 1F76
ENCODING 8054
SWIDTH 321 0
DWIDTH 9 0
BBX 7 21 1 0
BITMAP
C0
E0
60
70
30
18
00
38
38
38
38
30
30
30
20
20
20
32
3E
3C
1C
ENDCHAR
STARTCHAR 1F77
ENCODING 8055
SWIDTH 285 0
DWIDTH 8 0
BBX 5 21 2 0
BITMAP
18
18
38
30
20
40
00
E0
E0
E0
E0
C0
C0
C0
80
80
80
C8
F8
F0
70
ENDCHAR
STARTCHAR 1F78
ENCODING 8056
SWIDTH 500 0
DWIDTH 14 0
BBX 11 21 2 0
BITMAP
3000
3800
3800
1C00
0C00
0600
0000
1F00
3F80
7FC0
FC40
F020
E020
C060
C060
80E0
83E0
C7C0
7FC0
3F80
1F00
ENDCHAR
STARTCHAR 1F79
ENCODING 8057
SWIDTH 500 0
DWIDTH 14 0
BBX 11 21 2 0
BITMAP
0180
0380
0380
0300
0600
0400
0000
1F00
3F80
7FC0
FC40
F020
E020
C060
C060
80E0
83E0
C7C0
7FC0
3F80
1F00
ENDCHAR
STARTCHAR 1F7A
ENCODING 8058
SWIDTH 535 0
DWIDTH 15 0
BBX 13 22 1 1
BITMAP
7000
7000
3000
1800
0800
0C00
0400
0000
E080
F0C0
F060
7070
3030
3038
3038
1038
1038
1038
1078
1870
0FE0
07C0
ENDCHAR
STARTCHAR 1F7B
ENCODING 8059
SWIDTH 535 0
DWIDTH 15 0
BBX 13 21 1 0
BITMAP
0300
0300
0700
0600
0400
0800
0000
E080
F0C0
F060
7070
3030
3038
3038
1038
1038
1038
1078
1870
0FE0
07C0
ENDCHAR
STARTCHAR 1F7C
ENCODING 8060
SWIDTH 678 0
DWIDTH 19 0
BBX 17 21 1 0
BITMAP
0C0000
0E0000
060000
030000
030000
018000
000000
301800
780C00
780600
F18700
F3C300
E3C380
E3C380
E3C380
E3C380
E18380
618700
710700
3B8E00
1C7C00
ENDCHAR
STARTCHAR 1F7D
ENCODING 8061
SWIDTH 678 0
DWIDTH 19 0
BBX 17 21 1 0
BITMAP
007000
007000
00E000
01C000
018000
030000
000000
301800
780C00
780600
F18700
F3C300
E3C380
E3C380
E3C380
E3C380
E18380
618700
710700
3B8E00
1C7C00
ENDCHAR
STARTCHAR 1F80
ENCODING 8064
SWIDTH 607 0
DWIDTH 17 0
BBX 13 28 2 -7
BITMAP
0300
0780
0780
0080
0100
0100
0000
0E38
3E78
3F78
71F0
60F0
C0E0
C1C0
81C0
8380
8388
CF88
FFF8
7E78
3870
0000
0400
0400
0E00
0E00
0E00
0E00
ENDCHAR
STARTCHAR 1F81
ENCODING 8065
SWIDTH 607 0
DWIDTH 17 0
BBX 13 28 2 -7
BITMAP
0180
0380
0380
0200
0200
0100
0000
0E38
3F78
3F78
7170
60F0
C0E0
C1C0
81C0
8380
8388
CF88
FFF8
7E78
3870
0000
0400
0400
0E00
0E00
0E00
0E00
ENDCHAR
STARTCHAR 1F82
ENCODING 8066
SWIDTH 607 0
DWIDTH 17 0
BBX 13 28 2 -7
BITMAP
1980
1DC0
1DC0
04C0
0460
0820
0000
0E38
3F38
3F78
7170
60F0
C0E0
C1C0
81C0
8380
8388
CF88
FFF8
7E78
3870
0000
0400
0400
0E00
0E00
0E00
0E00
ENDCHAR
STARTCHAR 1F83
ENCODING 8067
SWIDTH 607 0
DWIDTH 17 0
BBX 13 28 2 -7
BITMAP
1D80
1DC0
1DC0
10E0
1060
0820
0000
0E38
3F38
3F78
7170
60F0
C0E0
C1C0
81C0
8380
8388
CF88
FFF8
7E78
3870
0000
0400
0400
0E00
0E00
0E00
0E00
ENDCHAR
STARTCHAR 1F84
ENCODING 8068
SWIDTH 607 0
DWIDTH 17 0
BBX 13 28 2 -7
BITMAP
0E38
0F38
0F30
0160
0260
06C0
0000
0E38
1F38
3F78
71F0
60F0
C0E0
C1E0
81C0
8380
8388
CF88
FFF8
7E78
3870
0000
0400
0400
0E00
0E00
0E00
0E00
ENDCHAR
STARTCHAR 1F85
ENCODING 8069
SWIDTH 607 0
DWIDTH 17 0
BBX 13 28 2 -7
BITMAP
0638
0F38
0F70
0860
0840
04C0
0000
0E38
3F38
3F78
7170
60F0
C0E0
C1E0
81C0
8380
8388
CF88
FFF8
7E78
3870
0000
0400
0400
0E00
0E00
0E00
0E00
ENDCHAR
STARTCHAR 1F86
ENCODING 8070
SWIDTH 607 0
DWIDTH 17 0
BBX 13 32 2 -7
BITMAP
0F10
1FF0
11E0
0000
0700
0780
0380
0080
0080
0100
0000
0E38
3F78
3F78
7170
60F0
C0E0
C1C0
81C0
8380
8388
CF88
FFF8
7E78
3870
0000
0400
0400
0E00
0E00
0E00
0E00
ENDCHAR
STARTCHAR 1F87
ENCODING 8071
SWIDTH 607 0
DWIDTH 17 0
BBX 13 32 2 -7
BITMAP
0F10
1FF0
11E0
0000
0780
0780
0700
0400
0400
0200
0000
0E38
3F38
3F78
7170
60F0
C0E0
C1C0
81C0
8380
8388
CF88
FFF8
7E78
3870
0000
0400
0400
0E00
0E00
0E00
0E00
ENDCHAR
STARTCHAR 1F88
ENCODING 8072
SWIDTH 785 0
DWIDTH 22 0
BBX 19 29 2 -8
BITMAP
E06000
F06000
F06000
10F000
20F000
20F000
41F800
017800
017800
037C00
023C00
023C00
063E00
041E00
07FE00
081F00
080F00
080F00
180F80
380F80
FE3FE0
000000
000000
004000
004000
00E000
00E000
00E000
00E000
ENDCHAR
STARTCHAR 1F89
ENCODING 8073
SWIDTH 785 0
DWIDTH 22 0
BBX 19 29 2 -8
BITMAP
606000
F06000
F06000
80F000
80F000
40F000
21F800
017800
017800
033C00
023C00
023C00
043E00
041E00
07FE00
081F00
080F00
080F00
180F80
380F80
FE3FE0
000000
000000
004000
004000
00E000
00E000
00E000
00E000
ENDCHAR
STARTCHAR 1F8A
ENCODING 8074
SWIDTH 821 0
DWIDTH 23 0
BBX 24 29 -2 -8
BITMAP
660200
F60300
770700
130700
110780
208F80
408F80
000FC0
0013C0
0013C0
0013E0
0021E0
0021E0
0021F0
007FF0
0040F0
0040F8
008078
008078
01807C
07F3FF
000000
000000
000400
000400
000E00
000E00
000E00
000E00
ENDCHAR
STARTCHAR 1F8B
ENCODING 8075
SWIDTH 821 0
DWIDTH 23 0
BBX 24 29 -1 -8
BITMAP
660600
FE0600
E60700
830F00
830F00
410F80
201F80
001780
0017C0
0037C0
0023C0
0023E0
0043E0
0041E0
007FF0
0040F0
0080F0
0080F8
018078
018078
07E3FF
000000
000000
000400
000400
000E00
000E00
000E00
000E00
ENDCHAR
STARTCHAR 1F8C
ENCODING 8076
SWIDTH 857 0
DWIDTH 24 0
BBX 23 29 0 -8
BITMAP
630600
F38600
730600
160F00
160F00
2C0F00
401F80
001780
001780
0027C0
0023C0
0023C0
0043E0
0041E0
007FE0
0081F0
0080F0
0080F0
0100F0
0380F8
0FE7FE
000000
000000
000400
000400
000E00
000E00
000E00
000E00
ENDCHAR
STARTCHAR 1F8D
ENCODING 8077
SWIDTH 857 0
DWIDTH 24 0
BBX 23 29 0 -8
BITMAP
630600
F38600
F70E00
860F00
860F00
4C1F00
201F80
001780
003780
0027C0
0023C0
0063C0
0043E0
0041E0
00FFE0
0081F0
0080F0
0180F0
0100F0
0380F8
0FE7FE
000000
000000
000400
000400
000E00
000E00
000E00
000E00
ENDCHAR
STARTCHAR 1F8E
ENCODING 8078
SWIDTH 785 0
DWIDTH 22 0
BBX 23 33 -1 -8
BITMAP
708000
FF8000
8F0000
000400
380C00
3C0C00
1C0E00
041E00
0C1E00
081F00
003F00
002F00
002F80
006780
004780
0047C0
00C3C0
0083C0
00FFE0
0181E0
0101E0
0101F0
0300F0
0300F0
1FC7FE
000000
000000
000800
000800
001C00
001C00
001C00
001C00
ENDCHAR
STARTCHAR 1F8F
ENCODING 8079
SWIDTH 785 0
DWIDTH 22 0
BBX 23 33 -1 -8
BITMAP
708000
FF8000
8F0000
000400
3C0C00
3C0C00
380E00
201E00
201E00
101F00
002F00
002F00
002F80
006780
004780
0047C0
0043C0
0083C0
00FFE0
0081E0
0101E0
0101F0
0100F0
0300F0
0FC7FE
000000
000000
000800
000800
001C00
001C00
001C00
001C00
ENDCHAR
STARTCHAR 1F90
ENCODING 8080
SWIDTH 642 0
DWIDTH 18 0
BBX 15 29 1 -8
BITMAP
0380
07C0
03C0
0040
0080
0100
0000
7078
78FC
F9C6
CF82
8782
0702
0702
0706
0F06
0F06
0F06
0E0E
0E0C
0C0C
001C
001C
041C
043C
0E3C
0E3C
0E3C
0E18
ENDCHAR
STARTCHAR 1F91
ENCODING 8081
SWIDTH 642 0
DWIDTH 18 0
BBX 15 29 1 -8
BITMAP
0180
03C0
03C0
0200
0200
0100
0000
7078
78FC
F9C6
CF82
8782
0702
0702
0706
0706
0F06
0F06
0E0E
0E0C
0C0C
001C
001C
041C
043C
0E3C
0E3C
0E3C
0E18
ENDCHAR
STARTCHAR 1F92
ENCODING 8082
SWIDTH 642 0
DWIDTH 18 0
BBX 15 29 1 -8
BITMAP
1D80
1FC0
1EC0
0260
0460
0830
0000
7078
78FC
F9C6
CF82
8782
0702
0702
0706
0706
0F06
0F06
0E0E
0E0C
0C0C
001C
001C
041C
043C
0E3C
0E3C
0E3C
0E18
ENDCHAR
STARTCHAR 1F93
ENCODING 8083
SWIDTH 642 0
DWIDTH 18 0
BBX 15 29 1 -8
BITMAP
0D80
1DC0
1CC0
1060
1060
0830
0000
3078
78FC
79C6
CF82
8782
0782
0702
0706
0F06
0F06
0F06
0F0E
0E0C
0E0C
001C
001C
041C
043C
0E3C
0E3C
0E3C
0E18
ENDCHAR
STARTCHAR 1F94
ENCODING 8084
SWIDTH 642 0
DWIDTH 18 0
BBX 15 29 1 -8
BITMAP
0E38
0F38
0F30
0160
0260
06C0
0000
7078
78FC
F9C6
CF82
8782
0702
0702
0706
0F06
0F06
0F06
0E0E
0E0C
0C0C
001C
001C
041C
043C
0E3C
0E3C
0E3C
0E18
ENDCHAR
STARTCHAR 1F95
ENCODING 8085
SWIDTH 642 0
DWIDTH 18 0
BBX 15 29 1 -8
BITMAP
0638
0F38
0F70
0860
0860
04C0
0000
7078
F8FC
F9C6
CB82
8F82
0702
0702
0F06
0F06
0F06
0E06
0E0E
1E0C
0C0C
001C
001C
041C
0C3C
0C3C
0E3C
0E3C
0C18
ENDCHAR
STARTCHAR 1F96
ENCODING 8086
SWIDTH 642 0
DWIDTH 18 0
BBX 15 33 1 -8
BITMAP
0708
1FF0
11E0
0000
0700
0780
0380
0080
0080
0100
0000
7078
78FC
F9C6
CF82
8782
0702
0702
0706
0F06
0F06
0F06
0E0E
0E0C
0C0C
001C
001C
041C
043C
0E3C
0E3C
0E3C
0E18
ENDCHAR
STARTCHAR 1F97
ENCODING 8087
SWIDTH 642 0
DWIDTH 18 0
BBX 15 33 1 -8
BITMAP
0708
1FF0
11E0
0000
0780
0780
0700
0400
0400
0200
0000
7078
78FC
F9C6
CF82
8782
0702
0702
0706
0F06
0F06
0F06
0E0E
0E0C
0C0C
001C
001C
041C
043C
0E3C
0E3C
0E3C
0E18
ENDCHAR
STARTCHAR 1F98
ENCODING 8088
SWIDTH 1071 0
DWIDTH 30 0
BBX 27 29 2 -8
BITMAP
E3FF7FE0
F0780F00
F0780F00
10780F00
10780F00
20780F00
40780F00
00780F00
00780F00
00780F00
007FFF00
00780F00
00780F00
00780F00
00780F00
00780F00
00780F00
00780F00
00780F00
00780F00
03FF7FE0
00000000
00000000
00008000
00008000
0001C000
0001C000
0001C000
0001C000
ENDCHAR
STARTCHAR 1F99
ENCODING 8089
SWIDTH 1071 0
DWIDTH 30 0
BBX 27 29 2 -8
BITMAP
63FF7FE0
F0780F00
F0780F00
80780F00
80780F00
40780F00
20780F00
00780F00
00780F00
00780F00
007FFF00
00780F00
00780F00
00780F00
00780F00
00780F00
00780F00
00780F00
00780F00
00780F00
03FF7FE0
00000000
00000000
00008000
00008000
0001C000
0001C000
0001C000
0001C000
ENDCHAR
STARTCHAR 1F9A
ENCODING 8090
SWIDTH 1071 0
DWIDTH 30 0
BBX 31 29 -2 -8
BITMAP
661FF7FE
F703C0F0
7703C0F0
1303C0F0
1183C0F0
2083C0F0
4083C0F0
0003C0F0
0003C0F0
0003C0F0
0003FFF0
0003C0F0
0003C0F0
0003C0F0
0003C0F0
0003C0F0
0003C0F0
0003C0F0
0003C0F0
0003C0F0
001FF7FE
00000000
00000000
00000800
00000800
00001C00
00001C00
00001C00
00001C00
ENDCHAR
STARTCHAR 1F9B
ENCODING 8091
SWIDTH 1107 0
DWIDTH 31 0
BBX 31 29 -1 -8
BITMAP
663FF7FE
FE0780F0
E60780F0
830780F0
830780F0
410780F0
208780F0
000780F0
000780F0
000780F0
0007FFF0
000780F0
000780F0
000780F0
000780F0
000780F0
000780F0
000780F0
000780F0
000780F0
003FF7FE
00000000
00000000
00000800
00000800
00001C00
00001C00
00001C00
00001C00
ENDCHAR
STARTCHAR 1F9C
ENCODING 8092
SWIDTH 1142 0
DWIDTH 32 0
BBX 31 29 0 -8
BITMAP
63BFF7FE
F38780F0
730780F0
170780F0
160780F0
240780F0
480780F0
000780F0
000780F0
000780F0
0007FFF0
000780F0
000780F0
000780F0
000780F0
000780F0
000780F0
000780F0
000780F0
000780F0
003FF7FE
00000000
00000000
00000800
00000800
00001C00
00001C00
00001C00
00001C00
ENDCHAR
STARTCHAR 1F9D
ENCODING 8093
SWIDTH 1107 0
DWIDTH 31 0
BBX 30 29 0 -8
BITMAP
63BFF7FC
F38781E0
F30781E0
870781E0
860781E0
4C0781E0
280781E0
000781E0
000781E0
000781E0
0007FFE0
000781E0
000781E0
000781E0
000781E0
000781E0
000781E0
000781E0
000781E0
000781E0
003FF7FC
00000000
00000000
00000800
00000800
00001C00
00001C00
00001C00
00001C00
ENDCHAR
STARTCHAR 1F9E
ENCODING 8094
SWIDTH 1071 0
DWIDTH 30 0
BBX 30 33 -1 -8
BITMAP
70800000
FF800000
8F000000
00000000
387FEFFC
3C0F01E0
1C0F01E0
040F01E0
040F01E0
080F01E0
000F01E0
000F01E0
000F01E0
000F01E0
000FFFE0
000F01E0
000F01E0
000F01E0
000F01E0
000F01E0
000F01E0
000F01E0
000F01E0
000F01E0
007FEFFC
00000000
00000000
00001000
00001000
00003800
00003800
00003800
00003800
ENDCHAR
STARTCHAR 1F9F
ENCODING 8095
SWIDTH 1071 0
DWIDTH 30 0
BBX 30 33 -1 -8
BITMAP
70800000
FF800000
8F000000
00000000
3C7FEFFC
3C0F01E0
380F01E0
200F01E0
200F01E0
100F01E0
000F01E0
000F01E0
000F01E0
000F01E0
000FFFE0
000F01E0
000F01E0
000F01E0
000F01E0
000F01E0
000F01E0
000F01E0
000F01E0
000F01E0
007FEFFC
00000000
00000000
00001000
00001000
00003800
00003800
00003800
00003800
ENDCHAR
STARTCHAR 1FA0
ENCODING 8096
SWIDTH 678 0
DWIDTH 19 0
BBX 17 28 1 -7
BITMAP
018000
03C000
03C000
004000
008000
008000
000000
180800
3C0600
780600
78C300
F1E300
F1E380
E1E380
E1E380
E1C380
E1C380
60C700
708700
394E00
1E3C00
000000
008000
008000
01C000
01C000
01C000
01C000
ENDCHAR
STARTCHAR 1FA1
ENCODING 8097
SWIDTH 678 0
DWIDTH 19 0
BBX 17 28 1 -7
BITMAP
018000
03C000
03C000
020000
020000
010000
000000
380800
780600
780600
F8C300
F1E300
F1E380
E1E380
E1E380
E1C380
E1C380
61C700
708700
394E00
1E3C00
000000
008000
008000
01C000
01C000
01C000
01C000
ENDCHAR
STARTCHAR 1FA2
ENCODING 8098
SWIDTH 678 0
DWIDTH 19 0
BBX 17 28 1 -7
BITMAP
0CC000
1EE000
0EE000
027000
043000
0C1800
000000
380800
780600
780600
F8C300
F1E300
F1E380
F1E380
E1E380
E1E380
E1C380
71C700
708700
394E00
1E3C00
000000
008000
008000
01C000
01C000
01C000
01C000
ENDCHAR
STARTCHAR 1FA3
ENCODING 8099
SWIDTH 714 0
DWIDTH 20 0
BBX 17 28 1 -7
BITMAP
0EE000
1FE000
1E7000
103000
081000
040800
000000
180C00
380600
780700
78C300
F0E380
F1E380
E1E380
E1E380
E1E380
E0C380
60C780
708700
39CF00
1E3C00
000000
008000
00C000
00C000
01C000
01C000
00C000
ENDCHAR
STARTCHAR 1FA4
ENCODING 8100
SWIDTH 678 0
DWIDTH 19 0
BBX 17 28 1 -7
BITMAP
061800
073C00
073800
017000
016000
02C000
000000
180800
3C0600
780600
78C300
F1E300
F1E380
E1E380
E1E380
E1C380
E1C380
618700
718700
3B8E00
1E7C00
000000
008000
008000
01C000
01C000
01C000
01C000
ENDCHAR
STARTCHAR 1FA5
ENCODING 8101
SWIDTH 678 0
DWIDTH 19 0
BBX 17 28 1 -7
BITMAP
031800
079C00
073800
043000
042000
034000
000000
180800
3C0600
780600
78C300
F1E300
F1E380
E1E380
E1E380
E1E380
E1C380
60C700
708700
394E00
1E3C00
000000
008000
008000
01C000
01C000
01C000
01C000
ENDCHAR
STARTCHAR 1FA6
ENCODING 8102
SWIDTH 678 0
DWIDTH 19 0
BBX 17 32 1 -7
BITMAP
078800
0FF800
10F000
000000
038000
03C000
01C000
004000
00C000
008000
000000
180800
3C0600
780600
78C300
F1E300
F1E380
E1E380
E1E380
E1E380
E1C380
60C700
708700
394E00
1E3C00
000000
008000
008000
01C000
01C000
01C000
01C000
ENDCHAR
STARTCHAR 1FA7
ENCODING 8103
SWIDTH 678 0
DWIDTH 19 0
BBX 17 32 1 -7
BITMAP
078800
0FF800
10F000
000000
03C000
03C000
038000
020000
020000
010000
000000
180800
3C0600
780600
78C300
F1E300
F1E380
E1E380
E1E380
E1E380
E1C380
60C700
708700
39CE00
1E3C00
000000
008000
008000
01C000
01C000
01C000
01C000
ENDCHAR
STARTCHAR 1FA8
ENCODING 8104
SWIDTH 928 0
DWIDTH 26 0
BBX 22 30 2 -8
BITMAP
000400
E07FC0
F0E0E0
F1E0F0
13E0F8
13C078
27C07C
47C07C
07C07C
07C07C
07C07C
07C07C
03C078
03C078
01E0F0
00E0E0
003980
040904
040904
07F9FC
07F9FC
07F9FC
000000
000000
000400
000400
000E00
000E00
000E00
000E00
ENDCHAR
STARTCHAR 1FA9
ENCODING 8105
SWIDTH 928 0
DWIDTH 26 0
BBX 22 30 2 -8
BITMAP
000400
607FC0
F0E0E0
F1E0F0
83E0F8
83C078
47C07C
27C07C
07C07C
07C07C
07C07C
07C07C
03C078
01C078
01E0F0
0060E0
003980
040904
040904
07F9FC
07F9FC
07F9FC
000000
000000
000400
000400
000E00
000E00
000E00
000E00
ENDCHAR
STARTCHAR 1FAA
ENCODING 8106
SWIDTH 964 0
DWIDTH 27 0
BBX 27 30 -2 -8
BITMAP
00002000
6603FE00
F7070700
770F0780
131F07C0
119E03C0
21BE03E0
40BE03E0
003E03E0
003E03E0
003E03E0
003E03E0
001E03C0
001E0780
000F0780
00070E00
00039C00
00209020
00209020
003F9FE0
003F9FE0
003F9FE0
00000000
00000000
00002000
00002000
00007000
00007000
00007000
00007000
ENDCHAR
STARTCHAR 1FAB
ENCODING 8107
SWIDTH 1000 0
DWIDTH 28 0
BBX 27 30 -1 -8
BITMAP
00002000
6603FE00
F7070700
F70F0780
831F07C0
819E03C0
40BE03E0
20BE03E0
003E03E0
003E03E0
003E03E0
003E03E0
001E03C0
001E0780
000F0780
00070E00
00039C00
00209020
00209020
003F9FE0
003F9FE0
003F9FE0
00000000
00000000
00002000
00002000
00007000
00007000
00007000
00007000
ENDCHAR
STARTCHAR 1FAC
ENCODING 8108
SWIDTH 1000 0
DWIDTH 28 0
BBX 26 30 0 -8
BITMAP
00004000
6307FC00
F38E0E00
771E0F00
163E0F80
163C0780
247C07C0
487C07C0
007C07C0
007C07C0
007C07C0
007C07C0
003C0780
003C0780
001E0F00
000E0E00
00039C00
00409040
00409040
007F9FC0
007F9FC0
007F9FC0
00000000
00000000
00004000
00004000
0000E000
0000E000
0000E000
0000E000
ENDCHAR
STARTCHAR 1FAD
ENCODING 8109
SWIDTH 1000 0
DWIDTH 28 0
BBX 26 30 0 -8
BITMAP
00004000
6307FC00
F38E0E00
F71E0F00
863E0F80
863C0780
4C7C07C0
287C07C0
007C07C0
007C07C0
007C07C0
007C07C0
003C0780
003C0F00
001E0F00
000E1C00
00073800
00412040
00412040
007F3FC0
007F3FC0
007F3FC0
00000000
00000000
00004000
00004000
0000E000
0000E000
0000E000
0000E000
ENDCHAR
STARTCHAR 1FAE
ENCODING 8110
SWIDTH 928 0
DWIDTH 26 0
BBX 25 33 -1 -8
BITMAP
70800000
FF000000
8E000000
00008000
380FF800
3C1C1C00
1C3C1E00
047C1F00
0C780F00
08F80F80
00F80F80
00F80F80
00F80F80
00F80F80
00F80F80
00780F00
00380F00
003C1E00
000E1C00
00073000
00812080
00812080
00FF3F80
00FF3F80
00FF3F80
00000000
00000000
00008000
00018000
00018000
0001C000
0001C000
00018000
ENDCHAR
STARTCHAR 1FAF
ENCODING 8111
SWIDTH 928 0
DWIDTH 26 0
BBX 25 33 -1 -8
BITMAP
70800000
FF000000
8E000000
00008000
3C0FF800
3C1C1C00
383C1E00
207C1F00
20780F00
10F80F80
00F80F80
00F80F80
00F80F80
00F80F80
00F80F80
00780F00
003C0F00
003C1E00
000E1C00
00873080
00812080
00812080
00FF3F80
00FF3F80
00FF3F80
00000000
00000000
00008000
00018000
00018000
0001C000
0001C000
00018000
ENDCHAR
STARTCHAR 1FB0
ENCODING 8112
SWIDTH 607 0
DWIDTH 17 0
BBX 13 21 2 0
BITMAP
0820
0820
0C60
07C0
0380
0000
0000
0E38
3F38
3F78
7170
60F0
C0E0
C1C0
81C0
8180
8388
8788
FFF8
7E78
3870
ENDCHAR
STARTCHAR 1FB1
ENCODING 8113
SWIDTH 607 0
DWIDTH 17 0
BBX 13 19 2 0
BITMAP
0FE0
0FE0
0000
0000
0000
0E38
3F38
3F78
7170
60F0
C0E0
C1C0
81C0
8380
8388
CF88
FFF8
7E78
3870
ENDCHAR
STARTCHAR 1FB2
ENCODING 8114
SWIDTH 607 0
DWIDTH 17 0
BBX 13 28 2 -7
BITMAP
0C00
0E00
0600
0300
0300
0100
0000
0E38
3F38
3F78
7170
60F0
C0E0
C1C0
81C0
8380
8388
CF88
FFF8
7E78
3870
0000
0400
0600
0600
0600
0E00
0600
ENDCHAR
STARTCHAR 1FB3
ENCODING 8115
SWIDTH 607 0
DWIDTH 17 0
BBX 13 21 2 -7
BITMAP
0E38
3F38
3F78
7170
60F0
C0E0
C1C0
81C0
8380
8388
CF88
FFF8
7E78
3870
0000
0400
0400
0E00
0E00
0E00
0E00
ENDCHAR
STARTCHAR 1FB4
ENCODING 8116
SWIDTH 607 0
DWIDTH 17 0
BBX 13 28 2 -7
BITMAP
0060
00E0
00E0
01C0
0180
0300
0000
0E38
1F38
3F78
71F0
60F0
C0E0
C1E0
81C0
8380
8388
CF88
FFF8
7E78
3870
0000
0400
0400
0E00
0E00
0E00
0E00
ENDCHAR
STARTCHAR 1FB6
ENCODING 8118
SWIDTH 607 0
DWIDTH 17 0
BBX 13 20 2 0
BITMAP
0610
0F90
13E0
10C0
0000
0000
0E38
3F38
3F78
7170
60F0
C0E0
C1C0
81C0
8380
8388
CF88
FFF8
7E78
3870
ENDCHAR
STARTCHAR 1FB7
ENCODING 8119
SWIDTH 607 0
DWIDTH 17 0
BBX 13 27 2 -7
BITMAP
0E10
0F90
13E0
20C0
0000
0000
0E38
3F38
3F78
7170
60F0
C0E0
C1C0
81C0
8380
8388
CF88
FFF8
7E78
3870
0000
0400
0400
0E00
0E00
0E00
0E00
ENDCHAR
STARTCHAR 1FB8
ENCODING 8120
SWIDTH 785 0
DWIDTH 22 0
BBX 19 27 2 0
BITMAP
040400
040400
060800
03F800
01F000
000000
004000
00E000
00E000
00E000
01F000
01F000
01F000
02F800
027800
027800
047C00
043C00
043C00
083E00
0FFE00
081E00
101F00
100F00
100F00
300F80
FE7FE0
ENDCHAR
STARTCHAR 1FB9
ENCODING 8121
SWIDTH 750 0
DWIDTH 21 0
BBX 19 25 1 0
BITMAP
03FC00
03FC00
000000
000000
006000
006000
006000
00F000
00F000
00F000
01F800
017800
017800
027C00
023C00
023C00
043E00
041E00
07FE00
081F00
080F00
080F00
180F80
380F80
FE3FE0
ENDCHAR
STARTCHAR 1FBA
ENCODING 8122
SWIDTH 750 0
DWIDTH 21 0
BBX 20 21 1 0
BITMAP
C02000
E06000
607000
307000
10F000
08F800
00F800
017800
017C00
013C00
023C00
023E00
021E00
041E00
07FE00
040F00
080F00
080F00
080F80
180F80
7F3FF0
ENDCHAR
STARTCHAR 1FBB
ENCODING 8123
SWIDTH 785 0
DWIDTH 22 0
BBX 19 21 2 0
BITMAP
184000
386000
30E000
60E000
40F000
81F000
01F000
01F800
027800
027800
027C00
043C00
043C00
043E00
0FFE00
081E00
081F00
100F00
100F00
300F80
FE7FE0
ENDCHAR
STARTCHAR 1FBC
ENCODING 8124
SWIDTH 1107 0
DWIDTH 31 0
BBX 28 21 2 0
BITMAP
00400000
00E00000
00E00000
00E00000
01F00000
01F00000
01F00000
03F80000
02780000
02780000
067C07F0
043C01C0
043C01C0
083E01C0
0FFE01C0
081E01C0
181E01C0
101F01C0
100F01C0
300F81C0
FE7FE7F0
ENDCHAR
STARTCHAR 1FBD
ENCODING 8125
SWIDTH 250 0
DWIDTH 7 0
BBX 4 7 2 14
BITMAP
E0
F0
F0
10
10
20
40
ENDCHAR
STARTCHAR 1FBE
ENCODING 8126
SWIDTH 321 0
DWIDTH 9 0
BBX 7 11 1 0
BITMAP
FE
38
38
38
38
38
38
38
38
38
FE
ENDCHAR
STARTCHAR 1FBF
ENCODING 8127
SWIDTH 250 0
DWIDTH 7 0
BBX 4 7 2 14
BITMAP
E0
F0
F0
10
10
20
40
ENDCHAR
STARTCHAR 1FC0
ENCODING 8128
SWIDTH 428 0
DWIDTH 12 0
BBX 10 4 1 16
BITMAP
3840
7C40
4F80
8700
ENDCHAR
STARTCHAR 1FC1
ENCODING 8129
SWIDTH 464 0
DWIDTH 13 0
BBX 9 6 2 15
BITMAP
7F80
FF00
0000
E380
E380
E380
ENDCHAR
STARTCHAR 1FC2
ENCODING 8130
SWIDTH 642 0
DWIDTH 18 0
BBX 15 29 1 -8
BITMAP
0600
0700
0700
0380
0180
00C0
0000
7078
78FC
F9C6
CF82
8782
0702
0702
0706
0F06
0F06
0F06
0E0E
0E0C
0C0C
001C
001C
041C
043C
0E3C
0E3C
0E3C
0E18
ENDCHAR
STARTCHAR 1FC3
ENCODING 8131
SWIDTH 642 0
DWIDTH 18 0
BBX 15 22 1 -8
BITMAP
7078
78FC
F9C6
CF82
8782
0702
0702
0706
0F06
0F06
0F06
0E0E
0E0C
0C0C
001C
001C
041C
043C
0E3C
0E3C
0E3C
0E18
ENDCHAR
STARTCHAR 1FC4
ENCODING 8132
SWIDTH 642 0
DWIDTH 18 0
BBX 15 29 1 -8
BITMAP
0030
0070
0070
00E0
00C0
0180
0000
7078
78FC
F9C6
CF82
8782
0702
0702
0706
0F06
0F06
0F06
0E0E
0E0C
0C0C
001C
001C
041C
043C
0E3C
0E3C
0E3C
0E18
ENDCHAR
STARTCHAR 1FC6
ENCODING 8134
SWIDTH 642 0
DWIDTH 18 0
BBX 15 28 1 -8
BITMAP
0384
07C8
04F8
0870
0000
0000
7078
78FC
F9C6
CF82
8782
0782
0702
0706
0706
0F06
0F06
0E0E
0E0C
0E0C
001C
001C
001C
003C
003C
003C
003C
0018
ENDCHAR
STARTCHAR 1FC7
ENCODING 8135
SWIDTH 642 0
DWIDTH 18 0
BBX 15 28 1 -8
BITMAP
0384
07C8
08F8
0870
0000
0000
7078
78FC
F9C6
CF82
8782
0702
0702
0706
0F06
0F06
0F06
0E0E
0E0C
0C0C
001C
001C
041C
043C
0E3C
0E3C
0E3C
0E18
ENDCHAR
STARTCHAR 1FC8
ENCODING 8136
SWIDTH 857 0
DWIDTH 24 0
BBX 22 21 0 0
BITMAP
C3FFFC
E0783C
60781C
30780C
10780C
087804
007844
007840
0078C0
0079C0
007FC0
0079C0
0078C0
007844
007844
007804
007804
00780C
00781C
00783C
03FFFC
ENDCHAR
STARTCHAR 1FC9
ENCODING 8137
SWIDTH 928 0
DWIDTH 26 0
BBX 22 21 2 0
BITMAP
1BFFFC
38783C
30781C
60780C
40780C
C07804
007844
007840
0078C0
0079C0
007FC0
0079C0
0078C0
007844
007844
007804
007804
00780C
00781C
00783C
03FFFC
ENDCHAR
STARTCHAR 1FCA
ENCODING 8138
SWIDTH 1000 0
DWIDTH 28 0
BBX 27 21 0 0
BITMAP
C3FF7FE0
E0780F00
60780F00
30780F00
10780F00
18780F00
00780F00
00780F00
00780F00
00780F00
007FFF00
00780F00
00780F00
00780F00
00780F00
00780F00
00780F00
00780F00
00780F00
00780F00
03FF7FE0
ENDCHAR
STARTCHAR 1FCB
ENCODING 8139
SWIDTH 1071 0
DWIDTH 30 0
BBX 27 21 2 0
BITMAP
1BFF7FE0
38780F00
30780F00
60780F00
60780F00
C0780F00
00780F00
00780F00
00780F00
00780F00
007FFF00
00780F00
00780F00
00780F00
00780F00
00780F00
00780F00
00780F00
00780F00
00780F00
03FF7FE0
ENDCHAR
STARTCHAR 1FCC
ENCODING 8140
SWIDTH 1142 0
DWIDTH 32 0
BBX 30 21 1 0
BITMAP
FFDFF800
1E03C000
1E03C000
1E03C000
1E03C000
1E03C000
1E03C000
1E03C000
1E03C000
1E03C000
1FFFC1FC
1E03C070
1E03C070
1E03C070
1E03C070
1E03C070
1E03C070
1E03C070
1E03C070
1E03C070
FFDFF9FC
ENDCHAR
STARTCHAR 1FCD
ENCODING 8141
SWIDTH 250 0
DWIDTH 7 0
BBX 9 7 -2 14
BITMAP
6600
F700
7700
1300
1180
2180
4080
ENDCHAR
STARTCHAR 1FCE
ENCODING 8142
SWIDTH 321 0
DWIDTH 9 0
BBX 9 7 0 14
BITMAP
6380
F380
7300
1700
1600
2400
4800
ENDCHAR
STARTCHAR 1FCF
ENCODING 8143
SWIDTH 250 0
DWIDTH 7 0
BBX 9 10 -1 15
BITMAP
7080
FF80
8F00
0000
3800
3C00
1C00
0400
0C00
0800
ENDCHAR
STARTCHAR 1FD0
ENCODING 8144
SWIDTH 285 0
DWIDTH 8 0
BBX 8 21 0 0
BITMAP
81
82
C2
7E
38
00
00
38
38
38
38
30
30
30
20
20
20
32
3E
3C
1C
ENDCHAR
STARTCHAR 1FD1
ENCODING 8145
SWIDTH 321 0
DWIDTH 9 0
BBX 7 19 1 0
BITMAP
FE
FE
00
00
00
38
38
38
38
38
30
30
20
20
22
32
3E
3C
18
ENDCHAR
STARTCHAR 1FD2
ENCODING 8146
SWIDTH 321 0
DWIDTH 9 0
BBX 9 22 -1 1
BITMAP
3000
3000
1800
1800
EB80
E780
E380
0000
1C00
1C00
1C00
1C00
1C00
1800
1800
1000
1000
1000
1900
1F00
1E00
0E00
ENDCHAR
STARTCHAR 1FD3
ENCODING 8147
SWIDTH 321 0
DWIDTH 9 0
BBX 9 22 -1 1
BITMAP
0600
0600
0600
0400
EF80
EB80
E380
0000
1C00
1C00
1C00
1C00
1C00
1800
1800
1000
1000
1000
1900
1F00
1E00
0E00
ENDCHAR
STARTCHAR 1FD6
ENCODING 8150
SWIDTH 285 0
DWIDTH 8 0
BBX 9 20 -1 0
BITMAP
3880
7C80
5F00
8700
0000
0000
1C00
1C00
1C00
1C00
1800
1800
1800
1000
1000
1000
1900
1F00
1E00
0E00
ENDCHAR
STARTCHAR 1FD7
ENCODING 8151
SWIDTH 321 0
DWIDTH 9 0
BBX 9 21 -1 0
BITMAP
7F80
FF00
0000
E380
E380
E380
0000
1C00
1C00
1C00
1C00
1C00
1800
1800
1000
1000
1000
1900
1F00
1E00
0E00
ENDCHAR
STARTCHAR 1FD8
ENCODING 8152
SWIDTH 464 0
DWIDTH 13 0
BBX 10 25 2 0
BITMAP
7F80
7F80
0000
0000
FFC0
1E00
1E00
1E00
1E00
1E00
1E00
1E00
1E00
1E00
1E00
1E00
1E00
1E00
1E00
1E00
1E00
1E00
1E00
1E00
FFC0
ENDCHAR
STARTCHAR 1FD9
ENCODING 8153
SWIDTH 464 0
DWIDTH 13 0
BBX 9 27 2 0
BITMAP
8080
8180
4100
7F00
3E00
0000
FF80
3C00
3C00
3C00
3C00
3C00
3C00
3C00
3C00
3C00
3C00
3C00
3C00
3C00
3C00
3C00
3C00
3C00
3C00
3C00
FF80
ENDCHAR
STARTCHAR 1FDA
ENCODING 8154
SWIDTH 607 0
DWIDTH 17 0
BBX 16 21 0 0
BITMAP
C3FF
E078
6078
3078
1078
0878
0078
0078
0078
0078
0078
0078
0078
0078
0078
0078
0078
0078
0078
0078
03FF
ENDCHAR
STARTCHAR 1FDB
ENCODING 8155
SWIDTH 678 0
DWIDTH 19 0
BBX 16 21 2 0
BITMAP
1BFF
3878
3078
6078
4078
8078
0078
0078
0078
0078
0078
0078
0078
0078
0078
0078
0078
0078
0078
0078
03FF
ENDCHAR
STARTCHAR 1FDD
ENCODING 8157
SWIDTH 285 0
DWIDTH 8 0
BBX 9 7 -1 14
BITMAP
6600
F700
F700
8300
8180
4080
2080
ENDCHAR
STARTCHAR 1FDE
ENCODING 8158
SWIDTH 321 0
DWIDTH 9 0
BBX 9 7 0 14
BITMAP
6380
F380
F700
8600
8600
4C00
2800
ENDCHAR
STARTCHAR 1FDF
ENCODING 8159
SWIDTH 250 0
DWIDTH 7 0
BBX 10 10 -2 15
BITMAP
3C40
7FC0
8780
0000
1E00
1E00
1C00
1000
1800
0800
ENDCHAR
STARTCHAR 1FE0
ENCODING 8160
SWIDTH 535 0
DWIDTH 15 0
BBX 13 21 1 0
BITMAP
4080
4100
6100
3F00
1E00
0000
0000
E080
F0C0
F060
7070
3030
3038
3038
1038
1038
1038
1078
1870
0FE0
07C0
ENDCHAR
STARTCHAR 1FE1
ENCODING 8161
SWIDTH 535 0
DWIDTH 15 0
BBX 13 19 1 0
BITMAP
7F00
7F00
0000
0000
0000
E100
F0C0
F060
7060
3030
3038
3038
1038
1038
1038
1078
1870
0FE0
07C0
ENDCHAR
STARTCHAR 1FE2
ENCODING 8162
SWIDTH 535 0
DWIDTH 15 0
BBX 13 22 1 1
BITMAP
3000
3000
1800
1800
FB80
FB80
7380
0000
E180
F0C0
F060
7060
3030
3038
3038
1038
1038
1038
1078
1870
0FE0
07C0
ENDCHAR
STARTCHAR 1FE3
ENCODING 8163
SWIDTH 535 0
DWIDTH 15 0
BBX 13 23 1 0
BITMAP
0200
0600
0600
0600
0400
FF80
FB80
7380
0000
E180
F0C0
F060
7060
3030
3038
3038
1038
1038
1038
1078
1870
0FE0
07C0
ENDCHAR
STARTCHAR 1FE4
ENCODING 8164
SWIDTH 500 0
DWIDTH 14 0
BBX 11 29 2 -8
BITMAP
0600
0F00
0F00
0100
0200
0200
0000
0F00
1F80
3FC0
7E40
7820
7020
6060
6060
40E0
41E0
67C0
7FC0
5F80
4F00
6000
E000
F000
F000
F800
F800
F800
7000
ENDCHAR
STARTCHAR 1FE5
ENCODING 8165
SWIDTH 500 0
DWIDTH 14 0
BBX 11 29 2 -8
BITMAP
0600
0F00
0F00
0800
0800
0400
0200
0F00
1F80
3FC0
7E40
7820
7020
6060
6060
40E0
41E0
67C0
7FC0
7F80
4F00
6000
E000
F000
F000
F800
F800
F800
7000
ENDCHAR
STARTCHAR 1FE6
ENCODING 8166
SWIDTH 535 0
DWIDTH 15 0
BBX 13 20 1 0
BITMAP
7040
7C80
9F80
8700
0000
0000
E080
F0C0
F060
7070
3030
3038
3038
1038
1038
1038
1078
1870
0FE0
07C0
ENDCHAR
STARTCHAR 1FE7
ENCODING 8167
SWIDTH 535 0
DWIDTH 15 0
BBX 13 21 1 0
BITMAP
7F80
FF00
0000
F380
F380
7380
0000
E180
F0C0
F060
7060
3030
3038
3038
1038
1038
1038
1078
1870
0FE0
07C0
ENDCHAR
STARTCHAR 1FE8
ENCODING 8168
SWIDTH 714 0
DWIDTH 20 0
BBX 18 27 1 0
BITMAP
080800
080800
0C1000
07F000
03E000
000000
E00F80
381BC0
1C33C0
0E27C0
0727C0
074780
03C000
03C000
03C000
03C000
03C000
03C000
03C000
03C000
03C000
03C000
03C000
03C000
03C000
03C000
1FF800
ENDCHAR
STARTCHAR 1FE9
ENCODING 8169
SWIDTH 750 0
DWIDTH 21 0
BBX 18 25 2 0
BITMAP
0FF000
0FF000
000000
000000
E01F80
703BC0
1823C0
1C47C0
0E47C0
0E8780
078000
078000
078000
078000
078000
078000
078000
078000
078000
078000
078000
078000
078000
078000
1FF000
ENDCHAR
STARTCHAR 1FEA
ENCODING 8170
SWIDTH 857 0
DWIDTH 24 0
BBX 23 21 0 1
BITMAP
C7007C
C1C0DE
E0E19E
60713E
30393E
103A3C
001E00
001E00
001E00
001E00
001E00
001E00
001E00
001E00
001E00
001E00
001E00
001E00
001E00
001E00
007F80
ENDCHAR
STARTCHAR 1FEB
ENCODING 8171
SWIDTH 964 0
DWIDTH 27 0
BBX 23 21 3 1
BITMAP
33007C
31C0DE
70E19E
60713E
C0393E
803A3C
001E00
001E00
001E00
001E00
001E00
001E00
001E00
001E00
001E00
001E00
001E00
001E00
001E00
001E00
007F80
ENDCHAR
STARTCHAR 1FEC
ENCODING 8172
SWIDTH 928 0
DWIDTH 26 0
BBX 23 21 2 0
BITMAP
63FFE0
F07838
F0783C
80781E
80781E
40781E
00781E
00781E
00783C
007838
007FE0
007800
007800
007800
007800
007800
007800
007800
007800
007800
03FF00
ENDCHAR
STARTCHAR 1FED
ENCODING 8173
SWIDTH 464 0
DWIDTH 13 0
BBX 9 7 2 16
BITMAP
3000
3000
3800
1800
EB80
EB80
E380
ENDCHAR
STARTCHAR 1FEE
ENCODING 8174
SWIDTH 464 0
DWIDTH 13 0
BBX 9 7 2 16
BITMAP
0600
0600
0E00
0C00
EB80
EB80
E380
ENDCHAR
STARTCHAR 1FEF
ENCODING 8175
SWIDTH 178 0
DWIDTH 5 0
BBX 5 7 0 14
BITMAP
C0
E0
60
70
30
10
08
ENDCHAR
STARTCHAR 1FF2
ENCODING 8178
SWIDTH 678 0
DWIDTH 19 0
BBX 17 28 1 -7
BITMAP
060000
0E0000
070000
030000
018000
008000
000000
180800
3C0600
780600
78C300
F1E300
F1E380
E1E380
E1E380
E1E380
E1C380
60C700
708700
394E00
1E3C00
000000
008000
008000
01C000
01C000
01C000
01C000
ENDCHAR
STARTCHAR 1FF3
ENCODING 8179
SWIDTH 678 0
DWIDTH 19 0
BBX 17 21 1 -7
BITMAP
180800
3C0600
780600
78C300
F1E300
F1E380
E1E380
E1E380
E1E380
E1C380
60C700
708700
394E00
1E3C00
000000
008000
008000
01C000
01C000
01C000
01C000
ENDCHAR
STARTCHAR 1FF4
ENCODING 8180
SWIDTH 678 0
DWIDTH 19 0
BBX 17 28 1 -7
BITMAP
003000
007000
007000
00E000
00C000
018000
000000
180800
3C0600
780600
78C300
F1E300
F1E380
E1E380
E1E380
E1E380
E1C380
60C700
708700
394E00
1E3C00
000000
008000
008000
01C000
01C000
01C000
01C000
ENDCHAR
STARTCHAR 1FF6
ENCODING 8182
SWIDTH 678 0
DWIDTH 19 0
BBX 17 20 1 0
BITMAP
070800
0F8800
11F000
10E000
000000
000000
301800
780C00
780600
F18700
F3C300
E3C380
E3C380
E3C380
E3C380
E18380
618700
710700
3B8E00
1C7C00
ENDCHAR
STARTCHAR 1FF7
ENCODING 8183
SWIDTH 678 0
DWIDTH 19 0
BBX 17 27 1 -7
BITMAP
070800
0F8800
11F000
10F000
000000
000000
180800
3C0600
780600
78C300
F1E300
F1E380
E1E380
E1E380
E1E380
E1C380
60C700
708700
394E00
1E3C00
000000
008000
008000
01C000
01C000
01C000
01C000
ENDCHAR
STARTCHAR 1FF8
ENCODING 8184
SWIDTH 821 0
DWIDTH 23 0
BBX 22 22 0 0
BITMAP
000400
C03F80
C060C0
E0E0E0
61C070
33C070
13C078
03C078
07C07C
07C07C
07C07C
07C07C
07C07C
07C07C
07C07C
03C078
03C078
03C078
01C070
00E0E0
0060C0
003F80
ENDCHAR
STARTCHAR 1FF9
ENCODING 8185
SWIDTH 857 0
DWIDTH 24 0
BBX 21 21 2 1
BITMAP
187F00
38C180
71C1C0
6380E0
C780E0
8780F0
0780F0
0F80F8
0F80F8
0F80F8
0F80F8
0F80F8
0F80F8
0F80F8
0780F0
0780F0
0780F0
0380E0
01C1C0
00C180
007F00
ENDCHAR
STARTCHAR 1FFA
ENCODING 8186
SWIDTH 892 0
DWIDTH 25 0
BBX 23 22 0 0
BITMAP
000200
C03FE0
C07070
E0F078
61F07C
31E03C
13E03E
03E03E
03E03E
03E03E
03E03E
03E03E
01E03C
00F078
00F070
0038E0
021DC2
020502
020502
03FDFE
03FDFE
03FDFE
ENDCHAR
STARTCHAR 1FFB
ENCODING 8187
SWIDTH 928 0
DWIDTH 26 0
BBX 21 21 3 1
BITMAP
30FF80
31C1C0
73C1E0
67C1F0
C780F0
8F80F8
0F80F8
0F80F8
0F80F8
0F80F8
0F80F8
0780F0
03C1E0
03C1C0
00E380
087708
081408
081408
0FF7F8
0FF7F8
0FF7F8
ENDCHAR
STARTCHAR 1FFC
ENCODING 8188
SWIDTH 1071 0
DWIDTH 30 0
BBX 27 22 2 0
BITMAP
00800000
0FF80000
1C1C0000
3C1E0000
7C1F0000
780F0000
F80F8000
F80F8000
F80F8000
F80F8000
F80F8000
F80F8FE0
780F0380
781E0380
3C1E0380
0C380380
07700380
81408380
81408380
FF7F8380
FF7F8380
FF7F8FE0
ENDCHAR
STARTCHAR 1FFD
ENCODING 8189
SWIDTH 250 0
DWIDTH 7 0
BBX 5 7 2 14
BITMAP
18
38
30
70
60
40
80
ENDCHAR
STARTCHAR 1FFE
ENCODING 8190
SWIDTH 214 0
DWIDTH 6 0
BBX 4 7 2 14
BITMAP
60
F0
F0
80
80
40
20
ENDCHAR
STARTCHAR 2000
ENCODING 8192
SWIDTH 500 0
DWIDTH 14 0
BBX 0 0 0 0
BITMAP
ENDCHAR
STARTCHAR 2001
ENCODING 8193
SWIDTH 1000 0
DWIDTH 28 0
BBX 0 0 0 0
BITMAP
ENDCHAR
STARTCHAR 2002
ENCODING 8194
SWIDTH 500 0
DWIDTH 14 0
BBX 0 0 0 0
BITMAP
ENDCHAR
STARTCHAR 2003
ENCODING 8195
SWIDTH 1000 0
DWIDTH 28 0
BBX 0 0 0 0
BITMAP
ENDCHAR
STARTCHAR 2004
ENCODING 8196
SWIDTH 321 0
DWIDTH 9 0
BBX 0 0 0 0
BITMAP
ENDCHAR
STARTCHAR 2005
ENCODING 8197
SWIDTH 250 0
DWIDTH 7 0
BBX 0 0 0 0
BITMAP
ENDCHAR
STARTCHAR 2006
ENCODING 8198
SWIDTH 178 0
DWIDTH 5 0
BBX 0 0 0 0
BITMAP
ENDCHAR
STARTCHAR 2007
ENCODING 8199
SWIDTH 571 0
DWIDTH 16 0
BBX 0 0 0 0
BITMAP
ENDCHAR
STARTCHAR 2008
ENCODING 8200
SWIDTH 285 0
DWIDTH 8 0
BBX 0 0 0 0
BITMAP
ENDCHAR
STARTCHAR 2009
ENCODING 8201
SWIDTH 178 0
DWIDTH 5 0
BBX 0 0 0 0
BITMAP
ENDCHAR
STARTCHAR 200A
ENCODING 8202
SWIDTH 71 0
DWIDTH 2 0
BBX 0 0 0 0
BITMAP
ENDCHAR
STARTCHAR 200B
ENCODING 8203
SWIDTH 0 0
DWIDTH 0 0
BBX 0 0 0 0
BITMAP
ENDCHAR
STARTCHAR 200C
ENCODING 8204
SWIDTH 0 0
DWIDTH 0 0
BBX 0 0 0 0
BITMAP
ENDCHAR
STARTCHAR 200D
ENCODING 8205
SWIDTH 0 0
DWIDTH 0 0
BBX 0 0 0 0
BITMAP
ENDCHAR
STARTCHAR 2010
ENCODING 8208
SWIDTH 392 0
DWIDTH 11 0
BBX 7 3 2 6
BITMAP
FE
FE
FE
ENDCHAR
STARTCHAR 2011
ENCODING 8209
SWIDTH 392 0
DWIDTH 11 0
BBX 7 3 2 6
BITMAP
FE
FE
FE
ENDCHAR
STARTCHAR 2012
ENCODING 8210
SWIDTH 607 0
DWIDTH 17 0
BBX 13 2 2 7
BITMAP
FFF8
FFF8
ENDCHAR
STARTCHAR 2013
ENCODING 8211
SWIDTH 642 0
DWIDTH 18 0
BBX 14 2 2 7
BITMAP
FFFC
FFFC
ENDCHAR
STARTCHAR 2014
ENCODING 8212
SWIDTH 1035 0
DWIDTH 29 0
BBX 25 2 2 7
BITMAP
FFFFFF80
FFFFFF80
ENDCHAR
STARTCHAR 2016
ENCODING 8214
SWIDTH 464 0
DWIDTH 13 0
BBX 7 27 3 -6
BITMAP
C6
C6
C6
C6
C6
C6
C6
C6
C6
C6
C6
C6
C6
C6
C6
C6
C6
C6
C6
C6
C6
C6
C6
C6
C6
C6
C6
ENDCHAR
STARTCHAR 2017
ENCODING 8215
SWIDTH 535 0
DWIDTH 15 0
BBX 15 6 0 -8
BITMAP
FFFE
FFFE
0000
0000
FFFE
FFFE
ENDCHAR
STARTCHAR 2018
ENCODING 8216
SWIDTH 285 0
DWIDTH 8 0
BBX 5 10 1 11
BITMAP
18
20
40
80
80
F8
F8
F8
F8
70
ENDCHAR
STARTCHAR 2019
ENCODING 8217
SWIDTH 250 0
DWIDTH 7 0
BBX 5 10 1 12
BITMAP
F0
F8
F8
F8
08
08
10
30
60
80
ENDCHAR
STARTCHAR 201A
ENCODING 8218
SWIDTH 250 0
DWIDTH 7 0
BBX 5 10 1 -5
BITMAP
70
F8
F8
F8
78
08
10
10
20
C0
ENDCHAR
STARTCHAR 201B
ENCODING 8219
SWIDTH 285 0
DWIDTH 8 0
BBX 5 10 1 12
BITMAP
78
F8
F8
F8
80
80
40
40
30
08
ENDCHAR
STARTCHAR 201C
ENCODING 8220
SWIDTH 500 0
DWIDTH 14 0
BBX 11 10 1 11
BITMAP
1860
2080
4100
8200
8200
F3E0
FBE0
FBE0
FBE0
71C0
ENDCHAR
STARTCHAR 201D
ENCODING 8221
SWIDTH 464 0
DWIDTH 13 0
BBX 11 10 1 12
BITMAP
F3C0
FBE0
FBE0
FBE0
0820
0820
1040
30C0
6180
8200
ENDCHAR
STARTCHAR 201E
ENCODING 8222
SWIDTH 464 0
DWIDTH 13 0
BBX 11 10 1 -5
BITMAP
71C0
FBC0
FBE0
FBE0
79E0
0820
1040
1040
2080
C300
ENDCHAR
STARTCHAR 201F
ENCODING 8223
SWIDTH 500 0
DWIDTH 14 0
BBX 11 10 1 12
BITMAP
79E0
FBE0
FBE0
FBE0
8200
8200
4100
4100
30C0
0820
ENDCHAR
ENDFONT
